<svg color-interpolation="auto" height="443" stroke="#000" stroke-linecap="square" stroke-miterlimit="10" width="696" xmlns="http://www.w3.org/2000/svg" xmlns:xlink="http://www.w3.org/1999/xlink"><clipPath id="a"><path color-interpolation="auto" d="m0 0h696v443h-696z"/></clipPath><path clip-path="url(#a)" d="m0 0h696v443h-696z" fill="#fff" stroke="none"/><g style="fill:#fff;text-rendering:optimizeSpeed;color-rendering:optimizeSpeed;image-rendering:optimizeSpeed;shape-rendering:crispEdges;color-interpolation:sRGB;stroke:none"><path d="m0 0h696v443h-696z"/><path d="m90.5 394.5h539.5v-361.5h-539.5z"/></g><g color-interpolation="linearRGB" color-rendering="optimizeQuality" image-rendering="optimizeQuality" text-rendering="geometricPrecision"><g fill="none" stroke="#262626" stroke-linejoin="round" stroke-width=".5"><path d="m90.5 394.5h539.5"/><path d="m90.5 33h539.5"/><path d="m90.5 394.5v-5.395"/><path d="m150.4444 394.5v-5.395"/><path d="m210.3889 394.5v-5.395"/><path d="m270.3333 394.5v-5.395"/><path d="m330.2778 394.5v-5.395"/><path d="m390.2222 394.5v-5.395"/><path d="m450.1667 394.5v-5.395"/><path d="m510.1111 394.5v-5.395"/><path d="m570.0555 394.5v-5.395"/><path d="m630 394.5v-5.395"/><path d="m90.5 33v5.395"/><path d="m150.4444 33v5.395"/><path d="m210.3889 33v5.395"/><path d="m270.3333 33v5.395"/><path d="m330.2778 33v5.395"/><path d="m390.2222 33v5.395"/><path d="m450.1667 33v5.395"/><path d="m510.1111 33v5.395"/><path d="m570.0555 33v5.395"/><path d="m630 33v5.395"/></g><path d="m-1.68 6.51q0-.26.005-.575.005-.315.05-.63.045-.315.13-.615.085-.3.25-.525.165-.225.415-.365.25-.14.61-.14.36 0 .61.14.25.14.415.365.165.225.25.525.085.3.13.615.045.315.05.63.005.315.005.575 0 .4-.025.895-.025.495-.16.93-.135.435-.435.735-.3.3-.84.3-.54 0-.84-.3-.3-.3-.435-.735-.135-.435-.16-.93-.025-.495-.025-.895zm-.9.01q0 .39.02.81.02.42.1.82.08.4.23.755.15.355.41.625.26.27.655.425.395.155.945.155.56 0 .95-.155.39-.155.65-.425.26-.27.41-.625.15-.355.23-.755.08-.4.1-.82.02-.42.02-.81 0-.39-.02-.81-.02-.42-.1-.82-.08-.4-.23-.76-.15-.36-.41-.63-.26-.27-.655-.43-.395-.16-.945-.16-.55 0-.945.16-.395.16-.655.43-.26.27-.41.63-.15.36-.23.76-.08.4-.1.82-.02.42-.02.81z" fill="#262626" stroke="none" transform="translate(90.5 398.5)"/><path d="m-2.44 10v-7.09h-.65q-.07.4-.26.66-.19.26-.465.41-.275.15-.615.205-.34.055-.7.055v.68h1.84v5.08zm3.32-3.49q0-.26.005-.575.005-.315.05-.63.045-.315.13-.615.085-.3.25-.525.165-.225.415-.365.25-.14.61-.14.36 0 .61.14.25.14.415.365.165.225.25.525.085.3.13.615.045.315.05.63.005.315.005.575 0 .4-.025.895-.025.495-.16.93-.135.435-.435.735-.3.3-.84.3-.54 0-.84-.3-.3-.3-.435-.735-.135-.435-.16-.93-.025-.495-.025-.895zm-.9.01q0 .39.02.81.02.42.1.82.08.4.23.755.15.355.41.625.26.27.655.425.395.155.945.155.56 0 .95-.155.39-.155.65-.425.26-.27.41-.625.15-.355.23-.755.08-.4.1-.82.02-.42.02-.81 0-.39-.02-.81-.02-.42-.1-.82-.08-.4-.23-.76-.15-.36-.41-.63-.26-.27-.655-.43-.395-.16-.945-.16-.55 0-.945.16-.395.16-.655.43-.26.27-.41.63-.15.36-.23.76-.08.4-.1.82-.02.42-.02.81z" fill="#262626" stroke="none" transform="translate(150.4444 398.5)"/><path d="m-5.56 5.42h.85q-.01-.32.065-.635.075-.315.245-.565.17-.25.435-.405.265-.155.635-.155.28 0 .53.09.25.09.435.26.185.17.295.405.11.235.11.525 0 .37-.115.65-.115.28-.34.52-.225.24-.565.475-.34.235-.79.515-.37.22-.71.47-.34.25-.61.58-.27.33-.445.775-.175.445-.225 1.075h4.63v-.75h-3.64q.06-.33.255-.585.195-.255.47-.475.275-.22.605-.415.33-.195.66-.395.33-.21.64-.44.31-.23.55-.515.24-.285.385-.645.145-.36.145-.83 0-.5-.175-.88-.175-.38-.475-.635-.3-.255-.705-.39-.405-.135-.865-.135-.56 0-1 .19-.44.19-.735.525-.295.335-.435.795-.14.46-.11 1zm6.44 1.09q0-.26.005-.575.005-.315.05-.63.045-.315.13-.615.085-.3.25-.525.165-.225.415-.365.25-.14.61-.14.36 0 .61.14.25.14.415.365.165.225.25.525.085.3.13.615.045.315.05.63.005.315.005.575 0 .4-.025.895-.025.495-.16.93-.135.435-.435.735-.3.3-.84.3-.54 0-.84-.3-.3-.3-.435-.735-.135-.435-.16-.93-.025-.495-.025-.895zm-.9.01q0 .39.02.81.02.42.1.82.08.4.23.755.15.355.41.625.26.27.655.425.395.155.945.155.56 0 .95-.155.39-.155.65-.425.26-.27.41-.625.15-.355.23-.755.08-.4.1-.82.02-.42.02-.81 0-.39-.02-.81-.02-.42-.1-.82-.08-.4-.23-.76-.15-.36-.41-.63-.26-.27-.655-.43-.395-.16-.945-.16-.55 0-.945.16-.395.16-.655.43-.26.27-.41.63-.15.36-.23.76-.08.4-.1.82-.02.42-.02.81z" fill="#262626" stroke="none" transform="translate(210.3889 398.5)"/><path d="m-3.82 5.95v.72q.24-.03.51-.03.32 0 .595.085.275.085.475.26.2.175.32.43.12.255.12.585 0 .32-.125.575-.125.255-.335.43-.21.175-.49.27-.28.095-.59.095-.73 0-1.11-.435-.38-.435-.4-1.125h-.85q-.01.55.155.98.165.43.475.725.31.295.75.445.44.15.98.15.5 0 .945-.135.445-.135.775-.405.33-.27.525-.675.195-.405.195-.935 0-.64-.315-1.11-.315-.47-.965-.61v-.02q.42-.19.7-.56.28-.37.28-.85 0-.49-.165-.85-.165-.36-.455-.59-.29-.23-.685-.345-.395-.115-.855-.115-.53 0-.935.17-.405.17-.675.47-.27.3-.415.72-.145.42-.165.93h.85q0-.31.08-.59.08-.28.245-.49.165-.21.42-.335.255-.125.595-.125.54 0 .9.285.36.285.36.855 0 .28-.11.5-.11.22-.295.365-.185.145-.43.22-.245.075-.515.075h-.18q-.05 0-.1 0-.04 0-.09-.01zm4.7.56q0-.26.005-.575.005-.315.05-.63.045-.315.13-.615.085-.3.25-.525.165-.225.415-.365.25-.14.61-.14.36 0 .61.14.25.14.415.365.165.225.25.525.085.3.13.615.045.315.05.63.005.315.005.575 0 .4-.025.895-.025.495-.16.93-.135.435-.435.735-.3.3-.84.3-.54 0-.84-.3-.3-.3-.435-.735-.135-.435-.16-.93-.025-.495-.025-.895zm-.9.01q0 .39.02.81.02.42.1.82.08.4.23.755.15.355.41.625.26.27.655.425.395.155.945.155.56 0 .95-.155.39-.155.65-.425.26-.27.41-.625.15-.355.23-.755.08-.4.1-.82.02-.42.02-.81 0-.39-.02-.81-.02-.42-.1-.82-.08-.4-.23-.76-.15-.36-.41-.63-.26-.27-.655-.43-.395-.16-.945-.16-.55 0-.945.16-.395.16-.655.43-.26.27-.41.63-.15.36-.23.76-.08.4-.1.82-.02.42-.02.81z" fill="#262626" stroke="none" transform="translate(270.3333 398.5)"/><path d="m-2.61 7.59h-2.38l2.36-3.47h.02zm.8 0v-4.68h-.68l-3.23 4.61v.82h3.11v1.66h.8v-1.66h.96v-.75zm2.69-1.08q0-.26.005-.575.005-.315.05-.63.045-.315.13-.615.085-.3.25-.525.165-.225.415-.365.25-.14.61-.14.36 0 .61.14.25.14.415.365.165.225.25.525.085.3.13.615.045.315.05.63.005.315.005.575 0 .4-.025.895-.025.495-.16.93-.135.435-.435.735-.3.3-.84.3-.54 0-.84-.3-.3-.3-.435-.735-.135-.435-.16-.93-.025-.495-.025-.895zm-.9.01q0 .39.02.81.02.42.1.82.08.4.23.755.15.355.41.625.26.27.655.425.395.155.945.155.56 0 .95-.155.39-.155.65-.425.26-.27.41-.625.15-.355.23-.755.08-.4.1-.82.02-.42.02-.81 0-.39-.02-.81-.02-.42-.1-.82-.08-.4-.23-.76-.15-.36-.41-.63-.26-.27-.655-.43-.395-.16-.945-.16-.55 0-.945.16-.395.16-.655.43-.26.27-.41.63-.15.36-.23.76-.08.4-.1.82-.02.42-.02.81z" fill="#262626" stroke="none" transform="translate(330.2778 398.5)"/><path d="m-1.3 3.78v-.75h-3.5l-.66 3.68.73.04q.25-.3.575-.485.325-.185.745-.185.36 0 .655.12.295.12.505.335.21.215.325.51.115.295.115.645 0 .42-.12.735-.12.315-.325.525-.205.21-.48.315-.275.105-.575.105-.32 0-.585-.095-.265-.095-.46-.27-.195-.175-.31-.41-.115-.235-.135-.505h-.85q.01.48.19.86.18.38.49.635.31.255.715.39.405.135.865.135.62 0 1.085-.195.465-.195.775-.525.31-.33.465-.755.155-.425.155-.875 0-.61-.18-1.065-.18-.455-.49-.76-.31-.305-.73-.455-.42-.15-.89-.15-.36 0-.725.125-.365.125-.595.385l-.02-.02.38-2.04zm2.18 2.73q0-.26.005-.575.005-.315.05-.63.045-.315.13-.615.085-.3.25-.525.165-.225.415-.365.25-.14.61-.14.36 0 .61.14.25.14.415.365.165.225.25.525.085.3.13.615.045.315.05.63.005.315.005.575 0 .4-.025.895-.025.495-.16.93-.135.435-.435.735-.3.3-.84.3-.54 0-.84-.3-.3-.3-.435-.735-.135-.435-.16-.93-.025-.495-.025-.895zm-.9.01q0 .39.02.81.02.42.1.82.08.4.23.755.15.355.41.625.26.27.655.425.395.155.945.155.56 0 .95-.155.39-.155.65-.425.26-.27.41-.625.15-.355.23-.755.08-.4.1-.82.02-.42.02-.81 0-.39-.02-.81-.02-.42-.1-.82-.08-.4-.23-.76-.15-.36-.41-.63-.26-.27-.655-.43-.395-.16-.945-.16-.55 0-.945.16-.395.16-.655.43-.26.27-.41.63-.15.36-.23.76-.08.4-.1.82-.02.42-.02.81z" fill="#262626" stroke="none" transform="translate(390.2222 398.5)"/><path d="m-1.86 4.72h.85q-.08-.88-.6-1.345-.52-.465-1.4-.465-.76 0-1.26.32-.5.32-.8.85-.3.53-.425 1.215-.125.685-.125 1.415 0 .56.085 1.16.085.6.345 1.1.26.5.74.82.48.32 1.27.32.67 0 1.125-.225.455-.225.73-.57.275-.345.395-.765.12-.42.12-.81 0-.49-.15-.91-.15-.42-.425-.73-.275-.31-.68-.485-.405-.175-.915-.175-.58 0-1.025.22-.445.22-.745.71l-.02-.02q.01-.41.08-.88.07-.47.255-.875.185-.405.515-.67.33-.265.87-.265.51 0 .82.29.31.29.37.77zm-1.28 1.47q.36 0 .63.13.27.13.45.345.18.215.265.51.085.295.085.625 0 .31-.095.595-.095.285-.275.505-.18.22-.445.345-.265.125-.615.125-.35 0-.625-.125-.275-.125-.46-.335-.185-.21-.285-.5-.1-.29-.1-.62 0-.33.095-.625.095-.295.285-.51.19-.215.46-.34.27-.125.63-.125zm4.02.32q0-.26.005-.575.005-.315.05-.63.045-.315.13-.615.085-.3.25-.525.165-.225.415-.365.25-.14.61-.14.36 0 .61.14.25.14.415.365.165.225.25.525.085.3.13.615.045.315.05.63.005.315.005.575 0 .4-.025.895-.025.495-.16.93-.135.435-.435.735-.3.3-.84.3-.54 0-.84-.3-.3-.3-.435-.735-.135-.435-.16-.93-.025-.495-.025-.895zm-.9.01q0 .39.02.81.02.42.1.82.08.4.23.755.15.355.41.625.26.27.655.425.395.155.945.155.56 0 .95-.155.39-.155.65-.425.26-.27.41-.625.15-.355.23-.755.08-.4.1-.82.02-.42.02-.81 0-.39-.02-.81-.02-.42-.1-.82-.08-.4-.23-.76-.15-.36-.41-.63-.26-.27-.655-.43-.395-.16-.945-.16-.55 0-.945.16-.395.16-.655.43-.26.27-.41.63-.15.36-.23.76-.08.4-.1.82-.02.42-.02.81z" fill="#262626" stroke="none" transform="translate(450.1667 398.5)"/><path d="m-.91 3.76v-.73h-4.59v.8h3.72q-.56.59-1.045 1.29-.485.7-.855 1.485-.37.785-.605 1.64-.235.855-.295 1.755h.95q.05-.83.28-1.71.23-.88.595-1.71.365-.83.835-1.56.47-.73 1.01-1.26zm1.79 2.75q0-.26.005-.575.005-.315.05-.63.045-.315.13-.615.085-.3.25-.525.165-.225.415-.365.25-.14.61-.14.36 0 .61.14.25.14.415.365.165.225.25.525.085.3.13.615.045.315.05.63.005.315.005.575 0 .4-.025.895-.025.495-.16.93-.135.435-.435.735-.3.3-.84.3-.54 0-.84-.3-.3-.3-.435-.735-.135-.435-.16-.93-.025-.495-.025-.895zm-.9.01q0 .39.02.81.02.42.1.82.08.4.23.755.15.355.41.625.26.27.655.425.395.155.945.155.56 0 .95-.155.39-.155.65-.425.26-.27.41-.625.15-.355.23-.755.08-.4.1-.82.02-.42.02-.81 0-.39-.02-.81-.02-.42-.1-.82-.08-.4-.23-.76-.15-.36-.41-.63-.26-.27-.655-.43-.395-.16-.945-.16-.55 0-.945.16-.395.16-.655.43-.26.27-.41.63-.15.36-.23.76-.08.4-.1.82-.02.42-.02.81z" fill="#262626" stroke="none" transform="translate(510.1111 398.5)"/><path d="m-4.45 4.75q0-.27.1-.47.1-.2.265-.34.165-.14.395-.21.23-.07.48-.07.52 0 .855.275.335.275.335.815 0 .54-.33.84-.33.3-.84.3-.26 0-.49-.07-.23-.07-.4-.21-.17-.14-.27-.355-.1-.215-.1-.505zm-.9-.03q0 .48.27.885.27.405.72.585-.6.21-.92.675-.32.465-.32 1.095 0 .54.185.945.185.405.51.675.325.27.765.4.44.13.95.13.49 0 .92-.14.43-.14.745-.415.315-.275.5-.675.185-.4.185-.92 0-.66-.31-1.115-.31-.455-.95-.655.45-.2.715-.595.265-.395.265-.875 0-.34-.12-.665-.12-.325-.375-.58-.255-.255-.665-.41-.41-.155-.99-.155-.41 0-.785.12-.375.12-.665.35-.29.23-.46.565-.17.335-.17.775zm.65 3.28q0-.31.115-.56.115-.25.32-.43.205-.18.48-.275.275-.095.585-.095.3 0 .565.105.265.105.465.285.2.18.315.425.115.245.115.535 0 .3-.105.55-.105.25-.3.435-.195.185-.46.29-.265.105-.585.105-.66 0-1.085-.365-.425-.365-.425-1.005zm5.58-1.49q0-.26.005-.575.005-.315.05-.63.045-.315.13-.615.085-.3.25-.525.165-.225.415-.365.25-.14.61-.14.36 0 .61.14.25.14.415.365.165.225.25.525.085.3.13.615.045.315.05.63.005.315.005.575 0 .4-.025.895-.025.495-.16.93-.135.435-.435.735-.3.3-.84.3-.54 0-.84-.3-.3-.3-.435-.735-.135-.435-.16-.93-.025-.495-.025-.895zm-.9.01q0 .39.02.81.02.42.1.82.08.4.23.755.15.355.41.625.26.27.655.425.395.155.945.155.56 0 .95-.155.39-.155.65-.425.26-.27.41-.625.15-.355.23-.755.08-.4.1-.82.02-.42.02-.81 0-.39-.02-.81-.02-.42-.1-.82-.08-.4-.23-.76-.15-.36-.41-.63-.26-.27-.655-.43-.395-.16-.945-.16-.55 0-.945.16-.395.16-.655.43-.26.27-.41.63-.15.36-.23.76-.08.4-.1.82-.02.42-.02.81z" fill="#262626" stroke="none" transform="translate(570.0555 398.5)"/><path d="m-4.66 8.29h-.85q.08.92.67 1.37.59.45 1.48.45 1.29 0 1.875-.985.585-.985.585-2.825 0-1.01-.195-1.665-.195-.655-.525-1.035-.33-.38-.77-.535-.44-.155-.94-.155-.51 0-.94.17-.43.17-.74.475-.31.305-.48.73-.17.425-.17.935 0 .52.145.96.145.44.43.75.285.31.705.485.42.175.96.175.52 0 .96-.265.44-.265.68-.715l.02.02q-.04 1.39-.43 2.065-.39.675-1.17.675-.51 0-.88-.28-.37-.28-.42-.8zm2.75-3.01q0 .31-.1.595-.1.285-.29.5-.19.215-.46.34-.27.125-.6.125-.31 0-.565-.125-.255-.125-.44-.335-.185-.21-.29-.48-.105-.27-.105-.56 0-.33.075-.63.075-.3.24-.535.165-.235.43-.375.265-.14.645-.14.36 0 .63.13.27.13.455.355.185.225.28.515.095.29.095.62zm2.79 1.23q0-.26.005-.575.005-.315.05-.63.045-.315.13-.615.085-.3.25-.525.165-.225.415-.365.25-.14.61-.14.36 0 .61.14.25.14.415.365.165.225.25.525.085.3.13.615.045.315.05.63.005.315.005.575 0 .4-.025.895-.025.495-.16.93-.135.435-.435.735-.3.3-.84.3-.54 0-.84-.3-.3-.3-.435-.735-.135-.435-.16-.93-.025-.495-.025-.895zm-.9.01q0 .39.02.81.02.42.1.82.08.4.23.755.15.355.41.625.26.27.655.425.395.155.945.155.56 0 .95-.155.39-.155.65-.425.26-.27.41-.625.15-.355.23-.755.08-.4.1-.82.02-.42.02-.81 0-.39-.02-.81-.02-.42-.1-.82-.08-.4-.23-.76-.15-.36-.41-.63-.26-.27-.655-.43-.395-.16-.945-.16-.55 0-.945.16-.395.16-.655.43-.26.27-.41.63-.15.36-.23.76-.08.4-.1.82-.02.42-.02.81z" fill="#262626" stroke="none" transform="translate(630 398.5)"/><path d="m-45.384 2.688v3.792h1.728v5.1c-.312.072-.648.156-.984.228v-4.128h-.768v4.296c-.216.048-.444.084-.66.132l.24.84c1.74-.372 3.264-.768 4.56-1.188v-.852c-.504.156-1.032.312-1.584.468v-2.208h1.332v-.816h-1.332v-1.872h1.188v-3.792zm2.88 2.988h-2.04v-2.184h2.04zm6.72 3.912v-4.08h-4.08v-2.04h4.5v-.828h-5.328v10.104h5.508v-.828h-4.68v-2.328zm-4.08-3.288h3.264v2.484h-3.264zm14.364.768h-5.988v-2.604h-.828v3.324h2.952c-.096.288-.18.576-.276.84h-3.408v4.56h.828v-3.78h2.28c-.288.672-.576 1.248-.888 1.728-.06.072-.18.12-.372.144l.204.78c2.004-.228 3.468-.432 4.392-.6.096.204.204.42.312.66l.696-.348c-.42-.84-.876-1.632-1.356-2.364h2.196v2.616c0 .252-.156.384-.456.384l-.948-.036.216.816h1.008c.672 0 1.008-.336 1.008-.984v-3.576h-4.884c.096-.264.192-.54.288-.84h3.852v-3.324h-.828zm-1.716 2.34-.444.216c.228.36.456.744.696 1.164-.96.168-1.968.3-3.024.408.288-.504.588-1.092.876-1.788zm-3.216-5.184-.372.552c.612.216 1.224.48 1.836.768-.6.312-1.26.564-2.004.78l.384.624c.96-.336 1.74-.684 2.364-1.032.588.3 1.176.648 1.764 1.032l.396-.6c-.48-.3-.972-.588-1.488-.852.408-.288.828-.624 1.248-1.008l-.612-.372c-.408.384-.852.72-1.344 1.032-.696-.336-1.416-.648-2.172-.924zm2.1-2.112-.888.144c.144.264.288.54.42.852h-4.848v.804h10.296v-.804h-4.584c-.12-.372-.252-.708-.396-.996zm10.104 9.888v-8.508h-.78q-.084.48-.312.792-.228.312-.558.492-.33.18-.738.246-.408.066-.84.066v.816h2.208v6.096zm6.156-5.592h5.124v2.16h-5.124zm5.124-.804h-5.124v-2.1h5.124zm-5.172 3.768h5.172v2.388c0 .348-.144.528-.42.528-.456 0-.96-.024-1.512-.048l.24.852h1.548c.672 0 1.02-.348 1.02-1.032v-9.384h-6.876v5.856c-.024 1.656-.42 3.024-1.212 4.104l.66.6c.78-1.02 1.236-2.304 1.38-3.864zm12.564 2.628v-8.508h-.78q-.084.48-.312.792-.228.312-.558.492-.33.18-.738.246-.408.066-.84.066v.816h2.208v6.096zm3.984-4.188q0-.312.006-.69.006-.378.06-.756.054-.378.156-.738.102-.36.3-.63.198-.27.498-.438.3-.168.732-.168.432 0 .732.168.3.168.498.438.198.27.3.63.102.36.156.738.054.378.06.756.006.378.006.69 0 .48-.03 1.074-.03.594-.192 1.116-.162.522-.522.882-.36.36-1.008.36-.648 0-1.008-.36-.36-.36-.522-.882-.162-.522-.192-1.116-.03-.594-.03-1.074zm-1.08.012q0 .468.024.972.024.504.12.984.096.48.276.906.18.426.492.75.312.324.786.51.474.186 1.134.186.672 0 1.14-.186.468-.186.78-.51.312-.324.492-.75.18-.426.276-.906.096-.48.12-.984.024-.504.024-.972 0-.468-.024-.972-.024-.504-.12-.984-.096-.48-.276-.912-.18-.432-.492-.756-.312-.324-.786-.516-.474-.192-1.134-.192-.66 0-1.134.192-.474.192-.786.516-.312.324-.492.756-.18.432-.276.912-.096.48-.12.984-.024.504-.024.972zm15.996-5.148h-7.416v10.476h.864v-.924h5.676v.912h.876zm-6.552 8.712v-3.612h5.676v3.612zm0-4.452v-3.42h5.676v3.42zm9.672-.492v.828h4.176c-.204.792-.456 1.452-.768 1.98-.756 1.272-2.028 2.364-3.816 3.276l.54.708c1.92-1.02 3.276-2.244 4.092-3.66.312-.552.564-1.248.768-2.064.852 2.472 2.508 4.38 4.98 5.724l.54-.696c-2.352-1.224-3.948-2.988-4.788-5.268h4.416v-.828h-4.92c.144-.816.24-1.728.312-2.76h4.26v-.84h-9.48v.84h4.344c-.06 1.02-.156 1.944-.3 2.76zm18.948-1.584h1.776c-.048 1.62-.3 3.036-.768 4.248-.48-1.008-.864-2.22-1.164-3.624zm.612 5.112c-.552 1.02-1.284 1.848-2.22 2.496l.444.72c.9-.648 1.644-1.452 2.22-2.412.6 1.008 1.32 1.824 2.16 2.424l.468-.708c-.864-.588-1.596-1.416-2.22-2.496.672-1.416 1.044-3.132 1.104-5.136h.78v-.828h-3.168c.096-.528.192-1.104.264-1.716l-.84-.144c-.24 2.28-.72 4.092-1.428 5.436l.54.66c.252-.432.492-.924.708-1.476.324 1.2.72 2.256 1.188 3.18zm-5.688-2.196c-.084.24-.18.492-.288.756h-1.752v.756h1.416c-.24.48-.516.972-.828 1.5.588.216 1.14.444 1.668.672-.696.396-1.548.72-2.532.984l.408.72c1.2-.336 2.196-.78 2.988-1.332.708.312 1.32.636 1.848.948l.468-.672c-.528-.288-1.08-.552-1.656-.816.624-.576 1.068-1.26 1.332-2.052v-.708h-2.508c.072-.216.156-.432.24-.66zm.948 3.18c-.432-.18-.888-.348-1.368-.516.24-.36.456-.744.648-1.152h2.064c-.288.624-.744 1.188-1.344 1.668zm-2.04-8.532-.684.228c.288.456.552.972.804 1.56l.624-.288c-.216-.528-.456-1.032-.744-1.5zm3.648-.036c-.216.504-.528 1.008-.912 1.524l.612.312c.384-.504.684-1.02.924-1.548zm-4.572 2.112v.756h1.704c-.36.66-1.008 1.26-1.932 1.8l.42.696c1.032-.696 1.752-1.512 2.148-2.46v2.28h.804v-1.56c.432.288.948.672 1.548 1.152l.444-.672c-.672-.408-1.344-.78-1.992-1.104v-.132h2.184v-.756h-2.184v-2.292h-.804v2.292z" fill="#262626" stroke="none" transform="translate(360.2502 412)"/><g fill="none" stroke="#262626" stroke-linejoin="round" stroke-width=".5"><path d="m90.5 394.5v-361.5"/><path d="m630 394.5v-361.5"/><path d="m90.5 394.5h5.395"/><path d="m90.5 354.3333h5.395"/><path d="m90.5 314.1667h5.395"/><path d="m90.5 274h5.395"/><path d="m90.5 233.8333h5.395"/><path d="m90.5 193.6667h5.395"/><path d="m90.5 153.5h5.395"/><path d="m90.5 113.3333h5.395"/><path d="m90.5 73.1667h5.395"/><path d="m90.5 33h5.395"/><path d="m630 394.5h-5.395"/><path d="m630 354.3333h-5.395"/><path d="m630 314.1667h-5.395"/><path d="m630 274h-5.395"/><path d="m630 233.8333h-5.395"/><path d="m630 193.6667h-5.395"/><path d="m630 153.5h-5.395"/><path d="m630 113.3333h-5.395"/><path d="m630 73.1667h-5.395"/><path d="m630 33h-5.395"/></g><path d="m-4.68.01q0-.26.005-.575.005-.315.05-.63.045-.315.13-.615.085-.3.25-.525.165-.225.415-.365.25-.14.61-.14.36 0 .61.14.25.14.415.365.165.225.25.525.085.3.13.615.045.315.05.63.005.315.005.575 0 .4-.025.895-.025.495-.16.93-.135.435-.435.735-.3.3-.84.3-.54 0-.84-.3-.3-.3-.435-.735-.135-.435-.16-.93-.025-.495-.025-.895zm-.9.01q0 .39.02.81.02.42.1.82.08.4.23.755.15.355.41.625.26.27.655.425.395.155.945.155.56 0 .95-.155.39-.155.65-.425.26-.27.41-.625.15-.355.23-.755.08-.4.1-.82.02-.42.02-.81 0-.39-.02-.81-.02-.42-.1-.82-.08-.4-.23-.76-.15-.36-.41-.63-.26-.27-.655-.43-.395-.16-.945-.16-.55 0-.945.16-.395.16-.655.43-.26.27-.41.63-.15.36-.23.76-.08.4-.1.82-.02.42-.02.81z" fill="#262626" stroke="none" transform="translate(86.5 394.5)"/><path d="m-2.44 3.5v-7.09h-.65q-.07.4-.26.66-.19.26-.465.41-.275.15-.615.205-.34.055-.7.055v.68h1.84v5.08z" fill="#262626" stroke="none" transform="translate(86.5 354.3333)"/><path d="m-5.56-1.08h.85q-.01-.32.065-.635.075-.315.245-.565.17-.25.435-.405.265-.155.635-.155.28 0 .53.09.25.09.435.26.185.17.295.405.11.235.11.525 0 .37-.115.65-.115.28-.34.52-.225.24-.565.475-.34.235-.79.515-.37.22-.71.47-.34.25-.61.58-.27.33-.445.775-.175.445-.225 1.075h4.63v-.75h-3.64q.06-.33.255-.585.195-.255.47-.475.275-.22.605-.415.33-.195.66-.395.33-.21.64-.44.31-.23.55-.515.24-.285.385-.645.145-.36.145-.83 0-.5-.175-.88-.175-.38-.475-.635-.3-.255-.705-.39-.405-.135-.865-.135-.56 0-1 .19-.44.19-.735.525-.295.335-.435.795-.14.46-.11 1z" fill="#262626" stroke="none" transform="translate(86.5 314.1667)"/><path d="m-3.82-.55v.72q.24-.03.51-.03.32 0 .595.085.275.085.475.26.2.175.32.43.12.255.12.585 0 .32-.125.575-.125.255-.335.43-.21.175-.49.27-.28.095-.59.095-.73 0-1.11-.435-.38-.435-.4-1.125h-.85q-.01.55.155.98.165.43.475.725.31.295.75.445.44.15.98.15.5 0 .945-.135.445-.135.775-.405.33-.27.525-.675.195-.405.195-.935 0-.64-.315-1.11-.315-.47-.965-.61v-.02q.42-.19.7-.56.28-.37.28-.85 0-.49-.165-.85-.165-.36-.455-.59-.29-.23-.685-.345-.395-.115-.855-.115-.53 0-.935.17-.405.17-.675.47-.27.3-.415.72-.145.42-.165.93h.85q0-.31.08-.59.08-.28.245-.49.165-.21.42-.335.255-.125.595-.125.54 0 .9.285.36.285.36.855 0 .28-.11.5-.11.22-.295.365-.185.145-.43.22-.245.075-.515.075h-.18q-.05 0-.1 0-.04 0-.09-.01z" fill="#262626" stroke="none" transform="translate(86.5 274)"/><path d="m-2.61 1.09h-2.38l2.36-3.47h.02zm.8 0v-4.68h-.68l-3.23 4.61v.82h3.11v1.66h.8v-1.66h.96v-.75z" fill="#262626" stroke="none" transform="translate(86.5 233.8333)"/><path d="m-1.3-2.72v-.75h-3.5l-.66 3.68.73.04q.25-.3.575-.485.325-.185.745-.185.36 0 .655.12.295.12.505.335.21.215.325.51.115.295.115.645 0 .42-.12.735-.12.315-.325.525-.205.21-.48.315-.275.105-.575.105-.32 0-.585-.095-.265-.095-.46-.27-.195-.175-.31-.41-.115-.235-.135-.505h-.85q.01.48.19.86.18.38.49.635.31.255.715.39.405.135.865.135.62 0 1.085-.195.465-.195.775-.525.31-.33.465-.755.155-.425.155-.875 0-.61-.18-1.065-.18-.455-.49-.76-.31-.305-.73-.455-.42-.15-.89-.15-.36 0-.725.125-.365.125-.595.385l-.02-.02.38-2.04z" fill="#262626" stroke="none" transform="translate(86.5 193.6667)"/><path d="m-1.86-1.78h.85q-.08-.88-.6-1.345-.52-.465-1.4-.465-.76 0-1.26.32-.5.32-.8.85-.3.53-.425 1.215-.125.685-.125 1.415 0 .56.085 1.16.085.6.345 1.1.26.5.74.82.48.32 1.27.32.67 0 1.125-.225.455-.225.73-.57.275-.345.395-.765.12-.42.12-.81 0-.49-.15-.91-.15-.42-.425-.73-.275-.31-.68-.485-.405-.175-.915-.175-.58 0-1.025.22-.445.22-.745.71l-.02-.02q.01-.41.08-.88.07-.47.255-.875.185-.405.515-.67.33-.265.87-.265.51 0 .82.29.31.29.37.77zm-1.28 1.47q.36 0 .63.13.27.13.45.345.18.215.265.51.085.295.085.625 0 .31-.095.595-.095.285-.275.505-.18.22-.445.345-.265.125-.615.125-.35 0-.625-.125-.275-.125-.46-.335-.185-.21-.285-.5-.1-.29-.1-.62 0-.33.095-.625.095-.295.285-.51.19-.215.46-.34.27-.125.63-.125z" fill="#262626" stroke="none" transform="translate(86.5 153.5)"/><path d="m-.91-2.74v-.73h-4.59v.8h3.72q-.56.59-1.045 1.29-.485.7-.855 1.485-.37.785-.605 1.64-.235.855-.295 1.755h.95q.05-.83.28-1.71.23-.88.595-1.71.365-.83.835-1.56.47-.73 1.01-1.26z" fill="#262626" stroke="none" transform="translate(86.5 113.3333)"/><path d="m-4.45-1.75q0-.27.1-.47.1-.2.265-.34.165-.14.395-.21.23-.07.48-.07.52 0 .855.275.335.275.335.815 0 .54-.33.84-.33.3-.84.3-.26 0-.49-.07-.23-.07-.4-.21-.17-.14-.27-.355-.1-.215-.1-.505zm-.9-.03q0 .48.27.885.27.405.72.585-.6.21-.92.675-.32.465-.32 1.095 0 .54.185.945.185.405.51.675.325.27.765.4.44.13.95.13.49 0 .92-.14.43-.14.745-.415.315-.275.5-.675.185-.4.185-.92 0-.66-.31-1.115-.31-.455-.95-.655.45-.2.715-.595.265-.395.265-.875 0-.34-.12-.665-.12-.325-.375-.58-.255-.255-.665-.41-.41-.155-.99-.155-.41 0-.785.12-.375.12-.665.35-.29.23-.46.565-.17.335-.17.775zm.65 3.28q0-.31.115-.56.115-.25.32-.43.205-.18.48-.275.275-.095.585-.095.3 0 .565.105.265.105.465.285.2.18.315.425.115.245.115.535 0 .3-.105.55-.105.25-.3.435-.195.185-.46.29-.265.105-.585.105-.66 0-1.085-.365-.425-.365-.425-1.005z" fill="#262626" stroke="none" transform="translate(86.5 73.1667)"/><path d="m-4.66 1.79h-.85q.08.92.67 1.37.59.45 1.48.45 1.29 0 1.875-.985.585-.985.585-2.825 0-1.01-.195-1.665-.195-.655-.525-1.035-.33-.38-.77-.535-.44-.155-.94-.155-.51 0-.94.17-.43.17-.74.475-.31.305-.48.73-.17.425-.17.935 0 .52.145.96.145.44.43.75.285.31.705.485.42.175.96.175.52 0 .96-.265.44-.265.68-.715l.02.02q-.04 1.39-.43 2.065-.39.675-1.17.675-.51 0-.88-.28-.37-.28-.42-.8zm2.75-3.01q0 .31-.1.595-.1.285-.29.5-.19.215-.46.34-.27.125-.6.125-.31 0-.565-.125-.255-.125-.44-.335-.185-.21-.29-.48-.105-.27-.105-.56 0-.33.075-.63.075-.3.24-.535.165-.235.43-.375.265-.14.645-.14.36 0 .63.13.27.13.455.355.185.225.28.515.095.29.095.62z" fill="#262626" stroke="none" transform="translate(86.5 33)"/><path d="m-5.568-12.78h-.876c0 .456-.012 1.092-.024 1.908-.108 3.456-1.812 6.204-5.112 8.232l.528.768c2.664-1.716 4.368-3.876 5.088-6.492.852 2.712 2.508 4.872 4.956 6.48l.564-.756c-2.796-1.716-4.536-4.212-5.208-7.476.048-.744.084-1.632.084-2.664zm13.464 2.64h1.776c-.048 1.62-.3 3.036-.768 4.248-.48-1.008-.864-2.22-1.164-3.624zm.612 5.112c-.552 1.02-1.284 1.848-2.22 2.496l.444.72c.9-.648 1.644-1.452 2.22-2.412.6 1.008 1.32 1.824 2.16 2.424l.468-.708c-.864-.588-1.596-1.416-2.22-2.496.672-1.416 1.044-3.132 1.104-5.136h.78v-.828h-3.168c.096-.528.192-1.104.264-1.716l-.84-.144c-.24 2.28-.72 4.092-1.428 5.436l.54.66c.252-.432.492-.924.708-1.476.324 1.2.72 2.256 1.188 3.18zm-5.688-2.196c-.084.24-.18.492-.288.756h-1.752v.756h1.416c-.24.48-.516.972-.828 1.5.588.216 1.14.444 1.668.672-.696.396-1.548.72-2.532.984l.408.72c1.2-.336 2.196-.78 2.988-1.332.708.312 1.32.636 1.848.948l.468-.672c-.528-.288-1.08-.552-1.656-.816.624-.576 1.068-1.26 1.332-2.052v-.708h-2.508c.072-.216.156-.432.24-.66zm.948 3.18c-.432-.18-.888-.348-1.368-.516.24-.36.456-.744.648-1.152h2.064c-.288.624-.744 1.188-1.344 1.668zm-2.04-8.532-.684.228c.288.456.552.972.804 1.56l.624-.288c-.216-.528-.456-1.032-.744-1.5zm3.648-.036c-.216.504-.528 1.008-.912 1.524l.612.312c.384-.504.684-1.02.924-1.548zm-4.572 2.112v.756h1.704c-.36.66-1.008 1.26-1.932 1.8l.42.696c1.032-.696 1.752-1.512 2.148-2.46v2.28h.804v-1.56c.432.288.948.672 1.548 1.152l.444-.672c-.672-.408-1.344-.78-1.992-1.104v-.132h2.184v-.756h-2.184v-2.292h-.804v2.292z" fill="#262626" stroke="none" transform="matrix(0 -1 1 0 77.5 213.7498)"/><path d="m1.4688-.2812q0-.0782.0468-.1563l2.0782-2.0625-2.0782-2.0781q-.0468-.0469-.0468-.1407 0-.0624.0624-.125.0626-.0624.1407-.0624.0625 0 .1562.0624l2.0625 2.0626 2.0625-2.0626q.0781-.0624.1407-.0624.0937 0 .1484.0546.0547.0547.0547.1328 0 .0938-.0469.1407l-2.0781 2.0781 2.0781 2.0625q.0469.0781.0469.1563 0 .0781-.0547.1328-.0547.0546-.1484.0546-.0626 0-.1407-.0624l-2.0625-2.0626-2.0625 2.0626q-.0781.0624-.1562.0624-.0781 0-.1407-.0624-.0624-.0626-.0624-.125z" fill="#262626" stroke="none" transform="translate(91 30)"/><path d="m3.56 0v-7.09h-.65q-.07.4-.26.66-.19.26-.465.41-.275.15-.615.205-.34.055-.7.055v.68h1.84v5.08zm3.32-3.49q0-.26.005-.575.005-.315.05-.63.045-.315.13-.615.085-.3.25-.525.165-.225.415-.365.25-.14.61-.14.36 0 .61.14.25.14.415.365.165.225.25.525.085.3.13.615.045.315.05.63.005.315.005.575 0 .4-.025.895-.025.495-.16.93-.135.435-.435.735-.3.3-.84.3-.54 0-.84-.3-.3-.3-.435-.735-.135-.435-.16-.93-.025-.495-.025-.895zm-.9.01q0 .39.02.81.02.42.1.82.08.4.23.755.15.355.41.625.26.27.655.425.395.155.945.155.56 0 .95-.155.39-.155.65-.425.26-.27.41-.625.15-.355.23-.755.08-.4.1-.82.02-.42.02-.81 0-.39-.02-.81-.02-.42-.1-.82-.08-.4-.23-.76-.15-.36-.41-.63-.26-.27-.655-.43-.395-.16-.945-.16-.55 0-.945.16-.395.16-.655.43-.26.27-.41.63-.15.36-.23.76-.08.4-.1.82-.02.42-.02.81z" fill="#262626" stroke="none" transform="translate(99 30)"/><path d="m2.712-1.928h-1.904l1.888-2.776h.016zm.64 0v-3.744h-.544l-2.584 3.688v.656h2.488v1.328h.64v-1.328h.768v-.6z" fill="#262626" stroke="none" transform="translate(111 25)"/><path d="m-190.864-17.216v2.736h-5.664v7.808h1.68v-.88h3.984v5.344h1.728v-5.344h4v.88h1.68v-7.808h-5.68v-2.736zm-3.984 8.032v-3.664h3.984v3.664zm5.712 0v-3.664h4v3.664zm11.168-4.848v1.504h3.12v1.824h-2.608v1.472h2.608v2.096h-3.552v1.504h8.816v-1.504h-1.504l.784-.352c-.256-.592-.576-1.136-.928-1.632l-1.328.432c.32.448.608.96.864 1.552h-1.456v-2.096h2.608v-1.472h-2.608v-1.824h3.104v-1.504zm10.752-2.544h-13.568v14.224h1.696v-.592h10.176v.592h1.696zm-11.872 12.064v-10.496h10.176v10.496zm27.36-12.528c-1.568.608-3.328.928-5.312.96v6.944c-.064 2.352-.56 4.192-1.456 5.52l1.2 1.264c1.168-1.696 1.792-3.952 1.872-6.784v-1.52h1.728v8.336h1.648v-8.336h1.472v-1.584h-4.848v-2.48c1.648-.096 3.152-.368 4.512-.816zm-13.36 1.12v1.536h7.344v-1.536h-2.912c-.192-.512-.368-.976-.56-1.392l-1.728.288c.224.336.432.704.624 1.104zm-.16 3.632v1.52h3.04v1.296h-2.784v1.52h2.784v3.792c0 .304-.192.464-.544.464-.192 0-.416-.048-.656-.112l.368 1.536h.832c1.104 0 1.664-.496 1.664-1.488v-4.192h2.624v-1.52h-2.624v-1.296h2.896v-1.52h-1.552c.208-.464.4-.96.592-1.504l-1.488-.528c-.176.704-.384 1.376-.624 2.032h-1.408c-.224-.784-.448-1.456-.688-2.032l-1.472.56c.256.448.48.944.672 1.472zm1.152 4.96c-.272 1.296-.752 2.528-1.44 3.68l1.392.88c.672-1.2 1.184-2.608 1.552-4.24zm5.184-.096-1.376.368c.352.944.656 1.92.896 2.912l1.408-.544c-.224-.832-.544-1.744-.928-2.736zm10.992-5.84v1.536h5.408v-1.536zm-.752 3.008v1.584h1.632c-.096 1.344-.272 2.336-.56 2.992-.352.8-.944 1.488-1.776 2.064l1.04 1.344c1.024-.768 1.744-1.648 2.192-2.656.336-.832.56-2.08.672-3.744h.912v4.272c0 1.168.528 1.76 1.6 1.76h5.664c.736 0 1.28-.144 1.632-.416.384-.272.64-1.168.8-2.704l-1.488-.464c-.064.976-.208 1.568-.432 1.776-.16.192-.432.288-.816.288h-4.848c-.352 0-.528-.192-.528-.56v-3.952h.976v-1.584zm6.816-2.336v1.568h3.392v4c0 .48-.176.72-.528.72-.496 0-1.024-.048-1.584-.112l.352 1.536h1.808c1.04 0 1.568-.592 1.568-1.744v-4.4h1.488v-1.568h-1.488v-.912h1.616v-3.104h-13.536v3.104h1.632v-1.568h10.272v1.024h-1.6v1.456zm1.376 2.064-1.264.576c.496.768.96 1.648 1.376 2.64l1.264-.656c-.4-.928-.864-1.792-1.376-2.56zm12 1.744v1.424h1.008c.432.928 1.136 1.776 2.096 2.512-1.152.48-2.56.864-4.192 1.152l.816 1.456c1.92-.416 3.552-.96 4.896-1.632 1.184.64 2.672 1.2 4.448 1.648l.912-1.392c-1.472-.336-2.736-.736-3.824-1.2 1.04-.752 1.792-1.632 2.24-2.624v-1.344zm2.592 1.424h4.064c-.48.656-1.168 1.248-2.032 1.76-.864-.512-1.552-1.104-2.032-1.76zm-4.976-2.928c-.768.608-1.616 1.152-2.528 1.648l.48 1.616c.672-.448 1.296-.912 1.904-1.408-.272 2.016-.896 3.68-1.856 4.96l1.28 1.136c1.52-2.064 2.32-4.816 2.4-8.256v-3.888h10.112v-1.568h-4.896c-.16-.464-.32-.88-.48-1.248l-1.696.288c.176.288.336.608.496.96h-5.2v4.208c-.352-1.008-.752-1.968-1.2-2.88l-1.408.592c.464.88.896 1.904 1.28 3.088l1.328-.576v1.024c0 .096-.016.192-.016.304zm3.904-3.44v1.6c0 .832-.608 1.488-1.808 1.936l1.088 1.216c1.52-.784 2.288-1.888 2.288-3.312v-.032h2.608v1.28c0 1.056.544 1.6 1.632 1.6h2.064v-1.424h-1.632c-.336 0-.496-.176-.496-.512v-2.352zm17.232 6.896h4.592v.752h-4.592zm4.592-1.248h-4.592v-.8h4.592zm-4.592 3.248h4.592v.496c0 .336-.176.512-.512.512l-1.12-.08.416 1.472h1.184c1.072 0 1.616-.528 1.616-1.552v-6.24h-7.744v7.856h1.568zm1.488-12.304v.896h-3.568v1.344h3.568v.704h-3.024v1.312h3.024v.672h-3.888c-.24-.8-.496-1.536-.768-2.192l-.976.32v-3.008h-1.632v14.688h1.632v-11.152c.272.752.512 1.552.72 2.384l.848-.208v.544h9.712v-1.376h-3.984v-.672h2.976v-1.312h-2.976v-.704h3.52v-1.344h-3.52v-.896zm-8.816 3.152c-.032 1.504-.208 2.928-.512 4.288l1.248.352c.304-1.44.48-2.944.512-4.544zm16.608 2.064h3.888c-1.088 3.28-2.704 5.872-4.864 7.792l.88 1.552c1.712-1.392 3.136-3.248 4.272-5.552.512.88 1.248 1.712 2.224 2.512-1.088.656-2.416 1.264-3.968 1.824l.88 1.568c1.792-.704 3.312-1.488 4.56-2.352 1.296.816 2.896 1.568 4.8 2.272l.864-1.584c-1.648-.544-3.072-1.136-4.272-1.792 1.136-1.056 1.904-2.208 2.288-3.456v-1.408h-6.336c.144-.448.288-.896.448-1.376h7.696v-1.584h-7.28c.272-1.088.496-2.24.688-3.472l-1.712-.208c-.176 1.28-.416 2.512-.704 3.68h-2.208l.8-2.896-1.664-.272zm5.392 2.88h4.464c-.432.864-1.12 1.696-2.064 2.464-1.072-.768-1.872-1.584-2.4-2.464zm4.064-8.16-1.136 1.088c1.184.896 2.08 1.76 2.704 2.576l1.184-1.2c-.736-.832-1.664-1.648-2.752-2.464zm9.008 5.984v1.472h2.144v1.216h-2.656c.096-.88.144-1.792.144-2.752v-1.088h2.512v1.152zm-.72 4.192h1.792v2.16c0 .544-.272.928-.784 1.12l.448 1.456c1.824-.32 3.408-.704 4.736-1.152l-.32-1.52c-.704.288-1.52.544-2.448.8v-2.864h1.904c1.232 2.464 3.28 4.064 6.128 4.816l.784-1.584c-.976-.192-1.856-.496-2.624-.912.528-.368 1.008-.832 1.456-1.392l-.928-.928h1.6v-1.504h-2.912v-1.216h2.352v-1.472h-2.352v-1.152h2.208v-4.272h-12.384v5.36c-.016 3.152-.512 5.728-1.488 7.728l1.36 1.216c.672-1.408 1.168-2.96 1.472-4.688zm7.008 0h2.768c-.48.608-.976 1.072-1.504 1.408-.48-.4-.896-.864-1.264-1.408zm.192-5.344v1.152h-2.72v-1.152zm-2.72 3.84v-1.216h2.72v1.216zm4.88-6.592v1.28h-9.008v-1.28zm6.096 2.96q0-.384.136-.672.136-.288.376-.48.24-.192.552-.296.312-.104.648-.104.528 0 .856.16.328.16.512.4.184.24.248.504.064.264.064.488 0 .72-.48 1.096-.48.376-1.2.376-.688 0-1.2-.376-.512-.376-.512-1.096zm-2.064-.208q0 .832.416 1.456.416.624 1.232.848v.032q-1.008.24-1.56.96-.552.72-.552 1.792 0 .912.36 1.568.36.656.96 1.088.6.432 1.36.632.76.2 1.576.2.784 0 1.536-.216.752-.216 1.344-.648.592-.432.952-1.088.36-.656.36-1.552 0-1.056-.544-1.784-.544-.728-1.552-.952v-.032q.816-.272 1.224-.896.408-.624.408-1.456 0-.416-.192-.936-.192-.52-.632-.976-.44-.456-1.16-.776-.72-.32-1.76-.32-.688 0-1.36.192-.672.192-1.208.576-.536.384-.872.96-.336.576-.336 1.328zm1.808 4.976q0-.864.576-1.32.576-.456 1.408-.456.4 0 .744.128.344.128.608.368.264.24.416.568.152.328.152.728 0 .416-.144.768-.144.352-.408.6-.264.248-.608.384-.344.136-.76.136-.4 0-.768-.136-.368-.136-.632-.384-.264-.248-.424-.6-.16-.352-.16-.784zm14.4-5.936v-1.872h-6.256l-1.104 6.192h2.048q.336-.464.72-.68.384-.216.992-.216.464 0 .816.16.352.16.608.448.256.288.384.672.128.384.128.816 0 .416-.136.808-.136.392-.384.688-.248.296-.608.48-.36.184-.808.184-.768 0-1.264-.456-.496-.456-.576-1.224h-2.272q.016.88.36 1.544.344.664.92 1.112.576.448 1.32.664.744.216 1.56.216.848.016 1.6-.28.752-.296 1.32-.84.568-.544.904-1.288.336-.744.336-1.608 0-.784-.232-1.48-.232-.696-.672-1.208-.44-.512-1.08-.816-.64-.304-1.472-.304-.672 0-1.2.2-.528.2-.992.664l-.032-.032.448-2.544zm2.08 1.664v1.616h5.28c-.24.864-.528 1.6-.88 2.192-.976 1.632-2.624 3.056-4.96 4.256l1.072 1.376c2.56-1.408 4.384-3.056 5.456-4.96.32-.576.592-1.264.848-2.064 1.184 3.008 3.296 5.344 6.352 7.024l1.056-1.376c-2.976-1.52-5.024-3.664-6.144-6.448h5.6v-1.616h-6.336c.144-.928.256-1.984.352-3.152h5.504v-1.6h-12.768v1.6h5.568c-.08 1.152-.192 2.192-.352 3.152zm15.968-3.472v1.472h2.272v1.808h-2.496v1.504h2.864v4.896c-.352-.336-.688-.752-1.008-1.232.112-.832.176-1.68.208-2.576l-1.456-.176c-.08 2.224-.432 4.24-1.072 6.064l1.2 1.072c.32-.784.576-1.616.768-2.48.576.72 1.232 1.248 1.968 1.568.976.416 3.44.64 7.392.64h3.296l.288-1.664c-.864.064-2.192.112-3.968.112-3.088 0-5.088-.144-6.016-.416v-2.384h1.872v-1.504h-1.872v-1.92h1.92v-1.504h-2.272v-1.808h1.952v-1.472h-1.952v-2.016h-1.616v2.016zm8.8-2.048c-.912 1.712-1.984 3.04-3.2 3.968l.944 1.152c.096-.08.208-.16.304-.256v1.28h5.168v1.472h-4.832v1.456h4.832v1.408h-5.376v1.552h6.976v-7.424h-2.176c.448-.544.88-1.168 1.328-1.904v-1.248h-3.024c.208-.352.416-.72.624-1.104zm-1.648 4.608c.528-.496 1.04-1.04 1.536-1.648h2.144c-.448.624-.896 1.168-1.328 1.648zm8.784-3.152v1.568h2.08v1.312c-.768.096-1.536.176-2.304.24l.384 1.552c.64-.096 1.28-.176 1.92-.272v.912c0 .288-.16.448-.448.448-.416 0-.848-.032-1.296-.096l.352 1.552h1.504c1.008 0 1.52-.512 1.52-1.504v-1.568c.576-.096 1.136-.208 1.696-.304v-1.536c-.56.112-1.12.224-1.696.32v-1.056h1.744v-1.568h-1.744v-1.392h-1.632v1.392zm6.432 2.288-.832 1.216c.448.176.896.384 1.344.624-.432.672-1.024 1.248-1.76 1.696l1.12 1.008h-.528c-.048.32-.112.624-.208.944h-5.568v1.6h4.752c-.176.224-.384.432-.608.64-.896.736-2.352 1.312-4.368 1.712l.656 1.568c2.416-.56 4.112-1.312 5.088-2.24.48-.48.88-1.04 1.2-1.68h4.56c0 .576-.032 1.12-.096 1.616-.064.48-.352.736-.864.768-.704 0-1.472-.048-2.32-.144l.448 1.584c.528.048 1.184.08 1.968.08.96 0 1.632-.336 2.016-.976.352-.656.544-2.16.544-4.528h-5.696c.064-.304.128-.624.176-.944h-.88c.736-.512 1.328-1.152 1.792-1.904.448.288.912.608 1.376.96l.832-1.312c-.496-.352-1.024-.704-1.584-1.024.192-.592.32-1.248.384-1.984h1.44v1.856c0 1.44.16 2.416.512 2.928.368.496.8.752 1.312.752.448 0 .832-.208 1.168-.608.288-.432.512-1.168.64-2.192l-1.328-.656c-.16 1.168-.304 1.76-.448 1.76-.224 0-.352-.672-.368-1.984v-3.424h-2.896v-1.408h-1.616v1.408h-1.744v1.568h1.696c-.032.416-.112.816-.208 1.216-.352-.176-.72-.336-1.104-.496zm13.328-2.256h-1.904q-.528.768-.92 1.68-.392.912-.656 1.888-.264.976-.4 1.96-.136.984-.136 1.88 0 1.888.552 3.712.552 1.824 1.56 3.472h1.888q-.912-1.744-1.32-3.584-.408-1.84-.408-3.76 0-1.888.416-3.72.416-1.832 1.328-3.528zm2.624 1.2v5.696h10.528v-5.696h-2.432c.464-.64.928-1.392 1.376-2.256l-1.6-.592c-.448.992-.96 1.952-1.552 2.848h-3.168l.944-.48c-.544-.832-1.088-1.616-1.664-2.32l-1.424.704c.544.624 1.072 1.328 1.552 2.096zm8.848 4.128h-7.168v-2.56h7.168zm-9.52 2.624c-.288 1.344-.784 2.624-1.504 3.824l1.456.912c.704-1.232 1.248-2.704 1.632-4.4zm6.576-.752-1.472.496c.464.816.896 1.744 1.28 2.8l1.536-.688c-.384-.928-.832-1.792-1.344-2.608zm5.008.384-1.6.528c.64 1.168 1.232 2.528 1.776 4.064l1.536-.688c-.48-1.392-1.056-2.688-1.712-3.904zm-3.312 5.584c.64 0 1.104-.144 1.424-.4.32-.288.544-1.184.672-2.688l-1.584-.528c-.048.96-.144 1.552-.272 1.76-.128.176-.304.272-.544.272h-3.344c-.352 0-.528-.224-.528-.64v-2.88h-1.696v3.248c0 1.232.56 1.856 1.712 1.856zm16.384-10.736h1.952c-.064 1.808-.336 3.424-.816 4.832-.528-1.2-.96-2.592-1.312-4.176.064-.224.112-.432.176-.656zm.368 6.544c-.688 1.232-1.616 2.224-2.768 2.992l.864 1.408c1.088-.784 2.016-1.744 2.768-2.864.752 1.184 1.632 2.144 2.624 2.88l.928-1.36c-1.056-.72-1.968-1.728-2.736-3.008.848-1.824 1.312-4.016 1.408-6.592h.88v-1.616h-4c.112-.624.208-1.28.304-1.984l-1.632-.288c-.304 2.944-.896 5.296-1.776 7.056l1.04 1.296c.256-.448.512-.944.752-1.472.384 1.312.832 2.496 1.344 3.552zm-7.568-3.008c-.096.288-.208.576-.32.896h-2.224v1.424h1.584c-.288.592-.624 1.216-1.008 1.856.704.272 1.392.544 2.032.816-.848.384-1.84.72-2.992.976l.768 1.392c1.584-.416 2.896-.944 3.952-1.616.864.4 1.6.784 2.208 1.152l.896-1.312c-.592-.32-1.2-.608-1.824-.88.704-.704 1.184-1.536 1.456-2.464v-1.344h-3.216c.08-.224.16-.464.256-.704zm1.568 4.08c-.512-.208-1.024-.4-1.536-.56.224-.384.448-.784.656-1.2h2.368c-.336.656-.832 1.248-1.488 1.76zm-2.544-11.264-1.296.416c.352.592.688 1.264 1.008 2.032l1.184-.528c-.256-.688-.56-1.328-.896-1.92zm4.496-.016c-.288.64-.704 1.28-1.216 1.936l1.168.592c.496-.64.896-1.296 1.216-1.968zm-6.032 2.704v1.456h1.904c-.48.704-1.248 1.344-2.288 1.936l.832 1.344c1.152-.832 1.984-1.776 2.528-2.864v2.512h1.536v-1.68c.448.304 1.008.72 1.68 1.248l.864-1.312c-.864-.432-1.712-.816-2.544-1.152v-.032h2.72v-1.456h-2.72v-2.896h-1.536v2.896zm18.096 7.808c-.4 0-.72.112-.96.352-.256.224-.384.528-.384.912 0 .352.112.656.352.896s.528.368.88.368c.176 0 .304-.032.4-.064 0 .384-.128.752-.416 1.136-.304.352-.672.608-1.104.768v1.056c.832-.24 1.504-.672 2-1.296.48-.64.736-1.376.736-2.224 0-.56-.144-1.024-.416-1.376-.288-.352-.656-.528-1.088-.528zm27.152-10.224h-7.504v9.072h1.648v-7.472h4.16v7.472h1.696zm-.544 14.048c.544 0 .96-.128 1.248-.368.272-.256.464-1.088.576-2.464l-1.552-.496c-.032.864-.096 1.376-.192 1.568-.08.16-.208.24-.384.24h-.864c-.256 0-.384-.16-.384-.48v-3.024h-1.28c.192-.8.304-1.68.336-2.672v-3.792h-1.584v3.792c-.064 1.696-.416 3.088-1.024 4.16-.608.976-1.792 1.808-3.536 2.48l.896 1.408c1.792-.656 3.088-1.584 3.888-2.8.24-.384.448-.816.64-1.296v2.112c0 1.088.512 1.632 1.568 1.632zm-12.768-8.8v1.6h1.648v3.488c-.64.16-1.312.304-1.984.432l.4 1.6c1.824-.448 3.536-.992 5.136-1.632v-1.6c-.608.256-1.232.48-1.856.704v-2.992h1.616v-1.6h-1.616v-3.264h1.84v-1.584h-5.408v1.584h1.872v3.264zm20.928.304h5.824v1.28h-5.824zm5.824 2.72v1.248h-5.824v-1.248zm0 2.688v1.296c0 .352-.192.528-.576.528-.512 0-1.072-.032-1.664-.08l.4 1.504h1.792c1.072-.032 1.616-.496 1.616-1.424v-8.672h-7.232c.272-.464.528-.928.784-1.408h8.336v-1.616h-7.632c.176-.48.336-.976.496-1.488l-1.712-.208c-.176.576-.384 1.136-.624 1.696h-4.656v1.616h3.856c-1.056 1.824-2.48 3.456-4.288 4.88l1.088 1.424c.96-.784 1.84-1.632 2.624-2.528v7.808h1.568v-3.328zm8.32-7.808v1.344h5.328v-1.344zm.272 2.064v3.504h4.768v-3.504zm3.216 2.256h-1.664v-.992h1.664zm7.216-6.72h-.944c-.096-.48-.176-.912-.272-1.296l-1.472.256c.112.32.224.672.32 1.04h-1.152c-.016-.416-.016-.864-.016-1.312h-1.584c0 .448 0 .896.016 1.312h-7.712v3.28c-.032 1.776-.48 3.168-1.312 4.16l1.248 1.12c1.072-1.328 1.632-3.088 1.696-5.28v-1.776h6.16c.08 1.248.24 2.288.464 3.12.16.592.368 1.136.592 1.616-.464.512-.976.944-1.536 1.264l.848 1.296c.512-.32 1.008-.72 1.488-1.2.016.032.048.064.096.112.576.656 1.184.992 1.824.992.784 0 1.44-.864 1.968-2.56l-1.328-.784c-.288 1.184-.56 1.792-.8 1.792-.256 0-.528-.256-.832-.736.672-.992 1.232-2.208 1.696-3.68l-1.264-.672c-.32.992-.688 1.872-1.104 2.656-.08-.272-.16-.576-.224-.928-.144-.608-.256-1.36-.32-2.288h3.456zm-12.448 8.736c-.32 1.2-.832 2.336-1.568 3.408l1.408.912c.72-1.12 1.28-2.448 1.68-3.984zm7.936 4.56c.592 0 1.04-.128 1.344-.352.304-.256.528-1.056.656-2.4l-1.6-.512c-.048.816-.128 1.312-.24 1.472-.096.16-.256.24-.48.24h-3.216c-.32 0-.464-.208-.464-.624v-2.528h-1.696v2.88c0 1.216.544 1.824 1.664 1.824zm3.216-4.304-1.36.832c.864 1.056 1.536 2.016 2.032 2.88l1.328-.928c-.464-.8-1.136-1.728-2-2.784zm-5.152-.72-1.248.768c.672.8 1.216 1.536 1.6 2.176l1.248-.864c-.384-.592-.912-1.28-1.6-2.08zm13.52.72c-1.008 1.024-2.736 1.952-5.168 2.8l.976 1.568c2.672-1.2 4.528-2.624 5.584-4.272v4.448h1.696v-4.48c1.152 1.696 3.072 3.072 5.76 4.144l.784-1.632c-2.24-.64-3.952-1.504-5.12-2.576h4.704v-1.536h-6.128v-1.2h-1.696v1.2h-6.144v1.536zm2.144-10.24v1.536h-2.08v1.552h1.952c-.112.672-.288 1.264-.528 1.76-.4.736-1.184 1.344-2.336 1.84l.896 1.424c1.296-.512 2.24-1.248 2.816-2.208.432-.752.72-1.696.864-2.816h1.584v3.232c0 .96.528 1.44 1.6 1.44h.864c.64 0 1.056-.176 1.28-.512.208-.352.384-1.2.528-2.56l-1.472-.48c-.064.992-.128 1.584-.208 1.744-.08.176-.208.272-.4.288h-.288c-.192 0-.272-.096-.272-.272v-4.432h-3.104v-1.536zm-5.2.192-.848 1.248c.944.336 1.856.8 2.752 1.408l.832-1.264c-.832-.544-1.744-1.008-2.736-1.392zm-.944 2.144-.832 1.248c.816.288 1.616.704 2.384 1.248l.832-1.248c-.736-.496-1.52-.912-2.384-1.248zm2.672 1.936c-1.008 1.12-2.16 2.08-3.44 2.912l1.152 1.296c1.216-.864 2.384-1.968 3.504-3.296zm13.664-2.784v1.552h4.336v1.424h-5.616v1.568h6.592c-2.144 1.152-4.432 2.016-6.848 2.576l.704 1.552c.832-.304 1.632-.592 2.4-.88v5.568h1.696v-.576h6.24v.576h1.68v-7.488h-5.168c.672-.352 1.28-.672 1.824-.992l.528-.336h4.736v-1.568h-2.672c.864-.768 1.696-1.616 2.464-2.56l-1.264-.928c-1.04 1.28-2.304 2.432-3.776 3.488h-1.824v-1.424h3.44v-1.552h-3.44v-1.52h-1.696v1.52zm3.264 10h6.24v1.312h-6.24zm6.24-1.44h-6.24v-1.248h6.24zm7.472.672c-.4 0-.72.112-.96.352-.256.224-.384.528-.384.912 0 .352.112.656.352.896s.528.368.88.368c.176 0 .304-.032.4-.064 0 .384-.128.752-.416 1.136-.304.352-.672.608-1.104.768v1.056c.832-.24 1.504-.672 2-1.296.48-.64.736-1.376.736-2.224 0-.56-.144-1.024-.416-1.376-.288-.352-.656-.528-1.088-.528zm15.216-10.592-1.184 1.136c1.248.896 2.224 1.728 2.896 2.496l1.216-1.216c-.8-.8-1.776-1.616-2.928-2.416zm-.496 3.76-1.136 1.104c1.152.896 2.032 1.712 2.656 2.48l1.216-1.216c-.736-.8-1.648-1.584-2.736-2.368zm1.696 4.512c-.736 1.888-1.584 3.744-2.56 5.536l1.648.736c.896-1.76 1.696-3.648 2.416-5.648zm10.528-.688h-8.064v7.104h1.632v-.864h4.8v.864h1.632zm-6.432 4.672v-3.152h4.8v3.152zm4.944-10.608-1.472.704c.432.64.864 1.344 1.296 2.08-1.584.224-3.2.384-4.848.496.976-1.264 1.936-2.784 2.88-4.544l-1.68-.576c-1.584 3.296-2.8 5.04-3.632 5.2l.288 1.504c2.848-.16 5.424-.384 7.744-.688.192.368.384.768.576 1.184l1.568-.768c-.864-1.68-1.776-3.216-2.72-4.592zm7.2 5.216h2.832v.544h-2.832zm2.832-1.024h-2.832v-.544h2.832zm-2.832 2.56h2.832v.16c0 .368-.144.56-.432.56l-.944-.064.32 1.232h1.04c1.04 0 1.568-.464 1.568-1.392v-4.768h-5.904v6.176h1.52zm-1.664 2.496c-.272.864-.72 1.664-1.344 2.416l1.344.848c.64-.832 1.136-1.824 1.504-2.944zm8.32 3.552c.576 0 1.008-.112 1.296-.304.288-.224.496-.928.624-2.096l-1.536-.496c-.032.688-.112 1.104-.24 1.232-.096.128-.256.192-.448.192h-3.664c-.288 0-.432-.128-.432-.368v-1.776h-1.632v2.112c0 .992.528 1.504 1.584 1.504zm1.904-4.128c1.056 0 1.6-.512 1.6-1.504v-4.736h-1.584v4.336c0 .32-.192.496-.576.496-.448 0-.928-.048-1.424-.112l.368 1.52zm-4.08-.208-1.216.752c.64.688 1.136 1.312 1.52 1.888l1.232-.848c-.368-.512-.88-1.12-1.536-1.792zm5.184.416-1.264.8c.768.944 1.392 1.808 1.856 2.576l1.296-.912c-.448-.704-1.072-1.52-1.888-2.464zm-4-6.192v3.92h1.568v-3.92zm-4.864-1.328v.544h6.8v-.624c1.008.4 2.112.768 3.296 1.088l.736-1.296c-2.592-.704-4.896-1.648-6.88-2.864h-1.024c-1.824 1.168-4.096 2.144-6.832 2.928l.72 1.312c1.152-.336 2.208-.704 3.184-1.088zm5.232-.768h-3.488c.608-.304 1.168-.624 1.696-.96.544.336 1.152.656 1.792.96zm16.928 1.504h1.952c-.064 1.808-.336 3.424-.816 4.832-.528-1.2-.96-2.592-1.312-4.176.064-.224.112-.432.176-.656zm.368 6.544c-.688 1.232-1.616 2.224-2.768 2.992l.864 1.408c1.088-.784 2.016-1.744 2.768-2.864.752 1.184 1.632 2.144 2.624 2.88l.928-1.36c-1.056-.72-1.968-1.728-2.736-3.008.848-1.824 1.312-4.016 1.408-6.592h.88v-1.616h-4c.112-.624.208-1.28.304-1.984l-1.632-.288c-.304 2.944-.896 5.296-1.776 7.056l1.04 1.296c.256-.448.512-.944.752-1.472.384 1.312.832 2.496 1.344 3.552zm-7.568-3.008c-.096.288-.208.576-.32.896h-2.224v1.424h1.584c-.288.592-.624 1.216-1.008 1.856.704.272 1.392.544 2.032.816-.848.384-1.84.72-2.992.976l.768 1.392c1.584-.416 2.896-.944 3.952-1.616.864.4 1.6.784 2.208 1.152l.896-1.312c-.592-.32-1.2-.608-1.824-.88.704-.704 1.184-1.536 1.456-2.464v-1.344h-3.216c.08-.224.16-.464.256-.704zm1.568 4.08c-.512-.208-1.024-.4-1.536-.56.224-.384.448-.784.656-1.2h2.368c-.336.656-.832 1.248-1.488 1.76zm-2.544-11.264-1.296.416c.352.592.688 1.264 1.008 2.032l1.184-.528c-.256-.688-.56-1.328-.896-1.92zm4.496-.016c-.288.64-.704 1.28-1.216 1.936l1.168.592c.496-.64.896-1.296 1.216-1.968zm-6.032 2.704v1.456h1.904c-.48.704-1.248 1.344-2.288 1.936l.832 1.344c1.152-.832 1.984-1.776 2.528-2.864v2.512h1.536v-1.68c.448.304 1.008.72 1.68 1.248l.864-1.312c-.864-.432-1.712-.816-2.544-1.152v-.032h2.72v-1.456h-2.72v-2.896h-1.536v2.896zm14.896 13.12h1.888q.528-.752.928-1.664.4-.912.664-1.88.264-.968.392-1.952.128-.984.128-1.88 0-1.888-.552-3.728-.552-1.84-1.56-3.488h-1.872q.88 1.744 1.296 3.6.416 1.856.416 3.776 0 1.888-.424 3.704-.424 1.816-1.304 3.512z" stroke="none" transform="translate(360.2503 31)"/><path d="m96.4944 394.3353h5.9945 5.9944 5.9945 5.9944 5.9945l5.9944-.0161 5.9945-.0682 5.9944-.237 5.9944-.3093 5.9945-.3736 5.9944-.5984 5.9945-.5262 5.9944-1.0403 5.9945-1.8357 5.9944-2.7634 5.9944-3.0888 5.9945-7.1136 5.9944-5.8603 5.9945-6.9769 5.9944-7.9611 5.9945-8.4269 5.9944-10.3992 5.9945-11.3471 5.9944-12.9858 5.9945-15.6088 5.9944-14.8376 5.9945-12.6244 5.9944-13.5964 5.9944-10.6522 5.9945-11.9415 5.9944-9.9091 5.9945-8.0936 5.9944-60.8565 5.9944-16.2555 5.9945-10.608 5.9944-8.0655 5.9945-8.2261 5.9944-7.5835 5.9945-7.0251 5.9944-3.2816 5.9945-3.5708 5.9944-1.5947 5.9945-2.6028 5.9944-.8595 5.9944-2.0405 5.9945-1.6308 5.9944-1.7392 5.9945-1.3134 5.9944-1.7152 5.9945-2.3015 5.9944-.8114 5.9945-.502 5.9944-.478 5.9945-.5584 5.9944-.5743 5.9944-.3977 5.9945-.1767 5.9944-.1607 5.9945-.0763 5.9944-.0964 5.9944-.0602 5.9945-.0804 5.9944-.0442 5.9945-.0803 5.9944-.0643 5.9945-.0843 5.9944-.0522 5.9945-.1366 5.9944-.1567 5.9944-.1646 5.9945-.1848 5.9944-.1566 5.9945-.3133 5.9944-.1888 5.9945-.2692 5.9944-.2209 5.9945-.2169 5.9944-.1807 5.9944-.1245 5.9945-.1928 5.9944-.1446 5.9945-.1406 5.9944-.1245 5.9945-.0763" style="fill:none;stroke-linecap:butt;stroke-linejoin:bevel;stroke-dasharray:1 3;stroke-width:.5;stroke-miterlimit:1"/><g fill="none" stroke="#f00" stroke-linecap="butt" stroke-linejoin="round" stroke-width=".5"><path d="m96.4944 394.3474 5.9945.016 5.9944.0041h5.9945 5.9944l5.9945.024 5.9944-.004 5.9945-.0522 5.9944-.2129 5.9944-.3012 5.9945-.3736 5.9944-.5583 5.9945-.5141 5.9944-.9721 5.9945-1.7552 5.9944-2.6591 5.9944-2.9843 5.9945-6.973 5.9944-5.5831 5.9945-6.74 5.9944-7.5995 5.9945-7.953 5.9944-9.877 5.9945-10.5277 5.9944-12.0982 5.9945-14.3034 5.9944-13.496 5.9945-10.7767 5.9944-11.2025 5.9944-7.8887 5.9945-9.0134 5.9944-6.6034 5.9945-4.7156 5.9944-55.1327 5.9944-12.9417 5.9945-4.5188 5.9944-2.181 5.9945-2.0807 5.9944-.3293 5.9945.8475 5.9944 6.033 5.9945 5.3743 5.9944 6.752 5.9945 6.74 5.9944 7.1577 5.9944 8.6439 5.9945 8.3064 5.9944 9.4231 5.9945 13.4117 5.9944 10.0617 5.9945 8.3748 5.9944 10.7526 5.9945 10.6361 5.9944 10.3269 5.9945 8.3587 5.9944 6.2981 5.9944 6.4548 5.9945 6.6034 5.9944 6.0933 5.9945 5.2015 5.9944 6.3303 5.9944 5.2779 5.9945 5.2418 5.9944 5.7518 5.9945 5.4627 5.9944 3.3579 5.9945 3.7034 5.9944 3.6953 5.9945 3.1852 5.9944 2.7876 5.9944 2.2333 5.9945 1.8637 5.9944 1.7232 5.9945 1.5464 5.9944 1.7994 5.9945 1.3657 5.9944 1.9561 5.9945 1.3336 5.9944 1.7553 5.9944 1.1849 5.9945.9439 5.9944.6306 5.9945.5663 5.9944.5463 5.9945.6628"/><path d="m96.4944 394.492 5.9945-.0161 5.9944-.004h5.9945 5.9944l5.9945-.0201 5.9944-.012 5.9945-.0161 5.9944-.0201 5.9944-.004h5.9945 5.9944 5.9945l5.9944-.0362 5.9945-.016 5.9944-.0442 5.9944-.0081 5.9945-.0361 5.9944-.1727 5.9945-.0844 5.9944-.1888 5.9945-.2891 5.9944-.3415 5.9945-.5904 5.9944-.6306 5.9945-1.0444 5.9944-1.0483 5.9945-1.5545 5.9944-2.0485 5.9944-2.4059 5.9945-2.5386 5.9944-2.8719 5.9945-2.9884 5.9944-4.7035 5.9944-3.2616 5.9945-5.5148 5.9944-5.3141 5.9945-5.7237 5.9944-6.8605 5.9945-7.3264 5.9944-7.1537 5.9945-8.4711 5.9944-9.6119 5.9945-8.9532 5.9944-7.4147 5.9944-10.3992 5.9945-9.7283 5.9944-11.0459 5.9945-14.5483 5.9944-11.5881 5.9945-10.5358 5.9944-11.3952 5.9945-11.0137 5.9944-10.6522 5.9945-8.7925 5.9944-6.752 5.9944-6.74 5.9945-6.6717 5.9944-6.1656 5.9945-5.2096 5.9944-6.3383 5.9944-5.294 5.9945-5.2939 5.9944-5.7438 5.9945-5.5029 5.9944-3.366 5.9945-3.7354 5.9944-3.7034 5.9945-3.2897 5.9944-2.9321 5.9944-2.3699 5.9945-2.0244 5.9944-1.8436 5.9945-1.8316 5.9944-1.9722 5.9945-1.6107 5.9944-2.1569 5.9945-1.5384 5.9944-1.916 5.9944-1.2933 5.9945-1.1327 5.9944-.7471 5.9945-.6829 5.9944-.6547 5.9945-.723" stroke="#0f0"/></g><path d="m-4-4v8h8v-8z" stroke="none" transform="translate(288.3167 238.6533)"/><path d="m-4-4v8h8v-8z" fill="none" stroke="#ffffdc" stroke-linecap="butt" transform="translate(288.3167 238.6533)"/><path d="m-4-4v8h8v-8z" stroke="none" transform="translate(294.3111 183.5206)"/><path d="m-4-4v8h8v-8z" fill="none" stroke="#ffffdc" stroke-linecap="butt" transform="translate(294.3111 183.5206)"/><path d="m-4-4v8h8v-8z" stroke="none" transform="translate(294.3111 154.2873)"/><path d="m-4-4v8h8v-8z" fill="none" stroke="#ffffdc" stroke-linecap="butt" transform="translate(294.3111 154.2873)"/><path d="m-4-4v8h8v-8z" stroke="none" transform="translate(288.3167 215.1438)"/><path d="m-4-4v8h8v-8z" fill="none" stroke="#ffffdc" stroke-linecap="butt" transform="translate(288.3167 215.1438)"/></g><path d="m620 81v-38h-92v38z" style="stroke:none;fill:#fff;text-rendering:optimizeSpeed;color-rendering:optimizeSpeed;image-rendering:optimizeSpeed;shape-rendering:crispEdges;color-interpolation:sRGB"/><path color-interpolation="linearRGB" color-rendering="optimizeQuality" d="m1.638-1.153v-1.395h-.765v1.395h-.792v.675h.792v2.961q0 .324.063.522.063.198.1935.306.1305.108.342.1485.2115.0405.5085.0405h.585v-.675h-.351q-.18 0-.2925-.0135-.1125-.0135-.1755-.0585-.063-.045-.0855-.126-.0225-.081-.0225-.216v-2.889h.927v-.675zm2.331 2.331q0-.423.1125-.7515.1125-.3285.3105-.5535.198-.225.4635-.342.2655-.117.5625-.117.297 0 .5625.117.2655.117.4635.342.198.225.3105.5535.1125.3285.1125.7515 0 .423-.1125.7515-.1125.3285-.3105.549-.198.2205-.4635.3375-.2655.117-.5625.117-.297 0-.5625-.117-.2655-.117-.4635-.3375-.198-.2205-.3105-.549-.1125-.3285-.1125-.7515zm-.81 0q0 .513.144.954.144.441.432.7695.288.3285.711.513.423.1845.972.1845.558 0 .9765-.1845.4185-.1845.7065-.513.288-.3285.432-.7695.144-.441.144-.954 0-.513-.144-.9585-.144-.4455-.432-.774-.288-.3285-.7065-.5175-.4185-.189-.9765-.189-.549 0-.972.189-.423.189-.711.5175-.288.3285-.432.774-.144.4455-.144.9585zm6.48-2.331v-1.395h-.765v1.395h-.792v.675h.792v2.961q0 .324.063.522.063.198.1935.306.1305.108.342.1485.2115.0405.5085.0405h.585v-.675h-.351q-.18 0-.2925-.0135-.1125-.0135-.1755-.0585-.063-.045-.0855-.126-.0225-.081-.0225-.216v-2.889h.927v-.675zm5.895 4.635q-.198.117-.549.117-.297 0-.4725-.1665-.1755-.1665-.1755-.5445-.315.378-.7335.5445-.4185.1665-.9045.1665-.315 0-.5985-.072-.2835-.072-.4905-.225-.207-.153-.3285-.4005-.1215-.2475-.1215-.5985 0-.396.135-.648.135-.252.3555-.4095.2205-.1575.504-.2385.2835-.081.5805-.135.315-.063.5985-.0945.2835-.0315.4995-.09.216-.0585.342-.171.126-.1125.126-.3285 0-.252-.0945-.405-.0945-.153-.243-.234-.1485-.081-.333-.108-.1845-.027-.3645-.027-.486 0-.81.1845-.324.1845-.351.6975h-.765q.018-.432.18-.729.162-.297.432-.4815.27-.1845.6165-.2655.3465-.081.7425-.081.315 0 .6255.045.3105.045.5625.1845.252.1395.405.3915.153.252.153.657v2.394q0 .27.0315.396.0315.126.2115.126.099 0 .234-.045zm-1.242-2.385q-.144.108-.378.1575-.234.0495-.4905.081-.2565.0315-.5175.072-.261.0405-.468.1305-.207.09-.3375.2565-.1305.1665-.1305.4545 0 .189.0765.3195.0765.1305.198.2115.1215.081.2835.117.162.036.342.036.378 0 .648-.1035.27-.1035.441-.261.171-.1575.252-.342.081-.1845.081-.3465zm1.998-4.023v6.426h.765v-6.426z" image-rendering="optimizeQuality" stroke="none" text-rendering="geometricPrecision" transform="translate(565 50.5)"/><path d="m532 50.5h30" style="fill:none;stroke-linecap:butt;text-rendering:geometricPrecision;image-rendering:optimizeQuality;color-rendering:optimizeQuality;stroke-linejoin:bevel;stroke-dasharray:1 3;color-interpolation:linearRGB;stroke-width:.5;stroke-miterlimit:1"/><path color-interpolation="linearRGB" color-rendering="optimizeQuality" d="m1.386-1.99v-.936h-.765v.936zm-.765.837v4.653h.765v-4.653zm1.953 0v4.653h.765v-2.628q0-.315.0855-.5805.0855-.2655.2565-.4635.171-.198.4275-.306.2565-.108.6075-.108.441 0 .693.252.252.252.252.684v3.15h.765v-3.06q0-.378-.0765-.6885-.0765-.3105-.2655-.5355-.189-.225-.495-.351-.306-.126-.765-.126-1.035 0-1.512.846h-.018v-.738zm5.319.675v3.978h.765v-3.978h.9v-.675h-.9v-.648q0-.306.153-.414.153-.108.432-.108.099 0 .216.0135.117.0135.216.0495v-.666q-.108-.036-.2475-.054-.1395-.018-.2475-.018-.63 0-.9585.2925-.3285.2925-.3285.8595v.693h-.783v.675zm5.58 1.206h-2.673q.018-.27.117-.5085.099-.2385.27-.4185.171-.18.4095-.2835.2385-.1035.5355-.1035.288 0 .5265.1035.2385.1035.414.279.1755.1755.279.4185.1035.243.1215.513zm.738 1.296h-.756q-.099.459-.4095.684-.3105.225-.7965.225-.378 0-.657-.126-.279-.126-.459-.3375-.18-.2115-.261-.486-.081-.2745-.072-.5805h3.483q.018-.423-.0765-.891-.0945-.468-.342-.864-.2475-.396-.657-.6525-.4095-.2565-1.0305-.2565-.477 0-.8775.18-.4005.18-.693.504-.2925.324-.4545.765-.162.441-.162.972.018.531.1575.981.1395.45.4185.774.279.324.6885.504.4095.18.9675.18.792 0 1.314-.396.522-.396.675-1.179zm4.023-1.683h.792q-.045-.414-.216-.7155-.171-.3015-.4365-.4995-.2655-.198-.612-.2925-.3465-.0945-.7425-.0945-.549 0-.963.1935-.414.1935-.6885.531-.2745.3375-.4095.792-.135.4545-.135.9765 0 .522.1395.9585.1395.4365.414.7515.2745.315.684.486.4095.171.9405.171.891 0 1.4085-.468.5175-.468.6435-1.332h-.783q-.072.54-.3915.837-.3195.297-.8865.297-.36 0-.621-.144-.261-.144-.423-.3825-.162-.2385-.2385-.5445-.0765-.306-.0765-.63 0-.351.072-.6795.072-.3285.2385-.5805.1665-.252.4455-.405.279-.153.693-.153.486 0 .774.243.288.243.378.684zm2.736-1.494v-1.395h-.765v1.395h-.792v.675h.792v2.961q0 .324.063.522.063.198.1935.306.1305.108.342.1485.2115.0405.5085.0405h.585v-.675h-.351q-.18 0-.2925-.0135-.1125-.0135-.1755-.0585-.063-.045-.0855-.126-.0225-.081-.0225-.216v-2.889h.927v-.675zm5.004 1.881h-2.673q.018-.27.117-.5085.099-.2385.27-.4185.171-.18.4095-.2835.2385-.1035.5355-.1035.288 0 .5265.1035.2385.1035.414.279.1755.1755.279.4185.1035.243.1215.513zm.738 1.296h-.756q-.099.459-.4095.684-.3105.225-.7965.225-.378 0-.657-.126-.279-.126-.459-.3375-.18-.2115-.261-.486-.081-.2745-.072-.5805h3.483q.018-.423-.0765-.891-.0945-.468-.342-.864-.2475-.396-.657-.6525-.4095-.2565-1.0305-.2565-.477 0-.8775.18-.4005.18-.693.504-.2925.324-.4545.765-.162.441-.162.972.018.531.1575.981.1395.45.4185.774.279.324.6885.504.4095.18.9675.18.792 0 1.314-.396.522-.396.675-1.179zm1.422-.81q0-.342.072-.666.072-.324.234-.576.162-.252.432-.405.27-.153.657-.153.396 0 .675.1485.279.1485.4545.3915.1755.243.2565.5625.081.3195.081.6615 0 .324-.0765.639-.0765.315-.2475.5625-.171.2475-.441.4005-.27.153-.657.153-.369 0-.6435-.144-.2745-.144-.45-.387-.1755-.243-.261-.5535-.0855-.3105-.0855-.6345zm3.6 2.286v-6.426h-.765v2.394h-.018q-.126-.207-.3105-.3465-.1845-.1395-.3915-.225-.207-.0855-.414-.1215-.207-.036-.387-.036-.531 0-.9315.1935-.4005.1935-.666.522-.2655.3285-.396.7695-.1305.441-.1305.936 0 .495.135.936.135.441.4005.774.2655.333.666.531.4005.198.9405.198.486 0 .891-.171.405-.171.594-.558h.018v.63zm1.296-6.426v6.426h.81v-5.157h.018l3.357 5.157h.936v-6.426h-.81v5.211h-.018l-3.384-5.211zm6.939 4.104q0-.423.1125-.7515.1125-.3285.3105-.5535.198-.225.4635-.342.2655-.117.5625-.117.297 0 .5625.117.2655.117.4635.342.198.225.3105.5535.1125.3285.1125.7515 0 .423-.1125.7515-.1125.3285-.3105.549-.198.2205-.4635.3375-.2655.117-.5625.117-.297 0-.5625-.117-.2655-.117-.4635-.3375-.198-.2205-.3105-.549-.1125-.3285-.1125-.7515zm-.81 0q0 .513.144.954.144.441.432.7695.288.3285.711.513.423.1845.972.1845.558 0 .9765-.1845.4185-.1845.7065-.513.288-.3285.432-.7695.144-.441.144-.954 0-.513-.144-.9585-.144-.4455-.432-.774-.288-.3285-.7065-.5175-.4185-.189-.9765-.189-.549 0-.972.189-.423.189-.711.5175-.288.3285-.432.774-.144.4455-.144.9585zm10.026 2.322 1.485-4.653h-.792l-1.044 3.807h-.018l-.972-3.807h-.837l-.936 3.807h-.018l-1.053-3.807h-.846l1.494 4.653h.828l.936-3.699h.018l.945 3.699z" image-rendering="optimizeQuality" stroke="none" text-rendering="geometricPrecision" transform="translate(565 62)"/><path d="m532 62h30" style="fill:none;stroke-linecap:butt;text-rendering:geometricPrecision;image-rendering:optimizeQuality;color-rendering:optimizeQuality;stroke-linejoin:round;stroke:#f00;color-interpolation:linearRGB;stroke-width:.5"/><path color-interpolation="linearRGB" color-rendering="optimizeQuality" d="m3.735.341h.792q-.045-.414-.216-.7155-.171-.3015-.4365-.4995-.2655-.198-.612-.2925-.3465-.0945-.7425-.0945-.549 0-.963.1935-.414.1935-.6885.531-.2745.3375-.4095.792-.135.4545-.135.9765 0 .522.1395.9585.1395.4365.414.7515.2745.315.684.486.4095.171.9405.171.891 0 1.4085-.468.5175-.468.6435-1.332h-.783q-.072.54-.3915.837-.3195.297-.8865.297-.36 0-.621-.144-.261-.144-.423-.3825-.162-.2385-.2385-.5445-.0765-.306-.0765-.63 0-.351.072-.6795.072-.3285.2385-.5805.1665-.252.4455-.405.279-.153.693-.153.486 0 .774.243.288.243.378.684zm5.526 3.159v-4.653h-.765v2.628q0 .315-.0855.5805-.0855.2655-.2565.4635-.171.198-.4275.306-.2565.108-.6075.108-.441 0-.693-.252-.252-.252-.252-.684v-3.15h-.765v3.06q0 .378.0765.6885.0765.3105.2655.5355.189.225.495.3465.306.1215.765.1215.513 0 .891-.2025.378-.2025.621-.6345h.018v.738zm1.125-4.653v4.653h.765v-2.07q0-.45.09-.7965.09-.3465.288-.5895.198-.243.522-.369.324-.126.783-.126v-.81q-.621-.018-1.026.252-.405.27-.684.837h-.018v-.981zm6.255 1.881h-2.673q.018-.27.117-.5085.099-.2385.27-.4185.171-.18.4095-.2835.2385-.1035.5355-.1035.288 0 .5265.1035.2385.1035.414.279.1755.1755.279.4185.1035.243.1215.513zm.738 1.296h-.756q-.099.459-.4095.684-.3105.225-.7965.225-.378 0-.657-.126-.279-.126-.459-.3375-.18-.2115-.261-.486-.081-.2745-.072-.5805h3.483q.018-.423-.0765-.891-.0945-.468-.342-.864-.2475-.396-.657-.6525-.4095-.2565-1.0305-.2565-.477 0-.8775.18-.4005.18-.693.504-.2925.324-.4545.765-.162.441-.162.972.018.531.1575.981.1395.45.4185.774.279.324.6885.504.4095.18.9675.18.792 0 1.314-.396.522-.396.675-1.179z" image-rendering="optimizeQuality" stroke="none" text-rendering="geometricPrecision" transform="translate(565 73.5)"/><g style="stroke-linecap:butt;text-rendering:geometricPrecision;image-rendering:optimizeQuality;color-rendering:optimizeQuality;stroke-linejoin:round;stroke:#0f0;color-interpolation:linearRGB;stroke-width:.5;fill:none"><path d="m532 73.5h30"/><path d="m528 81v-38h92v38z" stroke="#262626" stroke-linejoin="miter"/></g><path d="m293.3167 233.6533h60v-32h-60z" style="stroke:none;fill:#ffe;text-rendering:optimizeSpeed;color-rendering:optimizeSpeed;image-rendering:optimizeSpeed;shape-rendering:crispEdges;color-interpolation:sRGB"/><path d="m293.3167 233.6533h60v-32h-60z" style="fill:none;stroke-linecap:butt;text-rendering:geometricPrecision;color-rendering:optimizeQuality;image-rendering:optimizeQuality;stroke:#ccc;color-interpolation:linearRGB;stroke-width:.5"/><path color-interpolation="linearRGB" color-rendering="optimizeQuality" d="m2.48-19.67-2.48 3.67h1.06l1.98-2.95 1.92 2.95h1.16l-2.51-3.67 2.36-3.47h-1.06l-1.86 2.79-1.78-2.79h-1.14zm5.57-.39v-1.11h-1.11v1.11zm-1.11 2.95v1.11h1.11v-1.11zm6.91-2.94v.72q.24-.03.51-.03.32 0 .595.085.275.085.475.26.2.175.32.43.12.255.12.585 0 .32-.125.575-.125.255-.335.43-.21.175-.49.27-.28.095-.59.095-.73 0-1.11-.435-.38-.435-.4-1.125h-.85q-.01.55.155.98.165.43.475.725.31.295.75.445.44.15.98.15.5 0 .945-.135.445-.135.775-.405.33-.27.525-.675.195-.405.195-.935 0-.64-.315-1.11-.315-.47-.965-.61v-.02q.42-.19.7-.56.28-.37.28-.85 0-.49-.165-.85-.165-.36-.455-.59-.29-.23-.685-.345-.395-.115-.855-.115-.53 0-.935.17-.405.17-.675.47-.27.3-.415.72-.145.42-.165.93h.85q0-.31.08-.59.08-.28.245-.49.165-.21.42-.335.255-.125.595-.125.54 0 .9.285.36.285.36.855 0 .28-.11.5-.11.22-.295.365-.185.145-.43.22-.245.075-.515.075h-.18q-.05 0-.1 0-.04 0-.09-.01zm5.56 0v.72q.24-.03.51-.03.32 0 .595.085.275.085.475.26.2.175.32.43.12.255.12.585 0 .32-.125.575-.125.255-.335.43-.21.175-.49.27-.28.095-.59.095-.73 0-1.11-.435-.38-.435-.4-1.125h-.85q-.01.55.155.98.165.43.475.725.31.295.75.445.44.15.98.15.5 0 .945-.135.445-.135.775-.405.33-.27.525-.675.195-.405.195-.935 0-.64-.315-1.11-.315-.47-.965-.61v-.02q.42-.19.7-.56.28-.37.28-.85 0-.49-.165-.85-.165-.36-.455-.59-.29-.23-.685-.345-.395-.115-.855-.115-.53 0-.935.17-.405.17-.675.47-.27.3-.415.72-.145.42-.165.93h.85q0-.31.08-.59.08-.28.245-.49.165-.21.42-.335.255-.125.595-.125.54 0 .9.285.36.285.36.855 0 .28-.11.5-.11.22-.295.365-.185.145-.43.22-.245.075-.515.075h-.18q-.05 0-.1 0-.04 0-.09-.01z" image-rendering="optimizeQuality" stroke="none" text-rendering="geometricPrecision" transform="translate(296.3167 230.6533)"/><path color-interpolation="linearRGB" color-rendering="optimizeQuality" d="m3.73-5.92 2.73-4.22h-1.08l-2.09 3.4-2.14-3.4h-1.13l2.76 4.22v2.92h.95zm4.69-1.14v-1.11h-1.11v1.11zm-1.11 2.95v1.11h1.11v-1.11zm6.91-2.94v.72q.24-.03.51-.03.32 0 .595.085.275.085.475.26.2.175.32.43.12.255.12.585 0 .32-.125.575-.125.255-.335.43-.21.175-.49.27-.28.095-.59.095-.73 0-1.11-.435-.38-.435-.4-1.125h-.85q-.01.55.155.98.165.43.475.725.31.295.75.445.44.15.98.15.5 0 .945-.135.445-.135.775-.405.33-.27.525-.675.195-.405.195-.935 0-.64-.315-1.11-.315-.47-.965-.61v-.02q.42-.19.7-.56.28-.37.28-.85 0-.49-.165-.85-.165-.36-.455-.59-.29-.23-.685-.345-.395-.115-.855-.115-.53 0-.935.17-.405.17-.675.47-.27.3-.415.72-.145.42-.165.93h.85q0-.31.08-.59.08-.28.245-.49.165-.21.42-.335.255-.125.595-.125.54 0 .9.285.36.285.36.855 0 .28-.11.5-.11.22-.295.365-.185.145-.43.22-.245.075-.515.075h-.18q-.05 0-.1 0-.04 0-.09-.01zm4.21 2.94v1.11h1.11v-1.11zm3.5-4.14q0-.27.1-.47.1-.2.265-.34.165-.14.395-.21.23-.07.48-.07.52 0 .855.275.335.275.335.815 0 .54-.33.84-.33.3-.84.3-.26 0-.49-.07-.23-.07-.4-.21-.17-.14-.27-.355-.1-.215-.1-.505zm-.9-.03q0 .48.27.885.27.405.72.585-.6.21-.92.675-.32.465-.32 1.095 0 .54.185.945.185.405.51.675.325.27.765.4.44.13.95.13.49 0 .92-.14.43-.14.745-.415.315-.275.5-.675.185-.4.185-.92 0-.66-.31-1.115-.31-.455-.95-.655.45-.2.715-.595.265-.395.265-.875 0-.34-.12-.665-.12-.325-.375-.58-.255-.255-.665-.41-.41-.155-.99-.155-.41 0-.785.12-.375.12-.665.35-.29.23-.46.565-.17.335-.17.775zm.65 3.28q0-.31.115-.56.115-.25.32-.43.205-.18.48-.275.275-.095.585-.095.3 0 .565.105.265.105.465.285.2.18.315.425.115.245.115.535 0 .3-.105.55-.105.25-.3.435-.195.185-.46.29-.265.105-.585.105-.66 0-1.085-.365-.425-.365-.425-1.005zm5.81-3.25q0-.27.1-.47.1-.2.265-.34.165-.14.395-.21.23-.07.48-.07.52 0 .855.275.335.275.335.815 0 .54-.33.84-.33.3-.84.3-.26 0-.49-.07-.23-.07-.4-.21-.17-.14-.27-.355-.1-.215-.1-.505zm-.9-.03q0 .48.27.885.27.405.72.585-.6.21-.92.675-.32.465-.32 1.095 0 .54.185.945.185.405.51.675.325.27.765.4.44.13.95.13.49 0 .92-.14.43-.14.745-.415.315-.275.5-.675.185-.4.185-.92 0-.66-.31-1.115-.31-.455-.95-.655.45-.2.715-.595.265-.395.265-.875 0-.34-.12-.665-.12-.325-.375-.58-.255-.255-.665-.41-.41-.155-.99-.155-.41 0-.785.12-.375.12-.665.35-.29.23-.46.565-.17.335-.17.775zm.65 3.28q0-.31.115-.56.115-.25.32-.43.205-.18.48-.275.275-.095.585-.095.3 0 .565.105.265.105.465.285.2.18.315.425.115.245.115.535 0 .3-.105.55-.105.25-.3.435-.195.185-.46.29-.265.105-.585.105-.66 0-1.085-.365-.425-.365-.425-1.005zm8.49-1.08h-2.97q.02-.3.13-.565.11-.265.3-.465.19-.2.455-.315.265-.115.595-.115.32 0 .585.115.265.115.46.31.195.195.31.465.115.27.135.57zm.82 1.44h-.84q-.11.51-.455.76-.345.25-.885.25-.42 0-.73-.14-.31-.14-.51-.375-.2-.235-.29-.54-.09-.305-.08-.645h3.87q.02-.47-.085-.99-.105-.52-.38-.96-.275-.44-.73-.725-.455-.285-1.145-.285-.53 0-.975.2-.445.2-.77.56-.325.36-.505.85-.18.49-.18 1.08.02.59.175 1.09.155.5.465.86.31.36.765.56.455.2 1.075.2.88 0 1.46-.44.58-.44.75-1.31zm3.66-1.23v-2.19h-.68v2.19h-2.18v.68h2.18v2.19h.68v-2.19h2.18v-.68zm3.98-.62q0-.26.005-.575.005-.315.05-.63.045-.315.13-.615.085-.3.25-.525.165-.225.415-.365.25-.14.61-.14.36 0 .61.14.25.14.415.365.165.225.25.525.085.3.13.615.045.315.05.63.005.315.005.575 0 .4-.025.895-.025.495-.16.93-.135.435-.435.735-.3.3-.84.3-.54 0-.84-.3-.3-.3-.435-.735-.135-.435-.16-.93-.025-.495-.025-.895zm-.9.01q0 .39.02.81.02.42.1.82.08.4.23.755.15.355.41.625.26.27.655.425.395.155.945.155.56 0 .95-.155.39-.155.65-.425.26-.27.41-.625.15-.355.23-.755.08-.4.1-.82.02-.42.02-.81 0-.39-.02-.81-.02-.42-.1-.82-.08-.4-.23-.76-.15-.36-.41-.63-.26-.27-.655-.43-.395-.16-.945-.16-.55 0-.945.16-.395.16-.655.43-.26.27-.41.63-.15.36-.23.76-.08.4-.1.82-.02.42-.02.81zm8.53 1.07h-2.38l2.36-3.47h.02zm.8 0v-4.68h-.68l-3.23 4.61v.82h3.11v1.66h.8v-1.66h.96v-.75z" image-rendering="optimizeQuality" stroke="none" text-rendering="geometricPrecision" transform="translate(296.3167 230.6533)"/><path d="m299.3111 178.5206h66v-32h-66z" style="stroke:none;fill:#ffe;text-rendering:optimizeSpeed;color-rendering:optimizeSpeed;image-rendering:optimizeSpeed;shape-rendering:crispEdges;color-interpolation:sRGB"/><path d="m299.3111 178.5206h66v-32h-66z" style="fill:none;stroke-linecap:butt;text-rendering:geometricPrecision;color-rendering:optimizeQuality;image-rendering:optimizeQuality;stroke:#ccc;color-interpolation:linearRGB;stroke-width:.5"/><path color-interpolation="linearRGB" color-rendering="optimizeQuality" d="m2.48-19.67-2.48 3.67h1.06l1.98-2.95 1.92 2.95h1.16l-2.51-3.67 2.36-3.47h-1.06l-1.86 2.79-1.78-2.79h-1.14zm5.57-.39v-1.11h-1.11v1.11zm-1.11 2.95v1.11h1.11v-1.11zm6.91-2.94v.72q.24-.03.51-.03.32 0 .595.085.275.085.475.26.2.175.32.43.12.255.12.585 0 .32-.125.575-.125.255-.335.43-.21.175-.49.27-.28.095-.59.095-.73 0-1.11-.435-.38-.435-.4-1.125h-.85q-.01.55.155.98.165.43.475.725.31.295.75.445.44.15.98.15.5 0 .945-.135.445-.135.775-.405.33-.27.525-.675.195-.405.195-.935 0-.64-.315-1.11-.315-.47-.965-.61v-.02q.42-.19.7-.56.28-.37.28-.85 0-.49-.165-.85-.165-.36-.455-.59-.29-.23-.685-.345-.395-.115-.855-.115-.53 0-.935.17-.405.17-.675.47-.27.3-.415.72-.145.42-.165.93h.85q0-.31.08-.59.08-.28.245-.49.165-.21.42-.335.255-.125.595-.125.54 0 .9.285.36.285.36.855 0 .28-.11.5-.11.22-.295.365-.185.145-.43.22-.245.075-.515.075h-.18q-.05 0-.1 0-.04 0-.09-.01zm6.77 1.64h-2.38l2.36-3.47h.02zm.8 0v-4.68h-.68l-3.23 4.61v.82h3.11v1.66h.8v-1.66h.96v-.75z" image-rendering="optimizeQuality" stroke="none" text-rendering="geometricPrecision" transform="translate(302.3111 175.5206)"/><path color-interpolation="linearRGB" color-rendering="optimizeQuality" d="m3.73-5.92 2.73-4.22h-1.08l-2.09 3.4-2.14-3.4h-1.13l2.76 4.22v2.92h.95zm4.69-1.14v-1.11h-1.11v1.11zm-1.11 2.95v1.11h1.11v-1.11zm9.43-5.11v-.75h-3.5l-.66 3.68.73.04q.25-.3.575-.485.325-.185.745-.185.36 0 .655.12.295.12.505.335.21.215.325.51.115.295.115.645 0 .42-.12.735-.12.315-.325.525-.205.21-.48.315-.275.105-.575.105-.32 0-.585-.095-.265-.095-.46-.27-.195-.175-.31-.41-.115-.235-.135-.505h-.85q.01.48.19.86.18.38.49.635.31.255.715.39.405.135.865.135.62 0 1.085-.195.465-.195.775-.525.31-.33.465-.755.155-.425.155-.875 0-.61-.18-1.065-.18-.455-.49-.76-.31-.305-.73-.455-.42-.15-.89-.15-.36 0-.725.125-.365.125-.595.385l-.02-.02.38-2.04zm1.69 5.11v1.11h1.11v-1.11zm2.39-3.47h.85q-.01-.32.065-.635.075-.315.245-.565.17-.25.435-.405.265-.155.635-.155.28 0 .53.09.25.09.435.26.185.17.295.405.11.235.11.525 0 .37-.115.65-.115.28-.34.52-.225.24-.565.475-.34.235-.79.515-.37.22-.71.47-.34.25-.61.58-.27.33-.445.775-.175.445-.225 1.075h4.63v-.75h-3.64q.06-.33.255-.585.195-.255.47-.475.275-.22.605-.415.33-.195.66-.395.33-.21.64-.44.31-.23.55-.515.24-.285.385-.645.145-.36.145-.83 0-.5-.175-.88-.175-.38-.475-.635-.3-.255-.705-.39-.405-.135-.865-.135-.56 0-1 .19-.44.19-.735.525-.295.335-.435.795-.14.46-.11 1zm9.82-1.64v-.75h-3.5l-.66 3.68.73.04q.25-.3.575-.485.325-.185.745-.185.36 0 .655.12.295.12.505.335.21.215.325.51.115.295.115.645 0 .42-.12.735-.12.315-.325.525-.205.21-.48.315-.275.105-.575.105-.32 0-.585-.095-.265-.095-.46-.27-.195-.175-.31-.41-.115-.235-.135-.505h-.85q.01.48.19.86.18.38.49.635.31.255.715.39.405.135.865.135.62 0 1.085-.195.465-.195.775-.525.31-.33.465-.755.155-.425.155-.875 0-.61-.18-1.065-.18-.455-.49-.76-.31-.305-.73-.455-.42-.15-.89-.15-.36 0-.725.125-.365.125-.595.385l-.02-.02.38-2.04zm3.04 2.17v.72q.24-.03.51-.03.32 0 .595.085.275.085.475.26.2.175.32.43.12.255.12.585 0 .32-.125.575-.125.255-.335.43-.21.175-.49.27-.28.095-.59.095-.73 0-1.11-.435-.38-.435-.4-1.125h-.85q-.01.55.155.98.165.43.475.725.31.295.75.445.44.15.98.15.5 0 .945-.135.445-.135.775-.405.33-.27.525-.675.195-.405.195-.935 0-.64-.315-1.11-.315-.47-.965-.61v-.02q.42-.19.7-.56.28-.37.28-.85 0-.49-.165-.85-.165-.36-.455-.59-.29-.23-.685-.345-.395-.115-.855-.115-.53 0-.935.17-.405.17-.675.47-.27.3-.415.72-.145.42-.165.93h.85q0-.31.08-.59.08-.28.245-.49.165-.21.42-.335.255-.125.595-.125.54 0 .9.285.36.285.36.855 0 .28-.11.5-.11.22-.295.365-.185.145-.43.22-.245.075-.515.075h-.18q-.05 0-.1 0-.04 0-.09-.01zm7.61.97h-2.97q.02-.3.13-.565.11-.265.3-.465.19-.2.455-.315.265-.115.595-.115.32 0 .585.115.265.115.46.31.195.195.31.465.115.27.135.57zm.82 1.44h-.84q-.11.51-.455.76-.345.25-.885.25-.42 0-.73-.14-.31-.14-.51-.375-.2-.235-.29-.54-.09-.305-.08-.645h3.87q.02-.47-.085-.99-.105-.52-.38-.96-.275-.44-.73-.725-.455-.285-1.145-.285-.53 0-.975.2-.445.2-.77.56-.325.36-.505.85-.18.49-.18 1.08.02.59.175 1.09.155.5.465.86.31.36.765.56.455.2 1.075.2.88 0 1.46-.44.58-.44.75-1.31zm3.66-1.23v-2.19h-.68v2.19h-2.18v.68h2.18v2.19h.68v-2.19h2.18v-.68zm3.98-.62q0-.26.005-.575.005-.315.05-.63.045-.315.13-.615.085-.3.25-.525.165-.225.415-.365.25-.14.61-.14.36 0 .61.14.25.14.415.365.165.225.25.525.085.3.13.615.045.315.05.63.005.315.005.575 0 .4-.025.895-.025.495-.16.93-.135.435-.435.735-.3.3-.84.3-.54 0-.84-.3-.3-.3-.435-.735-.135-.435-.16-.93-.025-.495-.025-.895zm-.9.01q0 .39.02.81.02.42.1.82.08.4.23.755.15.355.41.625.26.27.655.425.395.155.945.155.56 0 .95-.155.39-.155.65-.425.26-.27.41-.625.15-.355.23-.755.08-.4.1-.82.02-.42.02-.81 0-.39-.02-.81-.02-.42-.1-.82-.08-.4-.23-.76-.15-.36-.41-.63-.26-.27-.655-.43-.395-.16-.945-.16-.55 0-.945.16-.395.16-.655.43-.26.27-.41.63-.15.36-.23.76-.08.4-.1.82-.02.42-.02.81zm8.53 1.07h-2.38l2.36-3.47h.02zm.8 0v-4.68h-.68l-3.23 4.61v.82h3.11v1.66h.8v-1.66h.96v-.75z" image-rendering="optimizeQuality" stroke="none" text-rendering="geometricPrecision" transform="translate(302.3111 175.5206)"/><path d="m229.3111 149.2872h60v-31.9999h-60z" style="stroke:none;fill:#ffe;text-rendering:optimizeSpeed;color-rendering:optimizeSpeed;image-rendering:optimizeSpeed;shape-rendering:crispEdges;color-interpolation:sRGB"/><path d="m229.3111 149.2872h60v-31.9999h-60z" style="fill:none;stroke-linecap:butt;text-rendering:geometricPrecision;color-rendering:optimizeQuality;image-rendering:optimizeQuality;stroke:#ccc;color-interpolation:linearRGB;stroke-width:.5"/><path color-interpolation="linearRGB" color-rendering="optimizeQuality" d="m2.48-19.67-2.48 3.67h1.06l1.98-2.95 1.92 2.95h1.16l-2.51-3.67 2.36-3.47h-1.06l-1.86 2.79-1.78-2.79h-1.14zm5.57-.39v-1.11h-1.11v1.11zm-1.11 2.95v1.11h1.11v-1.11zm6.91-2.94v.72q.24-.03.51-.03.32 0 .595.085.275.085.475.26.2.175.32.43.12.255.12.585 0 .32-.125.575-.125.255-.335.43-.21.175-.49.27-.28.095-.59.095-.73 0-1.11-.435-.38-.435-.4-1.125h-.85q-.01.55.155.98.165.43.475.725.31.295.75.445.44.15.98.15.5 0 .945-.135.445-.135.775-.405.33-.27.525-.675.195-.405.195-.935 0-.64-.315-1.11-.315-.47-.965-.61v-.02q.42-.19.7-.56.28-.37.28-.85 0-.49-.165-.85-.165-.36-.455-.59-.29-.23-.685-.345-.395-.115-.855-.115-.53 0-.935.17-.405.17-.675.47-.27.3-.415.72-.145.42-.165.93h.85q0-.31.08-.59.08-.28.245-.49.165-.21.42-.335.255-.125.595-.125.54 0 .9.285.36.285.36.855 0 .28-.11.5-.11.22-.295.365-.185.145-.43.22-.245.075-.515.075h-.18q-.05 0-.1 0-.04 0-.09-.01zm6.77 1.64h-2.38l2.36-3.47h.02zm.8 0v-4.68h-.68l-3.23 4.61v.82h3.11v1.66h.8v-1.66h.96v-.75z" image-rendering="optimizeQuality" stroke="none" text-rendering="geometricPrecision" transform="translate(232.3111 146.2872)"/><path color-interpolation="linearRGB" color-rendering="optimizeQuality" d="m3.73-5.92 2.73-4.22h-1.08l-2.09 3.4-2.14-3.4h-1.13l2.76 4.22v2.92h.95zm4.69-1.14v-1.11h-1.11v1.11zm-1.11 2.95v1.11h1.11v-1.11zm9.43-5.11v-.75h-3.5l-.66 3.68.73.04q.25-.3.575-.485.325-.185.745-.185.36 0 .655.12.295.12.505.335.21.215.325.51.115.295.115.645 0 .42-.12.735-.12.315-.325.525-.205.21-.48.315-.275.105-.575.105-.32 0-.585-.095-.265-.095-.46-.27-.195-.175-.31-.41-.115-.235-.135-.505h-.85q.01.48.19.86.18.38.49.635.31.255.715.39.405.135.865.135.62 0 1.085-.195.465-.195.775-.525.31-.33.465-.755.155-.425.155-.875 0-.61-.18-1.065-.18-.455-.49-.76-.31-.305-.73-.455-.42-.15-.89-.15-.36 0-.725.125-.365.125-.595.385l-.02-.02.38-2.04zm1.69 5.11v1.11h1.11v-1.11zm3.29-.6h-.85q.08.92.67 1.37.59.45 1.48.45 1.29 0 1.875-.985.585-.985.585-2.825 0-1.01-.195-1.665-.195-.655-.525-1.035-.33-.38-.77-.535-.44-.155-.94-.155-.51 0-.94.17-.43.17-.74.475-.31.305-.48.73-.17.425-.17.935 0 .52.145.96.145.44.43.75.285.31.705.485.42.175.96.175.52 0 .96-.265.44-.265.68-.715l.02.02q-.04 1.39-.43 2.065-.39.675-1.17.675-.51 0-.88-.28-.37-.28-.42-.8zm2.75-3.01q0 .31-.1.595-.1.285-.29.5-.19.215-.46.34-.27.125-.6.125-.31 0-.565-.125-.255-.125-.44-.335-.185-.21-.29-.48-.105-.27-.105-.56 0-.33.075-.63.075-.3.24-.535.165-.235.43-.375.265-.14.645-.14.36 0 .63.13.27.13.455.355.185.225.28.515.095.29.095.62zm3.02-.53q0-.27.1-.47.1-.2.265-.34.165-.14.395-.21.23-.07.48-.07.52 0 .855.275.335.275.335.815 0 .54-.33.84-.33.3-.84.3-.26 0-.49-.07-.23-.07-.4-.21-.17-.14-.27-.355-.1-.215-.1-.505zm-.9-.03q0 .48.27.885.27.405.72.585-.6.21-.92.675-.32.465-.32 1.095 0 .54.185.945.185.405.51.675.325.27.765.4.44.13.95.13.49 0 .92-.14.43-.14.745-.415.315-.275.5-.675.185-.4.185-.92 0-.66-.31-1.115-.31-.455-.95-.655.45-.2.715-.595.265-.395.265-.875 0-.34-.12-.665-.12-.325-.375-.58-.255-.255-.665-.41-.41-.155-.99-.155-.41 0-.785.12-.375.12-.665.35-.29.23-.46.565-.17.335-.17.775zm.65 3.28q0-.31.115-.56.115-.25.32-.43.205-.18.48-.275.275-.095.585-.095.3 0 .565.105.265.105.465.285.2.18.315.425.115.245.115.535 0 .3-.105.55-.105.25-.3.435-.195.185-.46.29-.265.105-.585.105-.66 0-1.085-.365-.425-.365-.425-1.005zm8.49-1.08h-2.97q.02-.3.13-.565.11-.265.3-.465.19-.2.455-.315.265-.115.595-.115.32 0 .585.115.265.115.46.31.195.195.31.465.115.27.135.57zm.82 1.44h-.84q-.11.51-.455.76-.345.25-.885.25-.42 0-.73-.14-.31-.14-.51-.375-.2-.235-.29-.54-.09-.305-.08-.645h3.87q.02-.47-.085-.99-.105-.52-.38-.96-.275-.44-.73-.725-.455-.285-1.145-.285-.53 0-.975.2-.445.2-.77.56-.325.36-.505.85-.18.49-.18 1.08.02.59.175 1.09.155.5.465.86.31.36.765.56.455.2 1.075.2.88 0 1.46-.44.58-.44.75-1.31zm3.66-1.23v-2.19h-.68v2.19h-2.18v.68h2.18v2.19h.68v-2.19h2.18v-.68zm3.98-.62q0-.26.005-.575.005-.315.05-.63.045-.315.13-.615.085-.3.25-.525.165-.225.415-.365.25-.14.61-.14.36 0 .61.14.25.14.415.365.165.225.25.525.085.3.13.615.045.315.05.63.005.315.005.575 0 .4-.025.895-.025.495-.16.93-.135.435-.435.735-.3.3-.84.3-.54 0-.84-.3-.3-.3-.435-.735-.135-.435-.16-.93-.025-.495-.025-.895zm-.9.01q0 .39.02.81.02.42.1.82.08.4.23.755.15.355.41.625.26.27.655.425.395.155.945.155.56 0 .95-.155.39-.155.65-.425.26-.27.41-.625.15-.355.23-.755.08-.4.1-.82.02-.42.02-.81 0-.39-.02-.81-.02-.42-.1-.82-.08-.4-.23-.76-.15-.36-.41-.63-.26-.27-.655-.43-.395-.16-.945-.16-.55 0-.945.16-.395.16-.655.43-.26.27-.41.63-.15.36-.23.76-.08.4-.1.82-.02.42-.02.81zm8.53 1.07h-2.38l2.36-3.47h.02zm.8 0v-4.68h-.68l-3.23 4.61v.82h3.11v1.66h.8v-1.66h.96v-.75z" image-rendering="optimizeQuality" stroke="none" text-rendering="geometricPrecision" transform="translate(232.3111 146.2872)"/><path d="m217.3166 210.1438h66.0001v-32h-66.0001z" style="stroke:none;fill:#ffe;text-rendering:optimizeSpeed;color-rendering:optimizeSpeed;image-rendering:optimizeSpeed;shape-rendering:crispEdges;color-interpolation:sRGB"/><path d="m217.3166 210.1438h66.0001v-32h-66.0001z" style="fill:none;stroke-linecap:butt;text-rendering:geometricPrecision;color-rendering:optimizeQuality;image-rendering:optimizeQuality;stroke:#ccc;color-interpolation:linearRGB;stroke-width:.5"/><path color-interpolation="linearRGB" color-rendering="optimizeQuality" d="m2.48-19.67-2.48 3.67h1.06l1.98-2.95 1.92 2.95h1.16l-2.51-3.67 2.36-3.47h-1.06l-1.86 2.79-1.78-2.79h-1.14zm5.57-.39v-1.11h-1.11v1.11zm-1.11 2.95v1.11h1.11v-1.11zm6.91-2.94v.72q.24-.03.51-.03.32 0 .595.085.275.085.475.26.2.175.32.43.12.255.12.585 0 .32-.125.575-.125.255-.335.43-.21.175-.49.27-.28.095-.59.095-.73 0-1.11-.435-.38-.435-.4-1.125h-.85q-.01.55.155.98.165.43.475.725.31.295.75.445.44.15.98.15.5 0 .945-.135.445-.135.775-.405.33-.27.525-.675.195-.405.195-.935 0-.64-.315-1.11-.315-.47-.965-.61v-.02q.42-.19.7-.56.28-.37.28-.85 0-.49-.165-.85-.165-.36-.455-.59-.29-.23-.685-.345-.395-.115-.855-.115-.53 0-.935.17-.405.17-.675.47-.27.3-.415.72-.145.42-.165.93h.85q0-.31.08-.59.08-.28.245-.49.165-.21.42-.335.255-.125.595-.125.54 0 .9.285.36.285.36.855 0 .28-.11.5-.11.22-.295.365-.185.145-.43.22-.245.075-.515.075h-.18q-.05 0-.1 0-.04 0-.09-.01zm5.56 0v.72q.24-.03.51-.03.32 0 .595.085.275.085.475.26.2.175.32.43.12.255.12.585 0 .32-.125.575-.125.255-.335.43-.21.175-.49.27-.28.095-.59.095-.73 0-1.11-.435-.38-.435-.4-1.125h-.85q-.01.55.155.98.165.43.475.725.31.295.75.445.44.15.98.15.5 0 .945-.135.445-.135.775-.405.33-.27.525-.675.195-.405.195-.935 0-.64-.315-1.11-.315-.47-.965-.61v-.02q.42-.19.7-.56.28-.37.28-.85 0-.49-.165-.85-.165-.36-.455-.59-.29-.23-.685-.345-.395-.115-.855-.115-.53 0-.935.17-.405.17-.675.47-.27.3-.415.72-.145.42-.165.93h.85q0-.31.08-.59.08-.28.245-.49.165-.21.42-.335.255-.125.595-.125.54 0 .9.285.36.285.36.855 0 .28-.11.5-.11.22-.295.365-.185.145-.43.22-.245.075-.515.075h-.18q-.05 0-.1 0-.04 0-.09-.01z" image-rendering="optimizeQuality" stroke="none" text-rendering="geometricPrecision" transform="translate(220.3166 207.1438)"/><path color-interpolation="linearRGB" color-rendering="optimizeQuality" d="m3.73-5.92 2.73-4.22h-1.08l-2.09 3.4-2.14-3.4h-1.13l2.76 4.22v2.92h.95zm4.69-1.14v-1.11h-1.11v1.11zm-1.11 2.95v1.11h1.11v-1.11zm8.12-1.3h-2.38l2.36-3.47h.02zm.8 0v-4.68h-.68l-3.23 4.61v.82h3.11v1.66h.8v-1.66h.96v-.75zm2.2 1.3v1.11h1.11v-1.11zm5.34-1.3h-2.38l2.36-3.47h.02zm.8 0v-4.68h-.68l-3.23 4.61v.82h3.11v1.66h.8v-1.66h.96v-.75zm5.51-2.87h.85q-.08-.88-.6-1.345-.52-.465-1.4-.465-.76 0-1.26.32-.5.32-.8.85-.3.53-.425 1.215-.125.685-.125 1.415 0 .56.085 1.16.085.6.345 1.1.26.5.74.82.48.32 1.27.32.67 0 1.125-.225.455-.225.73-.57.275-.345.395-.765.12-.42.12-.81 0-.49-.15-.91-.15-.42-.425-.73-.275-.31-.68-.485-.405-.175-.915-.175-.58 0-1.025.22-.445.22-.745.71l-.02-.02q.01-.41.08-.88.07-.47.255-.875.185-.405.515-.67.33-.265.87-.265.51 0 .82.29.31.29.37.77zm-1.28 1.47q.36 0 .63.13.27.13.45.345.18.215.265.51.085.295.085.625 0 .31-.095.595-.095.285-.275.505-.18.22-.445.345-.265.125-.615.125-.35 0-.625-.125-.275-.125-.46-.335-.185-.21-.285-.5-.1-.29-.1-.62 0-.33.095-.625.095-.295.285-.51.19-.215.46-.34.27-.125.63-.125zm7.4-2.41v-.75h-3.5l-.66 3.68.73.04q.25-.3.575-.485.325-.185.745-.185.36 0 .655.12.295.12.505.335.21.215.325.51.115.295.115.645 0 .42-.12.735-.12.315-.325.525-.205.21-.48.315-.275.105-.575.105-.32 0-.585-.095-.265-.095-.46-.27-.195-.175-.31-.41-.115-.235-.135-.505h-.85q.01.48.19.86.18.38.49.635.31.255.715.39.405.135.865.135.62 0 1.085-.195.465-.195.775-.525.31-.33.465-.755.155-.425.155-.875 0-.61-.18-1.065-.18-.455-.49-.76-.31-.305-.73-.455-.42-.15-.89-.15-.36 0-.725.125-.365.125-.595.385l-.02-.02.38-2.04zm5.09 3.14h-2.97q.02-.3.13-.565.11-.265.3-.465.19-.2.455-.315.265-.115.595-.115.32 0 .585.115.265.115.46.31.195.195.31.465.115.27.135.57zm.82 1.44h-.84q-.11.51-.455.76-.345.25-.885.25-.42 0-.73-.14-.31-.14-.51-.375-.2-.235-.29-.54-.09-.305-.08-.645h3.87q.02-.47-.085-.99-.105-.52-.38-.96-.275-.44-.73-.725-.455-.285-1.145-.285-.53 0-.975.2-.445.2-.77.56-.325.36-.505.85-.18.49-.18 1.08.02.59.175 1.09.155.5.465.86.31.36.765.56.455.2 1.075.2.88 0 1.46-.44.58-.44.75-1.31zm3.66-1.23v-2.19h-.68v2.19h-2.18v.68h2.18v2.19h.68v-2.19h2.18v-.68zm3.98-.62q0-.26.005-.575.005-.315.05-.63.045-.315.13-.615.085-.3.25-.525.165-.225.415-.365.25-.14.61-.14.36 0 .61.14.25.14.415.365.165.225.25.525.085.3.13.615.045.315.05.63.005.315.005.575 0 .4-.025.895-.025.495-.16.93-.135.435-.435.735-.3.3-.84.3-.54 0-.84-.3-.3-.3-.435-.735-.135-.435-.16-.93-.025-.495-.025-.895zm-.9.01q0 .39.02.81.02.42.1.82.08.4.23.755.15.355.41.625.26.27.655.425.395.155.945.155.56 0 .95-.155.39-.155.65-.425.26-.27.41-.625.15-.355.23-.755.08-.4.1-.82.02-.42.02-.81 0-.39-.02-.81-.02-.42-.1-.82-.08-.4-.23-.76-.15-.36-.41-.63-.26-.27-.655-.43-.395-.16-.945-.16-.55 0-.945.16-.395.16-.655.43-.26.27-.41.63-.15.36-.23.76-.08.4-.1.82-.02.42-.02.81zm8.53 1.07h-2.38l2.36-3.47h.02zm.8 0v-4.68h-.68l-3.23 4.61v.82h3.11v1.66h.8v-1.66h.96v-.75z" image-rendering="optimizeQuality" stroke="none" text-rendering="geometricPrecision" transform="translate(220.3166 207.1438)"/><path d="m-4-4v8h8v-8z" style="stroke:none;fill-opacity:.3922;text-rendering:geometricPrecision;color-rendering:optimizeQuality;image-rendering:optimizeQuality;color-interpolation:linearRGB" transform="translate(288.3167 238.6533)"/><path d="m-4-4v8h8v-8z" style="fill:none;stroke-linecap:butt;text-rendering:geometricPrecision;color-rendering:optimizeQuality;image-rendering:optimizeQuality;stroke:#ffffdc;color-interpolation:linearRGB;stroke-opacity:.3922" transform="translate(288.3167 238.6533)"/><path d="m-4-4v8h8v-8z" style="stroke:none;fill-opacity:.3922;text-rendering:geometricPrecision;color-rendering:optimizeQuality;image-rendering:optimizeQuality;color-interpolation:linearRGB" transform="translate(294.3111 183.5206)"/><path d="m-4-4v8h8v-8z" style="fill:none;stroke-linecap:butt;text-rendering:geometricPrecision;color-rendering:optimizeQuality;image-rendering:optimizeQuality;stroke:#ffffdc;color-interpolation:linearRGB;stroke-opacity:.3922" transform="translate(294.3111 183.5206)"/><path d="m-4-4v8h8v-8z" style="stroke:none;fill-opacity:.3922;text-rendering:geometricPrecision;color-rendering:optimizeQuality;image-rendering:optimizeQuality;color-interpolation:linearRGB" transform="translate(294.3111 154.2872)"/><path d="m-4-4v8h8v-8z" style="fill:none;stroke-linecap:butt;text-rendering:geometricPrecision;color-rendering:optimizeQuality;image-rendering:optimizeQuality;stroke:#ffffdc;color-interpolation:linearRGB;stroke-opacity:.3922" transform="translate(294.3111 154.2872)"/><path d="m-4-4v8h8v-8z" style="stroke:none;fill-opacity:.3922;text-rendering:geometricPrecision;color-rendering:optimizeQuality;image-rendering:optimizeQuality;color-interpolation:linearRGB" transform="translate(288.3167 215.1438)"/><path d="m-4-4v8h8v-8z" style="fill:none;stroke-linecap:butt;text-rendering:geometricPrecision;color-rendering:optimizeQuality;image-rendering:optimizeQuality;stroke:#ffffdc;color-interpolation:linearRGB;stroke-opacity:.3922" transform="translate(288.3167 215.1438)"/></svg>