<svg color-interpolation="auto" height="459" stroke="#000" stroke-linecap="square" stroke-miterlimit="10" width="692" xmlns="http://www.w3.org/2000/svg" xmlns:xlink="http://www.w3.org/1999/xlink"><clipPath id="a"><path color-interpolation="auto" d="m0 0h692v459h-692z"/></clipPath><path clip-path="url(#a)" d="m0 0h692v459h-692z" fill="#fff" stroke="none"/><g style="fill:#fff;text-rendering:optimizeSpeed;color-rendering:optimizeSpeed;image-rendering:optimizeSpeed;shape-rendering:crispEdges;color-interpolation:sRGB;stroke:none"><path d="m0 0h692v459h-692z"/><path d="m90 408.5h536.5v-374h-536.5z"/></g><g color-interpolation="linearRGB" color-rendering="optimizeQuality" image-rendering="optimizeQuality" text-rendering="geometricPrecision"><g style="stroke-linecap:butt;fill-opacity:.149;stroke-linejoin:round;stroke:#262626;stroke-width:.5;stroke-opacity:.149;fill:none"><path d="m90 408.5v-374"/><path d="m143.65 408.5v-374"/><path d="m197.3 408.5v-374"/><path d="m250.95 408.5v-374"/><path d="m304.6 408.5v-374"/><path d="m358.25 408.5v-374"/><path d="m411.9 408.5v-374"/><path d="m465.55 408.5v-374"/><path d="m519.2 408.5v-374"/><path d="m572.85 408.5v-374"/><path d="m626.5 408.5v-374"/><path d="m626.5 408.5h-536.5"/><path d="m626.5 355.0714h-536.5"/><path d="m626.5 301.6429h-536.5"/><path d="m626.5 248.2143h-536.5"/><path d="m626.5 194.7857h-536.5"/><path d="m626.5 141.3571h-536.5"/><path d="m626.5 87.9286h-536.5"/><path d="m626.5 34.5h-536.5"/><g stroke-linecap="square" stroke-opacity="1"><path d="m90 408.5h536.5"/><path d="m90 34.5h536.5"/><path d="m90 408.5v-5.365"/><path d="m143.65 408.5v-5.365"/><path d="m197.3 408.5v-5.365"/><path d="m250.95 408.5v-5.365"/><path d="m304.6 408.5v-5.365"/><path d="m358.25 408.5v-5.365"/><path d="m411.9 408.5v-5.365"/><path d="m465.55 408.5v-5.365"/><path d="m519.2 408.5v-5.365"/><path d="m572.85 408.5v-5.365"/><path d="m626.5 408.5v-5.365"/><path d="m90 34.5v5.365"/><path d="m143.65 34.5v5.365"/><path d="m197.3 34.5v5.365"/><path d="m250.95 34.5v5.365"/><path d="m304.6 34.5v5.365"/><path d="m358.25 34.5v5.365"/><path d="m411.9 34.5v5.365"/><path d="m465.55 34.5v5.365"/><path d="m519.2 34.5v5.365"/><path d="m572.85 34.5v5.365"/><path d="m626.5 34.5v5.365"/></g></g><path d="m-1.68 6.51q0-.26.005-.575.005-.315.05-.63.045-.315.13-.615.085-.3.25-.525.165-.225.415-.365.25-.14.61-.14.36 0 .61.14.25.14.415.365.165.225.25.525.085.3.13.615.045.315.05.63.005.315.005.575 0 .4-.025.895-.025.495-.16.93-.135.435-.435.735-.3.3-.84.3-.54 0-.84-.3-.3-.3-.435-.735-.135-.435-.16-.93-.025-.495-.025-.895zm-.9.01q0 .39.02.81.02.42.1.82.08.4.23.755.15.355.41.625.26.27.655.425.395.155.945.155.56 0 .95-.155.39-.155.65-.425.26-.27.41-.625.15-.355.23-.755.08-.4.1-.82.02-.42.02-.81 0-.39-.02-.81-.02-.42-.1-.82-.08-.4-.23-.76-.15-.36-.41-.63-.26-.27-.655-.43-.395-.16-.945-.16-.55 0-.945.16-.395.16-.655.43-.26.27-.41.63-.15.36-.23.76-.08.4-.1.82-.02.42-.02.81z" fill="#262626" stroke="none" transform="translate(90 412.5)"/><path d="m-2.44 10v-7.09h-.65q-.07.4-.26.66-.19.26-.465.41-.275.15-.615.205-.34.055-.7.055v.68h1.84v5.08zm3.32-3.49q0-.26.005-.575.005-.315.05-.63.045-.315.13-.615.085-.3.25-.525.165-.225.415-.365.25-.14.61-.14.36 0 .61.14.25.14.415.365.165.225.25.525.085.3.13.615.045.315.05.63.005.315.005.575 0 .4-.025.895-.025.495-.16.93-.135.435-.435.735-.3.3-.84.3-.54 0-.84-.3-.3-.3-.435-.735-.135-.435-.16-.93-.025-.495-.025-.895zm-.9.01q0 .39.02.81.02.42.1.82.08.4.23.755.15.355.41.625.26.27.655.425.395.155.945.155.56 0 .95-.155.39-.155.65-.425.26-.27.41-.625.15-.355.23-.755.08-.4.1-.82.02-.42.02-.81 0-.39-.02-.81-.02-.42-.1-.82-.08-.4-.23-.76-.15-.36-.41-.63-.26-.27-.655-.43-.395-.16-.945-.16-.55 0-.945.16-.395.16-.655.43-.26.27-.41.63-.15.36-.23.76-.08.4-.1.82-.02.42-.02.81z" fill="#262626" stroke="none" transform="translate(143.65 412.5)"/><path d="m-5.56 5.42h.85q-.01-.32.065-.635.075-.315.245-.565.17-.25.435-.405.265-.155.635-.155.28 0 .53.09.25.09.435.26.185.17.295.405.11.235.11.525 0 .37-.115.65-.115.28-.34.52-.225.24-.565.475-.34.235-.79.515-.37.22-.71.47-.34.25-.61.58-.27.33-.445.775-.175.445-.225 1.075h4.63v-.75h-3.64q.06-.33.255-.585.195-.255.47-.475.275-.22.605-.415.33-.195.66-.395.33-.21.64-.44.31-.23.55-.515.24-.285.385-.645.145-.36.145-.83 0-.5-.175-.88-.175-.38-.475-.635-.3-.255-.705-.39-.405-.135-.865-.135-.56 0-1 .19-.44.19-.735.525-.295.335-.435.795-.14.46-.11 1zm6.44 1.09q0-.26.005-.575.005-.315.05-.63.045-.315.13-.615.085-.3.25-.525.165-.225.415-.365.25-.14.61-.14.36 0 .61.14.25.14.415.365.165.225.25.525.085.3.13.615.045.315.05.63.005.315.005.575 0 .4-.025.895-.025.495-.16.93-.135.435-.435.735-.3.3-.84.3-.54 0-.84-.3-.3-.3-.435-.735-.135-.435-.16-.93-.025-.495-.025-.895zm-.9.01q0 .39.02.81.02.42.1.82.08.4.23.755.15.355.41.625.26.27.655.425.395.155.945.155.56 0 .95-.155.39-.155.65-.425.26-.27.41-.625.15-.355.23-.755.08-.4.1-.82.02-.42.02-.81 0-.39-.02-.81-.02-.42-.1-.82-.08-.4-.23-.76-.15-.36-.41-.63-.26-.27-.655-.43-.395-.16-.945-.16-.55 0-.945.16-.395.16-.655.43-.26.27-.41.63-.15.36-.23.76-.08.4-.1.82-.02.42-.02.81z" fill="#262626" stroke="none" transform="translate(197.3 412.5)"/><path d="m-3.82 5.95v.72q.24-.03.51-.03.32 0 .595.085.275.085.475.26.2.175.32.43.12.255.12.585 0 .32-.125.575-.125.255-.335.43-.21.175-.49.27-.28.095-.59.095-.73 0-1.11-.435-.38-.435-.4-1.125h-.85q-.01.55.155.98.165.43.475.725.31.295.75.445.44.15.98.15.5 0 .945-.135.445-.135.775-.405.33-.27.525-.675.195-.405.195-.935 0-.64-.315-1.11-.315-.47-.965-.61v-.02q.42-.19.7-.56.28-.37.28-.85 0-.49-.165-.85-.165-.36-.455-.59-.29-.23-.685-.345-.395-.115-.855-.115-.53 0-.935.17-.405.17-.675.47-.27.3-.415.72-.145.42-.165.93h.85q0-.31.08-.59.08-.28.245-.49.165-.21.42-.335.255-.125.595-.125.54 0 .9.285.36.285.36.855 0 .28-.11.5-.11.22-.295.365-.185.145-.43.22-.245.075-.515.075h-.18q-.05 0-.1 0-.04 0-.09-.01zm4.7.56q0-.26.005-.575.005-.315.05-.63.045-.315.13-.615.085-.3.25-.525.165-.225.415-.365.25-.14.61-.14.36 0 .61.14.25.14.415.365.165.225.25.525.085.3.13.615.045.315.05.63.005.315.005.575 0 .4-.025.895-.025.495-.16.93-.135.435-.435.735-.3.3-.84.3-.54 0-.84-.3-.3-.3-.435-.735-.135-.435-.16-.93-.025-.495-.025-.895zm-.9.01q0 .39.02.81.02.42.1.82.08.4.23.755.15.355.41.625.26.27.655.425.395.155.945.155.56 0 .95-.155.39-.155.65-.425.26-.27.41-.625.15-.355.23-.755.08-.4.1-.82.02-.42.02-.81 0-.39-.02-.81-.02-.42-.1-.82-.08-.4-.23-.76-.15-.36-.41-.63-.26-.27-.655-.43-.395-.16-.945-.16-.55 0-.945.16-.395.16-.655.43-.26.27-.41.63-.15.36-.23.76-.08.4-.1.82-.02.42-.02.81z" fill="#262626" stroke="none" transform="translate(250.95 412.5)"/><path d="m-2.61 7.59h-2.38l2.36-3.47h.02zm.8 0v-4.68h-.68l-3.23 4.61v.82h3.11v1.66h.8v-1.66h.96v-.75zm2.69-1.08q0-.26.005-.575.005-.315.05-.63.045-.315.13-.615.085-.3.25-.525.165-.225.415-.365.25-.14.61-.14.36 0 .61.14.25.14.415.365.165.225.25.525.085.3.13.615.045.315.05.63.005.315.005.575 0 .4-.025.895-.025.495-.16.93-.135.435-.435.735-.3.3-.84.3-.54 0-.84-.3-.3-.3-.435-.735-.135-.435-.16-.93-.025-.495-.025-.895zm-.9.01q0 .39.02.81.02.42.1.82.08.4.23.755.15.355.41.625.26.27.655.425.395.155.945.155.56 0 .95-.155.39-.155.65-.425.26-.27.41-.625.15-.355.23-.755.08-.4.1-.82.02-.42.02-.81 0-.39-.02-.81-.02-.42-.1-.82-.08-.4-.23-.76-.15-.36-.41-.63-.26-.27-.655-.43-.395-.16-.945-.16-.55 0-.945.16-.395.16-.655.43-.26.27-.41.63-.15.36-.23.76-.08.4-.1.82-.02.42-.02.81z" fill="#262626" stroke="none" transform="translate(304.6 412.5)"/><path d="m-1.3 3.78v-.75h-3.5l-.66 3.68.73.04q.25-.3.575-.485.325-.185.745-.185.36 0 .655.12.295.12.505.335.21.215.325.51.115.295.115.645 0 .42-.12.735-.12.315-.325.525-.205.21-.48.315-.275.105-.575.105-.32 0-.585-.095-.265-.095-.46-.27-.195-.175-.31-.41-.115-.235-.135-.505h-.85q.01.48.19.86.18.38.49.635.31.255.715.39.405.135.865.135.62 0 1.085-.195.465-.195.775-.525.31-.33.465-.755.155-.425.155-.875 0-.61-.18-1.065-.18-.455-.49-.76-.31-.305-.73-.455-.42-.15-.89-.15-.36 0-.725.125-.365.125-.595.385l-.02-.02.38-2.04zm2.18 2.73q0-.26.005-.575.005-.315.05-.63.045-.315.13-.615.085-.3.25-.525.165-.225.415-.365.25-.14.61-.14.36 0 .61.14.25.14.415.365.165.225.25.525.085.3.13.615.045.315.05.63.005.315.005.575 0 .4-.025.895-.025.495-.16.93-.135.435-.435.735-.3.3-.84.3-.54 0-.84-.3-.3-.3-.435-.735-.135-.435-.16-.93-.025-.495-.025-.895zm-.9.01q0 .39.02.81.02.42.1.82.08.4.23.755.15.355.41.625.26.27.655.425.395.155.945.155.56 0 .95-.155.39-.155.65-.425.26-.27.41-.625.15-.355.23-.755.08-.4.1-.82.02-.42.02-.81 0-.39-.02-.81-.02-.42-.1-.82-.08-.4-.23-.76-.15-.36-.41-.63-.26-.27-.655-.43-.395-.16-.945-.16-.55 0-.945.16-.395.16-.655.43-.26.27-.41.63-.15.36-.23.76-.08.4-.1.82-.02.42-.02.81z" fill="#262626" stroke="none" transform="translate(358.25 412.5)"/><path d="m-1.86 4.72h.85q-.08-.88-.6-1.345-.52-.465-1.4-.465-.76 0-1.26.32-.5.32-.8.85-.3.53-.425 1.215-.125.685-.125 1.415 0 .56.085 1.16.085.6.345 1.1.26.5.74.82.48.32 1.27.32.67 0 1.125-.225.455-.225.73-.57.275-.345.395-.765.12-.42.12-.81 0-.49-.15-.91-.15-.42-.425-.73-.275-.31-.68-.485-.405-.175-.915-.175-.58 0-1.025.22-.445.22-.745.71l-.02-.02q.01-.41.08-.88.07-.47.255-.875.185-.405.515-.67.33-.265.87-.265.51 0 .82.29.31.29.37.77zm-1.28 1.47q.36 0 .63.13.27.13.45.345.18.215.265.51.085.295.085.625 0 .31-.095.595-.095.285-.275.505-.18.22-.445.345-.265.125-.615.125-.35 0-.625-.125-.275-.125-.46-.335-.185-.21-.285-.5-.1-.29-.1-.62 0-.33.095-.625.095-.295.285-.51.19-.215.46-.34.27-.125.63-.125zm4.02.32q0-.26.005-.575.005-.315.05-.63.045-.315.13-.615.085-.3.25-.525.165-.225.415-.365.25-.14.61-.14.36 0 .61.14.25.14.415.365.165.225.25.525.085.3.13.615.045.315.05.63.005.315.005.575 0 .4-.025.895-.025.495-.16.93-.135.435-.435.735-.3.3-.84.3-.54 0-.84-.3-.3-.3-.435-.735-.135-.435-.16-.93-.025-.495-.025-.895zm-.9.01q0 .39.02.81.02.42.1.82.08.4.23.755.15.355.41.625.26.27.655.425.395.155.945.155.56 0 .95-.155.39-.155.65-.425.26-.27.41-.625.15-.355.23-.755.08-.4.1-.82.02-.42.02-.81 0-.39-.02-.81-.02-.42-.1-.82-.08-.4-.23-.76-.15-.36-.41-.63-.26-.27-.655-.43-.395-.16-.945-.16-.55 0-.945.16-.395.16-.655.43-.26.27-.41.63-.15.36-.23.76-.08.4-.1.82-.02.42-.02.81z" fill="#262626" stroke="none" transform="translate(411.9 412.5)"/><path d="m-.91 3.76v-.73h-4.59v.8h3.72q-.56.59-1.045 1.29-.485.7-.855 1.485-.37.785-.605 1.64-.235.855-.295 1.755h.95q.05-.83.28-1.71.23-.88.595-1.71.365-.83.835-1.56.47-.73 1.01-1.26zm1.79 2.75q0-.26.005-.575.005-.315.05-.63.045-.315.13-.615.085-.3.25-.525.165-.225.415-.365.25-.14.61-.14.36 0 .61.14.25.14.415.365.165.225.25.525.085.3.13.615.045.315.05.63.005.315.005.575 0 .4-.025.895-.025.495-.16.93-.135.435-.435.735-.3.3-.84.3-.54 0-.84-.3-.3-.3-.435-.735-.135-.435-.16-.93-.025-.495-.025-.895zm-.9.01q0 .39.02.81.02.42.1.82.08.4.23.755.15.355.41.625.26.27.655.425.395.155.945.155.56 0 .95-.155.39-.155.65-.425.26-.27.41-.625.15-.355.23-.755.08-.4.1-.82.02-.42.02-.81 0-.39-.02-.81-.02-.42-.1-.82-.08-.4-.23-.76-.15-.36-.41-.63-.26-.27-.655-.43-.395-.16-.945-.16-.55 0-.945.16-.395.16-.655.43-.26.27-.41.63-.15.36-.23.76-.08.4-.1.82-.02.42-.02.81z" fill="#262626" stroke="none" transform="translate(465.55 412.5)"/><path d="m-4.45 4.75q0-.27.1-.47.1-.2.265-.34.165-.14.395-.21.23-.07.48-.07.52 0 .855.275.335.275.335.815 0 .54-.33.84-.33.3-.84.3-.26 0-.49-.07-.23-.07-.4-.21-.17-.14-.27-.355-.1-.215-.1-.505zm-.9-.03q0 .48.27.885.27.405.72.585-.6.21-.92.675-.32.465-.32 1.095 0 .54.185.945.185.405.51.675.325.27.765.4.44.13.95.13.49 0 .92-.14.43-.14.745-.415.315-.275.5-.675.185-.4.185-.92 0-.66-.31-1.115-.31-.455-.95-.655.45-.2.715-.595.265-.395.265-.875 0-.34-.12-.665-.12-.325-.375-.58-.255-.255-.665-.41-.41-.155-.99-.155-.41 0-.785.12-.375.12-.665.35-.29.23-.46.565-.17.335-.17.775zm.65 3.28q0-.31.115-.56.115-.25.32-.43.205-.18.48-.275.275-.095.585-.095.3 0 .565.105.265.105.465.285.2.18.315.425.115.245.115.535 0 .3-.105.55-.105.25-.3.435-.195.185-.46.29-.265.105-.585.105-.66 0-1.085-.365-.425-.365-.425-1.005zm5.58-1.49q0-.26.005-.575.005-.315.05-.63.045-.315.13-.615.085-.3.25-.525.165-.225.415-.365.25-.14.61-.14.36 0 .61.14.25.14.415.365.165.225.25.525.085.3.13.615.045.315.05.63.005.315.005.575 0 .4-.025.895-.025.495-.16.93-.135.435-.435.735-.3.3-.84.3-.54 0-.84-.3-.3-.3-.435-.735-.135-.435-.16-.93-.025-.495-.025-.895zm-.9.01q0 .39.02.81.02.42.1.82.08.4.23.755.15.355.41.625.26.27.655.425.395.155.945.155.56 0 .95-.155.39-.155.65-.425.26-.27.41-.625.15-.355.23-.755.08-.4.1-.82.02-.42.02-.81 0-.39-.02-.81-.02-.42-.1-.82-.08-.4-.23-.76-.15-.36-.41-.63-.26-.27-.655-.43-.395-.16-.945-.16-.55 0-.945.16-.395.16-.655.43-.26.27-.41.63-.15.36-.23.76-.08.4-.1.82-.02.42-.02.81z" fill="#262626" stroke="none" transform="translate(519.2 412.5)"/><path d="m-4.66 8.29h-.85q.08.92.67 1.37.59.45 1.48.45 1.29 0 1.875-.985.585-.985.585-2.825 0-1.01-.195-1.665-.195-.655-.525-1.035-.33-.38-.77-.535-.44-.155-.94-.155-.51 0-.94.17-.43.17-.74.475-.31.305-.48.73-.17.425-.17.935 0 .52.145.96.145.44.43.75.285.31.705.485.42.175.96.175.52 0 .96-.265.44-.265.68-.715l.02.02q-.04 1.39-.43 2.065-.39.675-1.17.675-.51 0-.88-.28-.37-.28-.42-.8zm2.75-3.01q0 .31-.1.595-.1.285-.29.5-.19.215-.46.34-.27.125-.6.125-.31 0-.565-.125-.255-.125-.44-.335-.185-.21-.29-.48-.105-.27-.105-.56 0-.33.075-.63.075-.3.24-.535.165-.235.43-.375.265-.14.645-.14.36 0 .63.13.27.13.455.355.185.225.28.515.095.29.095.62zm2.79 1.23q0-.26.005-.575.005-.315.05-.63.045-.315.13-.615.085-.3.25-.525.165-.225.415-.365.25-.14.61-.14.36 0 .61.14.25.14.415.365.165.225.25.525.085.3.13.615.045.315.05.63.005.315.005.575 0 .4-.025.895-.025.495-.16.93-.135.435-.435.735-.3.3-.84.3-.54 0-.84-.3-.3-.3-.435-.735-.135-.435-.16-.93-.025-.495-.025-.895zm-.9.01q0 .39.02.81.02.42.1.82.08.4.23.755.15.355.41.625.26.27.655.425.395.155.945.155.56 0 .95-.155.39-.155.65-.425.26-.27.41-.625.15-.355.23-.755.08-.4.1-.82.02-.42.02-.81 0-.39-.02-.81-.02-.42-.1-.82-.08-.4-.23-.76-.15-.36-.41-.63-.26-.27-.655-.43-.395-.16-.945-.16-.55 0-.945.16-.395.16-.655.43-.26.27-.41.63-.15.36-.23.76-.08.4-.1.82-.02.42-.02.81z" fill="#262626" stroke="none" transform="translate(572.85 412.5)"/><path d="m-4.94 10v-7.09h-.65q-.07.4-.26.66-.19.26-.465.41-.275.15-.615.205-.34.055-.7.055v.68h1.84v5.08zm3.32-3.49q0-.26.005-.575.005-.315.05-.63.045-.315.13-.615.085-.3.25-.525.165-.225.415-.365.25-.14.61-.14.36 0 .61.14.25.14.415.365.165.225.25.525.085.3.13.615.045.315.05.63.005.315.005.575 0 .4-.025.895-.025.495-.16.93-.135.435-.435.735-.3.3-.84.3-.54 0-.84-.3-.3-.3-.435-.735-.135-.435-.16-.93-.025-.495-.025-.895zm-.9.01q0 .39.02.81.02.42.1.82.08.4.23.755.15.355.41.625.26.27.655.425.395.155.945.155.56 0 .95-.155.39-.155.65-.425.26-.27.41-.625.15-.355.23-.755.08-.4.1-.82.02-.42.02-.81 0-.39-.02-.81-.02-.42-.1-.82-.08-.4-.23-.76-.15-.36-.41-.63-.26-.27-.655-.43-.395-.16-.945-.16-.55 0-.945.16-.395.16-.655.43-.26.27-.41.63-.15.36-.23.76-.08.4-.1.82-.02.42-.02.81zm6.46-.01q0-.26.005-.575.005-.315.05-.63.045-.315.13-.615.085-.3.25-.525.165-.225.415-.365.25-.14.61-.14.36 0 .61.14.25.14.415.365.165.225.25.525.085.3.13.615.045.315.05.63.005.315.005.575 0 .4-.025.895-.025.495-.16.93-.135.435-.435.735-.3.3-.84.3-.54 0-.84-.3-.3-.3-.435-.735-.135-.435-.16-.93-.025-.495-.025-.895zm-.9.01q0 .39.02.81.02.42.1.82.08.4.23.755.15.355.41.625.26.27.655.425.395.155.945.155.56 0 .95-.155.39-.155.65-.425.26-.27.41-.625.15-.355.23-.755.08-.4.1-.82.02-.42.02-.81 0-.39-.02-.81-.02-.42-.1-.82-.08-.4-.23-.76-.15-.36-.41-.63-.26-.27-.655-.43-.395-.16-.945-.16-.55 0-.945.16-.395.16-.655.43-.26.27-.41.63-.15.36-.23.76-.08.4-.1.82-.02.42-.02.81z" fill="#262626" stroke="none" transform="translate(626.5 412.5)"/><path d="m-4.631 5.907v.759h3.828c-.187.726-.418 1.331-.704 1.815-.693 1.166-1.859 2.167-3.498 3.003l.495.649c1.76-.935 3.003-2.057 3.751-3.355.286-.506.517-1.144.704-1.892.781 2.266 2.299 4.015 4.565 5.247l.495-.638c-2.156-1.122-3.619-2.739-4.389-4.829h4.048v-.759h-4.51c.132-.748.22-1.584.286-2.53h3.905v-.77h-8.69v.77h3.982c-.055.935-.143 1.782-.275 2.53z" fill="#262626" stroke="none" transform="translate(358.2502 426)"/><g fill="none" stroke="#262626" stroke-linejoin="round" stroke-width=".5"><path d="m90 408.5v-374"/><path d="m626.5 408.5v-374"/><path d="m90 408.5h5.365"/><path d="m90 355.0714h5.365"/><path d="m90 301.6429h5.365"/><path d="m90 248.2143h5.365"/><path d="m90 194.7857h5.365"/><path d="m90 141.3571h5.365"/><path d="m90 87.9286h5.365"/><path d="m90 34.5h5.365"/><path d="m626.5 408.5h-5.365"/><path d="m626.5 355.0714h-5.365"/><path d="m626.5 301.6429h-5.365"/><path d="m626.5 248.2143h-5.365"/><path d="m626.5 194.7857h-5.365"/><path d="m626.5 141.3571h-5.365"/><path d="m626.5 87.9286h-5.365"/><path d="m626.5 34.5h-5.365"/></g><path d="m-4.68.01q0-.26.005-.575.005-.315.05-.63.045-.315.13-.615.085-.3.25-.525.165-.225.415-.365.25-.14.61-.14.36 0 .61.14.25.14.415.365.165.225.25.525.085.3.13.615.045.315.05.63.005.315.005.575 0 .4-.025.895-.025.495-.16.93-.135.435-.435.735-.3.3-.84.3-.54 0-.84-.3-.3-.3-.435-.735-.135-.435-.16-.93-.025-.495-.025-.895zm-.9.01q0 .39.02.81.02.42.1.82.08.4.23.755.15.355.41.625.26.27.655.425.395.155.945.155.56 0 .95-.155.39-.155.65-.425.26-.27.41-.625.15-.355.23-.755.08-.4.1-.82.02-.42.02-.81 0-.39-.02-.81-.02-.42-.1-.82-.08-.4-.23-.76-.15-.36-.41-.63-.26-.27-.655-.43-.395-.16-.945-.16-.55 0-.945.16-.395.16-.655.43-.26.27-.41.63-.15.36-.23.76-.08.4-.1.82-.02.42-.02.81z" fill="#262626" stroke="none" transform="translate(86 408.5)"/><path d="m-19.44 3.5v-7.09h-.65q-.07.4-.26.66-.19.26-.465.41-.275.15-.615.205-.34.055-.7.055v.68h1.84v5.08zm3.32-3.49q0-.26.005-.575.005-.315.05-.63.045-.315.13-.615.085-.3.25-.525.165-.225.415-.365.25-.14.61-.14.36 0 .61.14.25.14.415.365.165.225.25.525.085.3.13.615.045.315.05.63.005.315.005.575 0 .4-.025.895-.025.495-.16.93-.135.435-.435.735-.3.3-.84.3-.54 0-.84-.3-.3-.3-.435-.735-.135-.435-.16-.93-.025-.495-.025-.895zm-.9.01q0 .39.02.81.02.42.1.82.08.4.23.755.15.355.41.625.26.27.655.425.395.155.945.155.56 0 .95-.155.39-.155.65-.425.26-.27.41-.625.15-.355.23-.755.08-.4.1-.82.02-.42.02-.81 0-.39-.02-.81-.02-.42-.1-.82-.08-.4-.23-.76-.15-.36-.41-.63-.26-.27-.655-.43-.395-.16-.945-.16-.55 0-.945.16-.395.16-.655.43-.26.27-.41.63-.15.36-.23.76-.08.4-.1.82-.02.42-.02.81zm6.46-.01q0-.26.005-.575.005-.315.05-.63.045-.315.13-.615.085-.3.25-.525.165-.225.415-.365.25-.14.61-.14.36 0 .61.14.25.14.415.365.165.225.25.525.085.3.13.615.045.315.05.63.005.315.005.575 0 .4-.025.895-.025.495-.16.93-.135.435-.435.735-.3.3-.84.3-.54 0-.84-.3-.3-.3-.435-.735-.135-.435-.16-.93-.025-.495-.025-.895zm-.9.01q0 .39.02.81.02.42.1.82.08.4.23.755.15.355.41.625.26.27.655.425.395.155.945.155.56 0 .95-.155.39-.155.65-.425.26-.27.41-.625.15-.355.23-.755.08-.4.1-.82.02-.42.02-.81 0-.39-.02-.81-.02-.42-.1-.82-.08-.4-.23-.76-.15-.36-.41-.63-.26-.27-.655-.43-.395-.16-.945-.16-.55 0-.945.16-.395.16-.655.43-.26.27-.41.63-.15.36-.23.76-.08.4-.1.82-.02.42-.02.81zm6.46-.01q0-.26.005-.575.005-.315.05-.63.045-.315.13-.615.085-.3.25-.525.165-.225.415-.365.25-.14.61-.14.36 0 .61.14.25.14.415.365.165.225.25.525.085.3.13.615.045.315.05.63.005.315.005.575 0 .4-.025.895-.025.495-.16.93-.135.435-.435.735-.3.3-.84.3-.54 0-.84-.3-.3-.3-.435-.735-.135-.435-.16-.93-.025-.495-.025-.895zm-.9.01q0 .39.02.81.02.42.1.82.08.4.23.755.15.355.41.625.26.27.655.425.395.155.945.155.56 0 .95-.155.39-.155.65-.425.26-.27.41-.625.15-.355.23-.755.08-.4.1-.82.02-.42.02-.81 0-.39-.02-.81-.02-.42-.1-.82-.08-.4-.23-.76-.15-.36-.41-.63-.26-.27-.655-.43-.395-.16-.945-.16-.55 0-.945.16-.395.16-.655.43-.26.27-.41.63-.15.36-.23.76-.08.4-.1.82-.02.42-.02.81z" fill="#262626" stroke="none" transform="translate(86 355.0714)"/><path d="m-22.56-1.08h.85q-.01-.32.065-.635.075-.315.245-.565.17-.25.435-.405.265-.155.635-.155.28 0 .53.09.25.09.435.26.185.17.295.405.11.235.11.525 0 .37-.115.65-.115.28-.34.52-.225.24-.565.475-.34.235-.79.515-.37.22-.71.47-.34.25-.61.58-.27.33-.445.775-.175.445-.225 1.075h4.63v-.75h-3.64q.06-.33.255-.585.195-.255.47-.475.275-.22.605-.415.33-.195.66-.395.33-.21.64-.44.31-.23.55-.515.24-.285.385-.645.145-.36.145-.83 0-.5-.175-.88-.175-.38-.475-.635-.3-.255-.705-.39-.405-.135-.865-.135-.56 0-1 .19-.44.19-.735.525-.295.335-.435.795-.14.46-.11 1zm6.44 1.09q0-.26.005-.575.005-.315.05-.63.045-.315.13-.615.085-.3.25-.525.165-.225.415-.365.25-.14.61-.14.36 0 .61.14.25.14.415.365.165.225.25.525.085.3.13.615.045.315.05.63.005.315.005.575 0 .4-.025.895-.025.495-.16.93-.135.435-.435.735-.3.3-.84.3-.54 0-.84-.3-.3-.3-.435-.735-.135-.435-.16-.93-.025-.495-.025-.895zm-.9.01q0 .39.02.81.02.42.1.82.08.4.23.755.15.355.41.625.26.27.655.425.395.155.945.155.56 0 .95-.155.39-.155.65-.425.26-.27.41-.625.15-.355.23-.755.08-.4.1-.82.02-.42.02-.81 0-.39-.02-.81-.02-.42-.1-.82-.08-.4-.23-.76-.15-.36-.41-.63-.26-.27-.655-.43-.395-.16-.945-.16-.55 0-.945.16-.395.16-.655.43-.26.27-.41.63-.15.36-.23.76-.08.4-.1.82-.02.42-.02.81zm6.46-.01q0-.26.005-.575.005-.315.05-.63.045-.315.13-.615.085-.3.25-.525.165-.225.415-.365.25-.14.61-.14.36 0 .61.14.25.14.415.365.165.225.25.525.085.3.13.615.045.315.05.63.005.315.005.575 0 .4-.025.895-.025.495-.16.93-.135.435-.435.735-.3.3-.84.3-.54 0-.84-.3-.3-.3-.435-.735-.135-.435-.16-.93-.025-.495-.025-.895zm-.9.01q0 .39.02.81.02.42.1.82.08.4.23.755.15.355.41.625.26.27.655.425.395.155.945.155.56 0 .95-.155.39-.155.65-.425.26-.27.41-.625.15-.355.23-.755.08-.4.1-.82.02-.42.02-.81 0-.39-.02-.81-.02-.42-.1-.82-.08-.4-.23-.76-.15-.36-.41-.63-.26-.27-.655-.43-.395-.16-.945-.16-.55 0-.945.16-.395.16-.655.43-.26.27-.41.63-.15.36-.23.76-.08.4-.1.82-.02.42-.02.81zm6.46-.01q0-.26.005-.575.005-.315.05-.63.045-.315.13-.615.085-.3.25-.525.165-.225.415-.365.25-.14.61-.14.36 0 .61.14.25.14.415.365.165.225.25.525.085.3.13.615.045.315.05.63.005.315.005.575 0 .4-.025.895-.025.495-.16.93-.135.435-.435.735-.3.3-.84.3-.54 0-.84-.3-.3-.3-.435-.735-.135-.435-.16-.93-.025-.495-.025-.895zm-.9.01q0 .39.02.81.02.42.1.82.08.4.23.755.15.355.41.625.26.27.655.425.395.155.945.155.56 0 .95-.155.39-.155.65-.425.26-.27.41-.625.15-.355.23-.755.08-.4.1-.82.02-.42.02-.81 0-.39-.02-.81-.02-.42-.1-.82-.08-.4-.23-.76-.15-.36-.41-.63-.26-.27-.655-.43-.395-.16-.945-.16-.55 0-.945.16-.395.16-.655.43-.26.27-.41.63-.15.36-.23.76-.08.4-.1.82-.02.42-.02.81z" fill="#262626" stroke="none" transform="translate(86 301.6429)"/><path d="m-20.82-.55v.72q.24-.03.51-.03.32 0 .595.085.275.085.475.26.2.175.32.43.12.255.12.585 0 .32-.125.575-.125.255-.335.43-.21.175-.49.27-.28.095-.59.095-.73 0-1.11-.435-.38-.435-.4-1.125h-.85q-.01.55.155.98.165.43.475.725.31.295.75.445.44.15.98.15.5 0 .945-.135.445-.135.775-.405.33-.27.525-.675.195-.405.195-.935 0-.64-.315-1.11-.315-.47-.965-.61v-.02q.42-.19.7-.56.28-.37.28-.85 0-.49-.165-.85-.165-.36-.455-.59-.29-.23-.685-.345-.395-.115-.855-.115-.53 0-.935.17-.405.17-.675.47-.27.3-.415.72-.145.42-.165.93h.85q0-.31.08-.59.08-.28.245-.49.165-.21.42-.335.255-.125.595-.125.54 0 .9.285.36.285.36.855 0 .28-.11.5-.11.22-.295.365-.185.145-.43.22-.245.075-.515.075h-.18q-.05 0-.1 0-.04 0-.09-.01zm4.7.56q0-.26.005-.575.005-.315.05-.63.045-.315.13-.615.085-.3.25-.525.165-.225.415-.365.25-.14.61-.14.36 0 .61.14.25.14.415.365.165.225.25.525.085.3.13.615.045.315.05.63.005.315.005.575 0 .4-.025.895-.025.495-.16.93-.135.435-.435.735-.3.3-.84.3-.54 0-.84-.3-.3-.3-.435-.735-.135-.435-.16-.93-.025-.495-.025-.895zm-.9.01q0 .39.02.81.02.42.1.82.08.4.23.755.15.355.41.625.26.27.655.425.395.155.945.155.56 0 .95-.155.39-.155.65-.425.26-.27.41-.625.15-.355.23-.755.08-.4.1-.82.02-.42.02-.81 0-.39-.02-.81-.02-.42-.1-.82-.08-.4-.23-.76-.15-.36-.41-.63-.26-.27-.655-.43-.395-.16-.945-.16-.55 0-.945.16-.395.16-.655.43-.26.27-.41.63-.15.36-.23.76-.08.4-.1.82-.02.42-.02.81zm6.46-.01q0-.26.005-.575.005-.315.05-.63.045-.315.13-.615.085-.3.25-.525.165-.225.415-.365.25-.14.61-.14.36 0 .61.14.25.14.415.365.165.225.25.525.085.3.13.615.045.315.05.63.005.315.005.575 0 .4-.025.895-.025.495-.16.93-.135.435-.435.735-.3.3-.84.3-.54 0-.84-.3-.3-.3-.435-.735-.135-.435-.16-.93-.025-.495-.025-.895zm-.9.01q0 .39.02.81.02.42.1.82.08.4.23.755.15.355.41.625.26.27.655.425.395.155.945.155.56 0 .95-.155.39-.155.65-.425.26-.27.41-.625.15-.355.23-.755.08-.4.1-.82.02-.42.02-.81 0-.39-.02-.81-.02-.42-.1-.82-.08-.4-.23-.76-.15-.36-.41-.63-.26-.27-.655-.43-.395-.16-.945-.16-.55 0-.945.16-.395.16-.655.43-.26.27-.41.63-.15.36-.23.76-.08.4-.1.82-.02.42-.02.81zm6.46-.01q0-.26.005-.575.005-.315.05-.63.045-.315.13-.615.085-.3.25-.525.165-.225.415-.365.25-.14.61-.14.36 0 .61.14.25.14.415.365.165.225.25.525.085.3.13.615.045.315.05.63.005.315.005.575 0 .4-.025.895-.025.495-.16.93-.135.435-.435.735-.3.3-.84.3-.54 0-.84-.3-.3-.3-.435-.735-.135-.435-.16-.93-.025-.495-.025-.895zm-.9.01q0 .39.02.81.02.42.1.82.08.4.23.755.15.355.41.625.26.27.655.425.395.155.945.155.56 0 .95-.155.39-.155.65-.425.26-.27.41-.625.15-.355.23-.755.08-.4.1-.82.02-.42.02-.81 0-.39-.02-.81-.02-.42-.1-.82-.08-.4-.23-.76-.15-.36-.41-.63-.26-.27-.655-.43-.395-.16-.945-.16-.55 0-.945.16-.395.16-.655.43-.26.27-.41.63-.15.36-.23.76-.08.4-.1.82-.02.42-.02.81z" fill="#262626" stroke="none" transform="translate(86 248.2143)"/><path d="m-19.61 1.09h-2.38l2.36-3.47h.02zm.8 0v-4.68h-.68l-3.23 4.61v.82h3.11v1.66h.8v-1.66h.96v-.75zm2.69-1.08q0-.26.005-.575.005-.315.05-.63.045-.315.13-.615.085-.3.25-.525.165-.225.415-.365.25-.14.61-.14.36 0 .61.14.25.14.415.365.165.225.25.525.085.3.13.615.045.315.05.63.005.315.005.575 0 .4-.025.895-.025.495-.16.93-.135.435-.435.735-.3.3-.84.3-.54 0-.84-.3-.3-.3-.435-.735-.135-.435-.16-.93-.025-.495-.025-.895zm-.9.01q0 .39.02.81.02.42.1.82.08.4.23.755.15.355.41.625.26.27.655.425.395.155.945.155.56 0 .95-.155.39-.155.65-.425.26-.27.41-.625.15-.355.23-.755.08-.4.1-.82.02-.42.02-.81 0-.39-.02-.81-.02-.42-.1-.82-.08-.4-.23-.76-.15-.36-.41-.63-.26-.27-.655-.43-.395-.16-.945-.16-.55 0-.945.16-.395.16-.655.43-.26.27-.41.63-.15.36-.23.76-.08.4-.1.82-.02.42-.02.81zm6.46-.01q0-.26.005-.575.005-.315.05-.63.045-.315.13-.615.085-.3.25-.525.165-.225.415-.365.25-.14.61-.14.36 0 .61.14.25.14.415.365.165.225.25.525.085.3.13.615.045.315.05.63.005.315.005.575 0 .4-.025.895-.025.495-.16.93-.135.435-.435.735-.3.3-.84.3-.54 0-.84-.3-.3-.3-.435-.735-.135-.435-.16-.93-.025-.495-.025-.895zm-.9.01q0 .39.02.81.02.42.1.82.08.4.23.755.15.355.41.625.26.27.655.425.395.155.945.155.56 0 .95-.155.39-.155.65-.425.26-.27.41-.625.15-.355.23-.755.08-.4.1-.82.02-.42.02-.81 0-.39-.02-.81-.02-.42-.1-.82-.08-.4-.23-.76-.15-.36-.41-.63-.26-.27-.655-.43-.395-.16-.945-.16-.55 0-.945.16-.395.16-.655.43-.26.27-.41.63-.15.36-.23.76-.08.4-.1.82-.02.42-.02.81zm6.46-.01q0-.26.005-.575.005-.315.05-.63.045-.315.13-.615.085-.3.25-.525.165-.225.415-.365.25-.14.61-.14.36 0 .61.14.25.14.415.365.165.225.25.525.085.3.13.615.045.315.05.63.005.315.005.575 0 .4-.025.895-.025.495-.16.93-.135.435-.435.735-.3.3-.84.3-.54 0-.84-.3-.3-.3-.435-.735-.135-.435-.16-.93-.025-.495-.025-.895zm-.9.01q0 .39.02.81.02.42.1.82.08.4.23.755.15.355.41.625.26.27.655.425.395.155.945.155.56 0 .95-.155.39-.155.65-.425.26-.27.41-.625.15-.355.23-.755.08-.4.1-.82.02-.42.02-.81 0-.39-.02-.81-.02-.42-.1-.82-.08-.4-.23-.76-.15-.36-.41-.63-.26-.27-.655-.43-.395-.16-.945-.16-.55 0-.945.16-.395.16-.655.43-.26.27-.41.63-.15.36-.23.76-.08.4-.1.82-.02.42-.02.81z" fill="#262626" stroke="none" transform="translate(86 194.7857)"/><path d="m-18.3-2.72v-.75h-3.5l-.66 3.68.73.04q.25-.3.575-.485.325-.185.745-.185.36 0 .655.12.295.12.505.335.21.215.325.51.115.295.115.645 0 .42-.12.735-.12.315-.325.525-.205.21-.48.315-.275.105-.575.105-.32 0-.585-.095-.265-.095-.46-.27-.195-.175-.31-.41-.115-.235-.135-.505h-.85q.01.48.19.86.18.38.49.635.31.255.715.39.405.135.865.135.62 0 1.085-.195.465-.195.775-.525.31-.33.465-.755.155-.425.155-.875 0-.61-.18-1.065-.18-.455-.49-.76-.31-.305-.73-.455-.42-.15-.89-.15-.36 0-.725.125-.365.125-.595.385l-.02-.02.38-2.04zm2.18 2.73q0-.26.005-.575.005-.315.05-.63.045-.315.13-.615.085-.3.25-.525.165-.225.415-.365.25-.14.61-.14.36 0 .61.14.25.14.415.365.165.225.25.525.085.3.13.615.045.315.05.63.005.315.005.575 0 .4-.025.895-.025.495-.16.93-.135.435-.435.735-.3.3-.84.3-.54 0-.84-.3-.3-.3-.435-.735-.135-.435-.16-.93-.025-.495-.025-.895zm-.9.01q0 .39.02.81.02.42.1.82.08.4.23.755.15.355.41.625.26.27.655.425.395.155.945.155.56 0 .95-.155.39-.155.65-.425.26-.27.41-.625.15-.355.23-.755.08-.4.1-.82.02-.42.02-.81 0-.39-.02-.81-.02-.42-.1-.82-.08-.4-.23-.76-.15-.36-.41-.63-.26-.27-.655-.43-.395-.16-.945-.16-.55 0-.945.16-.395.16-.655.43-.26.27-.41.63-.15.36-.23.76-.08.4-.1.82-.02.42-.02.81zm6.46-.01q0-.26.005-.575.005-.315.05-.63.045-.315.13-.615.085-.3.25-.525.165-.225.415-.365.25-.14.61-.14.36 0 .61.14.25.14.415.365.165.225.25.525.085.3.13.615.045.315.05.63.005.315.005.575 0 .4-.025.895-.025.495-.16.93-.135.435-.435.735-.3.3-.84.3-.54 0-.84-.3-.3-.3-.435-.735-.135-.435-.16-.93-.025-.495-.025-.895zm-.9.01q0 .39.02.81.02.42.1.82.08.4.23.755.15.355.41.625.26.27.655.425.395.155.945.155.56 0 .95-.155.39-.155.65-.425.26-.27.41-.625.15-.355.23-.755.08-.4.1-.82.02-.42.02-.81 0-.39-.02-.81-.02-.42-.1-.82-.08-.4-.23-.76-.15-.36-.41-.63-.26-.27-.655-.43-.395-.16-.945-.16-.55 0-.945.16-.395.16-.655.43-.26.27-.41.63-.15.36-.23.76-.08.4-.1.82-.02.42-.02.81zm6.46-.01q0-.26.005-.575.005-.315.05-.63.045-.315.13-.615.085-.3.25-.525.165-.225.415-.365.25-.14.61-.14.36 0 .61.14.25.14.415.365.165.225.25.525.085.3.13.615.045.315.05.63.005.315.005.575 0 .4-.025.895-.025.495-.16.93-.135.435-.435.735-.3.3-.84.3-.54 0-.84-.3-.3-.3-.435-.735-.135-.435-.16-.93-.025-.495-.025-.895zm-.9.01q0 .39.02.81.02.42.1.82.08.4.23.755.15.355.41.625.26.27.655.425.395.155.945.155.56 0 .95-.155.39-.155.65-.425.26-.27.41-.625.15-.355.23-.755.08-.4.1-.82.02-.42.02-.81 0-.39-.02-.81-.02-.42-.1-.82-.08-.4-.23-.76-.15-.36-.41-.63-.26-.27-.655-.43-.395-.16-.945-.16-.55 0-.945.16-.395.16-.655.43-.26.27-.41.63-.15.36-.23.76-.08.4-.1.82-.02.42-.02.81z" fill="#262626" stroke="none" transform="translate(86 141.3571)"/><path d="m-18.86-1.78h.85q-.08-.88-.6-1.345-.52-.465-1.4-.465-.76 0-1.26.32-.5.32-.8.85-.3.53-.425 1.215-.125.685-.125 1.415 0 .56.085 1.16.085.6.345 1.1.26.5.74.82.48.32 1.27.32.67 0 1.125-.225.455-.225.73-.57.275-.345.395-.765.12-.42.12-.81 0-.49-.15-.91-.15-.42-.425-.73-.275-.31-.68-.485-.405-.175-.915-.175-.58 0-1.025.22-.445.22-.745.71l-.02-.02q.01-.41.08-.88.07-.47.255-.875.185-.405.515-.67.33-.265.87-.265.51 0 .82.29.31.29.37.77zm-1.28 1.47q.36 0 .63.13.27.13.45.345.18.215.265.51.085.295.085.625 0 .31-.095.595-.095.285-.275.505-.18.22-.445.345-.265.125-.615.125-.35 0-.625-.125-.275-.125-.46-.335-.185-.21-.285-.5-.1-.29-.1-.62 0-.33.095-.625.095-.295.285-.51.19-.215.46-.34.27-.125.63-.125zm4.02.32q0-.26.005-.575.005-.315.05-.63.045-.315.13-.615.085-.3.25-.525.165-.225.415-.365.25-.14.61-.14.36 0 .61.14.25.14.415.365.165.225.25.525.085.3.13.615.045.315.05.63.005.315.005.575 0 .4-.025.895-.025.495-.16.93-.135.435-.435.735-.3.3-.84.3-.54 0-.84-.3-.3-.3-.435-.735-.135-.435-.16-.93-.025-.495-.025-.895zm-.9.01q0 .39.02.81.02.42.1.82.08.4.23.755.15.355.41.625.26.27.655.425.395.155.945.155.56 0 .95-.155.39-.155.65-.425.26-.27.41-.625.15-.355.23-.755.08-.4.1-.82.02-.42.02-.81 0-.39-.02-.81-.02-.42-.1-.82-.08-.4-.23-.76-.15-.36-.41-.63-.26-.27-.655-.43-.395-.16-.945-.16-.55 0-.945.16-.395.16-.655.43-.26.27-.41.63-.15.36-.23.76-.08.4-.1.82-.02.42-.02.81zm6.46-.01q0-.26.005-.575.005-.315.05-.63.045-.315.13-.615.085-.3.25-.525.165-.225.415-.365.25-.14.61-.14.36 0 .61.14.25.14.415.365.165.225.25.525.085.3.13.615.045.315.05.63.005.315.005.575 0 .4-.025.895-.025.495-.16.93-.135.435-.435.735-.3.3-.84.3-.54 0-.84-.3-.3-.3-.435-.735-.135-.435-.16-.93-.025-.495-.025-.895zm-.9.01q0 .39.02.81.02.42.1.82.08.4.23.755.15.355.41.625.26.27.655.425.395.155.945.155.56 0 .95-.155.39-.155.65-.425.26-.27.41-.625.15-.355.23-.755.08-.4.1-.82.02-.42.02-.81 0-.39-.02-.81-.02-.42-.1-.82-.08-.4-.23-.76-.15-.36-.41-.63-.26-.27-.655-.43-.395-.16-.945-.16-.55 0-.945.16-.395.16-.655.43-.26.27-.41.63-.15.36-.23.76-.08.4-.1.82-.02.42-.02.81zm6.46-.01q0-.26.005-.575.005-.315.05-.63.045-.315.13-.615.085-.3.25-.525.165-.225.415-.365.25-.14.61-.14.36 0 .61.14.25.14.415.365.165.225.25.525.085.3.13.615.045.315.05.63.005.315.005.575 0 .4-.025.895-.025.495-.16.93-.135.435-.435.735-.3.3-.84.3-.54 0-.84-.3-.3-.3-.435-.735-.135-.435-.16-.93-.025-.495-.025-.895zm-.9.01q0 .39.02.81.02.42.1.82.08.4.23.755.15.355.41.625.26.27.655.425.395.155.945.155.56 0 .95-.155.39-.155.65-.425.26-.27.41-.625.15-.355.23-.755.08-.4.1-.82.02-.42.02-.81 0-.39-.02-.81-.02-.42-.1-.82-.08-.4-.23-.76-.15-.36-.41-.63-.26-.27-.655-.43-.395-.16-.945-.16-.55 0-.945.16-.395.16-.655.43-.26.27-.41.63-.15.36-.23.76-.08.4-.1.82-.02.42-.02.81z" fill="#262626" stroke="none" transform="translate(86 87.9286)"/><path d="m-17.91-2.74v-.73h-4.59v.8h3.72q-.56.59-1.045 1.29-.485.7-.855 1.485-.37.785-.605 1.64-.235.855-.295 1.755h.95q.05-.83.28-1.71.23-.88.595-1.71.365-.83.835-1.56.47-.73 1.01-1.26zm1.79 2.75q0-.26.005-.575.005-.315.05-.63.045-.315.13-.615.085-.3.25-.525.165-.225.415-.365.25-.14.61-.14.36 0 .61.14.25.14.415.365.165.225.25.525.085.3.13.615.045.315.05.63.005.315.005.575 0 .4-.025.895-.025.495-.16.93-.135.435-.435.735-.3.3-.84.3-.54 0-.84-.3-.3-.3-.435-.735-.135-.435-.16-.93-.025-.495-.025-.895zm-.9.01q0 .39.02.81.02.42.1.82.08.4.23.755.15.355.41.625.26.27.655.425.395.155.945.155.56 0 .95-.155.39-.155.65-.425.26-.27.41-.625.15-.355.23-.755.08-.4.1-.82.02-.42.02-.81 0-.39-.02-.81-.02-.42-.1-.82-.08-.4-.23-.76-.15-.36-.41-.63-.26-.27-.655-.43-.395-.16-.945-.16-.55 0-.945.16-.395.16-.655.43-.26.27-.41.63-.15.36-.23.76-.08.4-.1.82-.02.42-.02.81zm6.46-.01q0-.26.005-.575.005-.315.05-.63.045-.315.13-.615.085-.3.25-.525.165-.225.415-.365.25-.14.61-.14.36 0 .61.14.25.14.415.365.165.225.25.525.085.3.13.615.045.315.05.63.005.315.005.575 0 .4-.025.895-.025.495-.16.93-.135.435-.435.735-.3.3-.84.3-.54 0-.84-.3-.3-.3-.435-.735-.135-.435-.16-.93-.025-.495-.025-.895zm-.9.01q0 .39.02.81.02.42.1.82.08.4.23.755.15.355.41.625.26.27.655.425.395.155.945.155.56 0 .95-.155.39-.155.65-.425.26-.27.41-.625.15-.355.23-.755.08-.4.1-.82.02-.42.02-.81 0-.39-.02-.81-.02-.42-.1-.82-.08-.4-.23-.76-.15-.36-.41-.63-.26-.27-.655-.43-.395-.16-.945-.16-.55 0-.945.16-.395.16-.655.43-.26.27-.41.63-.15.36-.23.76-.08.4-.1.82-.02.42-.02.81zm6.46-.01q0-.26.005-.575.005-.315.05-.63.045-.315.13-.615.085-.3.25-.525.165-.225.415-.365.25-.14.61-.14.36 0 .61.14.25.14.415.365.165.225.25.525.085.3.13.615.045.315.05.63.005.315.005.575 0 .4-.025.895-.025.495-.16.93-.135.435-.435.735-.3.3-.84.3-.54 0-.84-.3-.3-.3-.435-.735-.135-.435-.16-.93-.025-.495-.025-.895zm-.9.01q0 .39.02.81.02.42.1.82.08.4.23.755.15.355.41.625.26.27.655.425.395.155.945.155.56 0 .95-.155.39-.155.65-.425.26-.27.41-.625.15-.355.23-.755.08-.4.1-.82.02-.42.02-.81 0-.39-.02-.81-.02-.42-.1-.82-.08-.4-.23-.76-.15-.36-.41-.63-.26-.27-.655-.43-.395-.16-.945-.16-.55 0-.945.16-.395.16-.655.43-.26.27-.41.63-.15.36-.23.76-.08.4-.1.82-.02.42-.02.81z" fill="#262626" stroke="none" transform="translate(86 34.5)"/><path d="m-5.104-11.965h-.803c0 .418-.011 1.001-.022 1.749-.099 3.168-1.661 5.687-4.686 7.546l.484.704c2.442-1.573 4.004-3.553 4.664-5.951.781 2.486 2.299 4.466 4.543 5.94l.517-.693c-2.563-1.573-4.158-3.861-4.774-6.853.044-.682.077-1.496.077-2.442zm12.342 2.42h1.628c-.044 1.485-.275 2.783-.704 3.894-.44-.924-.792-2.035-1.067-3.322zm.561 4.686c-.506.935-1.177 1.694-2.035 2.288l.407.66c.825-.594 1.507-1.331 2.035-2.211.55.924 1.21 1.672 1.98 2.222l.429-.649c-.792-.539-1.463-1.298-2.035-2.288.616-1.298.957-2.871 1.012-4.708h.715v-.759h-2.904c.088-.484.176-1.012.242-1.573l-.77-.132c-.22 2.09-.66 3.751-1.309 4.983l.495.605c.231-.396.451-.847.649-1.353.297 1.1.66 2.068 1.089 2.915zm-5.214-2.013c-.077.22-.165.451-.264.693h-1.606v.693h1.298c-.22.44-.473.891-.759 1.375.539.198 1.045.407 1.529.616-.638.363-1.419.66-2.321.902l.374.66c1.1-.308 2.013-.715 2.739-1.221.649.286 1.21.583 1.694.869l.429-.616c-.484-.264-.99-.506-1.518-.748.572-.528.979-1.155 1.221-1.881v-.649h-2.299c.066-.198.143-.396.22-.605zm.869 2.915c-.396-.165-.814-.319-1.254-.473.22-.33.418-.682.594-1.056h1.892c-.264.572-.682 1.089-1.232 1.529zm-1.87-7.821-.627.209c.264.418.506.891.737 1.43l.572-.264c-.198-.484-.418-.946-.682-1.375zm3.344-.033c-.198.462-.484.924-.836 1.397l.561.286c.352-.462.627-.935.847-1.419zm-4.191 1.936v.693h1.562c-.33.605-.924 1.155-1.771 1.65l.385.638c.946-.638 1.606-1.386 1.969-2.255v2.09h.737v-1.43c.396.264.869.616 1.419 1.056l.407-.616c-.616-.374-1.232-.715-1.826-1.012v-.121h2.002v-.693h-2.002v-2.101h-.737v2.101z" fill="#262626" stroke="none" transform="matrix(0 -1 1 0 60.5 221.4998)"/><g fill="none" stroke="#0072bd" stroke-linecap="butt" stroke-linejoin="round" stroke-width=".5"><path d="m95.365 408.5 5.365-.0409 5.365-.0327 5.365-.0288 5.365-.028 5.365-.0292 5.365-.0321 5.365-.0362 5.365-.0418 5.365-.0485 5.365-.0568 5.365-.0666 5.365-.0782 5.365-.092 5.365-.108 5.365-.1272 5.365-.1496 5.365-.176 5.365-.2071 5.365-.2437 5.365-.2867 5.365-.3372 5.365-.3969 5.365-.4669 5.365-.5494 5.365-.6464 5.365-.7605 5.365-.8949 5.365-1.0528 5.365-1.2388 5.365-1.4575 5.365-1.7149 5.365-2.0176 5.365-2.374 5.365-2.7931 5.365-3.2863 5.365-3.8666 5.365-4.5494 5.365-5.3526 5.365-6.2977 5.365-7.4095 5.365-8.7178 5.365-10.2569 5.365-12.0677 5.365-14.1981 5.365-16.7044 5.365-19.6529 5.365-23.1218 5.365-27.2025 5.365-32.003 5.365 20.1734 5.365 17.9519 5.365 16.0031 5.365 14.2916 5.365 12.7864 5.365 11.4606 5.365 10.2914 5.365 9.2585 5.365 8.3448 5.365 7.5351 5.365 6.8164 5.365 6.1774 5.365 5.6083 5.365 5.1004 5.365 4.6465 5.365 4.2399 5.365 3.8753 5.365 3.5474 5.365 3.2523 5.365 2.9859 5.365 2.7453 5.365 2.5273 5.365 2.3297 5.365 2.15 5.365 1.9865 5.365 1.8374 5.365 1.7012 5.365 1.5768 5.365 1.4626 5.365 1.3579 5.365 1.2618 5.365 1.1733 5.365 1.0917 5.365 1.0166 5.365.9472 5.365.8829 5.365.8236 5.365.7685 5.365.7175 5.365.6702 5.365.6262 5.365.5853 5.365.5473 5.365.5119 5.365.4789 5.365.4482 5.365.4195 5.365.3928 5.365.3679 5.365.3445"/><path d="m95.365 408.4466 5.365.0053 5.365.0007 5.365-.0026 5.365-.0052 5.365-.0075 5.365-.0097 5.365-.012 5.365-.0143 5.365-.0171 5.365-.0202 5.365-.024 5.365-.0281 5.365-.0332 5.365-.039 5.365-.046 5.365-.0541 5.365-.0636 5.365-.0749 5.365-.088 5.365-.1037 5.365-.1219 5.365-.1435 5.365-.1688 5.365-.1987 5.365-.2337 5.365-.275 5.365-.3235 5.365-.3806 5.365-.4479 5.365-.527 5.365-.62 5.365-.7295 5.365-.8583 5.365-1.0099 5.365-1.1882 5.365-1.3981 5.365-1.6448 5.365-1.9354 5.365-2.277 5.365-2.6791 5.365-3.1522 5.365-3.7087 5.365-4.3636 5.365-5.1339 5.365-6.0404 5.365-7.1068 5.365-8.3613 5.365-9.8375 5.365-11.5739 5.365-13.6168 5.365-10.2378 5.365-7.4189 5.365-5.0766 5.365-3.1399 5.365-1.5472 5.365-.2464 5.365.8074 5.365 1.6524 5.365 2.3218 5.365 2.843 5.365 3.2404 5.365 3.5341 5.365 3.7415 5.365 3.8774 5.365 3.9543 5.365 3.9828 5.365 3.9721 5.365 3.9297 5.365 3.8619 5.365 3.7743 5.365 3.6714 5.365 3.557 5.365 3.4342 5.365 3.3059 5.365 3.1738 5.365 3.0403 5.365 2.9064 5.365 2.7733 5.365 2.6424 5.365 2.5138 5.365 2.3887 5.365 2.2671 5.365 2.1496 5.365 2.0363 5.365 1.9274 5.365 1.8229 5.365 1.723 5.365 1.6276 5.365 1.5365 5.365 1.4499 5.365 1.3676 5.365 1.2893 5.365 1.2151 5.365 1.1448 5.365 1.0782 5.365 1.0152 5.365.9556 5.365.8994 5.365.8462" stroke="#d95319"/><path d="m95.365 408.5 5.365-.0053 5.365-.0049 5.365-.0047 5.365-.005 5.365-.0055 5.365-.0063 5.365-.0072 5.365-.0085 5.365-.0099 5.365-.0115 5.365-.0136 5.365-.016 5.365-.0188 5.365-.0222 5.365-.026 5.365-.0306 5.365-.0361 5.365-.0424 5.365-.0498 5.365-.0588 5.365-.069 5.365-.0813 5.365-.0956 5.365-.1125 5.365-.1323 5.365-.1557 5.365-.1832 5.365-.2156 5.365-.2536 5.365-.2984 5.365-.3512 5.365-.4131 5.365-.4861 5.365-.5719 5.365-.6728 5.365-.7918 5.365-.9315 5.365-1.096 5.365-1.2895 5.365-1.5172 5.365-1.7852 5.365-2.1004 5.365-2.4712 5.365-2.9076 5.365-3.421 5.365-4.025 5.365-4.7357 5.365-5.5719 5.365-6.5556 5.365-7.7129 5.365-9.0747 5.365-10.0985 5.365-10.8403 5.365-11.348 5.365-11.6619 5.365-11.8168 5.365-11.8413 5.365-11.7606 5.365-11.5954 5.365-11.3631 5.365-11.0789 5.365-10.7549 5.365-10.4014 5.365-10.0273 5.365-9.6395 5.365-9.2441 5.365-8.8459 5.365-8.4486 5.365-8.0556 5.365-7.6695 5.365-7.292 5.365-6.9249 5.365-6.5692 5.365-6.2258 5.365-5.8952 5.365-5.5778 5.365-5.2737 5.365-4.9832 5.365-4.7058 5.365-4.4415 5.365-4.1902 5.365-3.9513 5.365-3.7246 5.365-3.5096 5.365-3.3061 5.365-3.1132 5.365-2.931 5.365-2.7587 5.365-2.5959 5.365-2.4423 5.365-2.2973 5.365-2.1605 5.365-2.0316 5.365-1.91 5.365-1.7957 5.365-1.6877 5.365-1.5863 5.365-1.4907 5.365-1.4008" stroke="#edb120"/></g></g><path d="m616.5 82.5v-38h-68v38z" style="stroke:none;fill:#fff;text-rendering:optimizeSpeed;color-rendering:optimizeSpeed;image-rendering:optimizeSpeed;shape-rendering:crispEdges;color-interpolation:sRGB"/><path color-interpolation="linearRGB" color-rendering="optimizeQuality" d="m1.782.917c-.324 1.062-.711 2.088-1.161 3.096l.594.261c.414-.981.792-2.025 1.134-3.132zm-.639-4.653-.459.441c.549.432.981.837 1.305 1.224l.459-.468c-.351-.396-.783-.801-1.305-1.197zm-.225 2.16-.459.45c.594.468 1.053.918 1.395 1.341l.459-.468c-.378-.441-.837-.882-1.395-1.323zm6.066.666c.306.54.756 1.044 1.341 1.503l.387-.477c-.63-.432-1.08-.918-1.368-1.458h1.062v-.576h-1.188c.018-.198.036-.414.045-.648v-.063h.99v-.567h-.99v-.666h-.585v.666h-.945v.567h.945v.063c-.009.225-.027.441-.045.648h-1.008v.576h.882c-.036.135-.09.261-.144.387-.216.396-.585.711-1.116.945l.333.513c.576-.261.999-.621 1.26-1.08.054-.108.099-.216.144-.333zm-4.248-2.286v.567h.999v.099c0 .207-.018.414-.036.612h-1.134v.576h1.026c-.054.18-.108.351-.18.513-.216.423-.594.765-1.134 1.017l.324.513c.594-.27 1.026-.648 1.287-1.134.036-.072.063-.135.09-.207.243.198.54.486.9.846l.333-.495c-.36-.306-.72-.585-1.071-.819l.054-.234h1.134v-.576h-1.044c.018-.189.027-.396.036-.612v-.099h.882v-.567h-.882v-.675h-.585v.675zm5.067 3.816h-4.41v3.78h.648v-.378h3.114v.378h.648zm-3.762 2.835v-.837h3.114v.837zm0-1.386v-.873h3.114v.873zm6.516-2.817v5.166h.648v-6.291c.27-.549.504-1.125.684-1.728l-.603-.288c-.405 1.404-1.053 2.655-1.953 3.753l.216.684c.369-.414.702-.846 1.008-1.296zm5.418-2.862-.504.306c.477.549.855 1.044 1.134 1.494l.513-.351c-.27-.414-.648-.9-1.143-1.449zm-1.071-.216h-.648c0 .558-.018 1.386-.054 2.466h-2.313v.621h2.268c-.234 1.764-1.107 3.321-2.619 4.653l.45.495c1.314-1.143 2.187-2.565 2.637-4.257.423 1.728 1.287 3.141 2.592 4.248l.441-.486c-1.359-1.098-2.259-2.655-2.691-4.653h2.52v-.621h-2.628c.027-.972.045-1.791.045-2.466zm4.41.909v.603h2.466v1.071h-3.267v.612h4.095c-1.278.738-2.682 1.296-4.221 1.656l.27.603c.522-.171 1.026-.342 1.512-.522v3.312h.657v-.405h3.897v.405h.648v-4.05h-3.402c.522-.243.999-.486 1.413-.738.135-.09.27-.171.405-.261h2.745v-.612h-1.926c.603-.486 1.17-1.053 1.701-1.683l-.495-.36c-.639.756-1.386 1.44-2.232 2.043h-1.134v-1.071h2.124v-.603h-2.124v-.954h-.666v.954zm1.512 5.373h3.897v.981h-3.897zm3.897-.576h-3.897v-.945h3.897z" image-rendering="optimizeQuality" stroke="none" text-rendering="geometricPrecision" transform="translate(585.5 52)"/><path d="m552.5 52h30" style="fill:none;stroke-linecap:butt;text-rendering:geometricPrecision;image-rendering:optimizeQuality;color-rendering:optimizeQuality;stroke-linejoin:round;stroke:#0072bd;color-interpolation:linearRGB;stroke-width:.5"/><path color-interpolation="linearRGB" color-rendering="optimizeQuality" d="m1.503-.622v5.04h.648v-6.021c.36-.621.648-1.278.882-1.971l-.612-.288c-.441 1.386-1.143 2.619-2.097 3.69l.207.693c.351-.36.675-.747.972-1.143zm1.647-2.079v.63h1.602c-.09.342-.189.693-.297 1.044h-1.701v.621h1.503c-.207.603-.432 1.188-.666 1.746h3.852c-.414.54-.972 1.053-1.683 1.548-.522-.252-1.062-.486-1.62-.702l-.342.504c1.152.432 2.286 1.026 3.384 1.782l.369-.558c-.396-.261-.801-.504-1.224-.729.828-.63 1.431-1.26 1.809-1.89v-.558h-3.699c.144-.351.297-.729.441-1.143h3.762v-.621h-3.555c.108-.333.207-.684.306-1.044h2.88v-.63h-2.718c.081-.351.162-.72.252-1.098l-.63-.063-.27 1.161zm9.351 4.437c-.54.72-1.575 1.359-3.087 1.926l.369.612c1.611-.72 2.7-1.566 3.267-2.538h.135v2.646h.666v-2.646h.126c.648 1.008 1.755 1.827 3.339 2.439l.297-.621c-1.395-.441-2.421-1.044-3.078-1.818h2.871v-.594h-3.555v-.765h-.666v.765h-3.564v.594zm1.107-5.58v.954h-1.278v.603h1.242c-.054.486-.171.909-.351 1.251-.27.459-.729.828-1.395 1.107l.351.549c.72-.297 1.242-.711 1.566-1.233.252-.432.423-.99.495-1.674h1.17l-.009 2.061c0 .441.234.666.72.666h.531c.324 0 .54-.099.648-.288.108-.198.198-.666.27-1.422l-.576-.189c-.045.648-.099 1.026-.153 1.134-.063.108-.162.162-.288.171h-.306c-.144 0-.207-.072-.207-.207v-2.529h-1.764v-.954zm-3.123.162-.324.486c.513.198 1.017.477 1.503.828l.324-.495c-.45-.324-.945-.594-1.503-.819zm-.576 1.206-.324.486c.468.18.918.423 1.368.738l.324-.495c-.414-.288-.873-.531-1.368-.729zm1.692 1.107c-.576.648-1.224 1.224-1.953 1.71l.45.495c.684-.486 1.35-1.107 1.98-1.845zm7.713-1.548v.603h2.466v1.071h-3.267v.612h4.095c-1.278.738-2.682 1.296-4.221 1.656l.27.603c.522-.171 1.026-.342 1.512-.522v3.312h.657v-.405h3.897v.405h.648v-4.05h-3.402c.522-.243.999-.486 1.413-.738.135-.09.27-.171.405-.261h2.745v-.612h-1.926c.603-.486 1.17-1.053 1.701-1.683l-.495-.36c-.639.756-1.386 1.44-2.232 2.043h-1.134v-1.071h2.124v-.603h-2.124v-.954h-.666v.954zm1.512 5.373h3.897v.981h-3.897zm3.897-.576h-3.897v-.945h3.897z" image-rendering="optimizeQuality" stroke="none" text-rendering="geometricPrecision" transform="translate(585.5 63.5)"/><path d="m552.5 63.5h30" style="fill:none;stroke-linecap:butt;text-rendering:geometricPrecision;image-rendering:optimizeQuality;color-rendering:optimizeQuality;stroke-linejoin:round;stroke:#d95319;color-interpolation:linearRGB;stroke-width:.5"/><path color-interpolation="linearRGB" color-rendering="optimizeQuality" d="m7.578 1.034v-1.233h.882v-.54h-.882v-1.242h-2.232v-.666h3.015v-.576h-3.132c-.099-.252-.207-.486-.315-.684l-.666.108c.108.171.216.36.324.576h-3.438v2.898c-.027 1.827-.297 3.249-.801 4.266l.486.432c.585-1.152.9-2.673.945-4.572h2.961v.702h-2.277v.531h2.277v.81c-.837.612-1.827 1.125-2.961 1.557l.252.585c1.035-.45 1.935-.954 2.709-1.512v1.035c0 .198-.099.306-.288.306-.288 0-.585-.018-.909-.045l.126.585h.999c.459 0 .693-.234.693-.693v-1.449c.81.81 1.773 1.449 2.889 1.917l.324-.567c-.702-.261-1.332-.576-1.899-.945.477-.288.9-.612 1.26-.972l-.468-.405c-.342.396-.765.747-1.251 1.053-.306-.234-.585-.486-.855-.765v-.495zm-5.814-1.773v-1.908h2.961v.666h-2.241v.531h2.241v.711zm3.582-.711h1.611v.711h-1.611zm1.611 1.251v.702h-1.611v-.702zm-4.446 1.611-.315.459c.423.162.837.387 1.233.666l.306-.459c-.369-.27-.774-.486-1.224-.666zm8.991-4.032h5.562v-.567h-5.265c.09-.207.171-.423.243-.639l-.639-.108c-.333 1.008-.963 1.854-1.89 2.556l.387.504c.396-.297.738-.621 1.044-.972v2.691h1.152c-.486.648-1.242 1.179-2.277 1.593l.333.549c.468-.216.891-.459 1.26-.711.486.423 1.035.783 1.647 1.08-.927.27-2.043.432-3.348.486l.261.567c1.512-.09 2.79-.324 3.852-.72 1.026.396 2.205.621 3.519.684l.153-.594c-1.062-.036-2.034-.18-2.898-.432.738-.378 1.332-.846 1.782-1.422v-.468h-4.032c.162-.198.315-.396.45-.612h3.564v-2.844h-5.292c.153-.198.297-.405.432-.621zm2.331 5.715c-.729-.288-1.377-.657-1.953-1.107h3.699c-.441.441-1.026.81-1.746 1.107zm1.899-2.772h-4.149v-.666h4.149zm-4.149-1.152v-.657h4.149v.657zm7.731-2.088v.603h2.466v1.071h-3.267v.612h4.095c-1.278.738-2.682 1.296-4.221 1.656l.27.603c.522-.171 1.026-.342 1.512-.522v3.312h.657v-.405h3.897v.405h.648v-4.05h-3.402c.522-.243.999-.486 1.413-.738.135-.09.27-.171.405-.261h2.745v-.612h-1.926c.603-.486 1.17-1.053 1.701-1.683l-.495-.36c-.639.756-1.386 1.44-2.232 2.043h-1.134v-1.071h2.124v-.603h-2.124v-.954h-.666v.954zm1.512 5.373h3.897v.981h-3.897zm3.897-.576h-3.897v-.945h3.897z" image-rendering="optimizeQuality" stroke="none" text-rendering="geometricPrecision" transform="translate(585.5 75)"/><g style="stroke-linecap:butt;text-rendering:geometricPrecision;image-rendering:optimizeQuality;color-rendering:optimizeQuality;stroke-linejoin:round;stroke:#edb120;color-interpolation:linearRGB;stroke-width:.5;fill:none"><path d="m552.5 75h30"/><path d="m548.5 82.5v-38h68v38z" stroke="#262626" stroke-linejoin="miter"/></g></svg>