<svg color-interpolation="auto" height="445" stroke="#000" stroke-linecap="square" stroke-miterlimit="10" width="685" xmlns="http://www.w3.org/2000/svg" xmlns:xlink="http://www.w3.org/1999/xlink"><clipPath id="a"><path color-interpolation="auto" d="m0 0h685v445h-685z"/></clipPath><path clip-path="url(#a)" d="m0 0h685v445h-685z" fill="#fff" stroke="none"/><g style="fill:#fff;text-rendering:optimizeSpeed;color-rendering:optimizeSpeed;image-rendering:optimizeSpeed;shape-rendering:crispEdges;color-interpolation:sRGB;stroke:none"><path d="m0 0h685v445h-685z"/><path d="m89 396h531v-362.5h-531z"/></g><g color-interpolation="linearRGB" color-rendering="optimizeQuality" image-rendering="optimizeQuality" text-rendering="geometricPrecision"><g style="stroke-linecap:butt;fill-opacity:.149;stroke-linejoin:round;stroke:#262626;stroke-width:.5;stroke-opacity:.149;fill:none"><path d="m89 396v-362.5"/><path d="m142.1 396v-362.5"/><path d="m195.2 396v-362.5"/><path d="m248.3 396v-362.5"/><path d="m301.4 396v-362.5"/><path d="m354.5 396v-362.5"/><path d="m407.6 396v-362.5"/><path d="m460.7 396v-362.5"/><path d="m513.8 396v-362.5"/><path d="m566.9 396v-362.5"/><path d="m620 396v-362.5"/><path d="m620 396h-531"/><path d="m620 335.5833h-531"/><path d="m620 275.1667h-531"/><path d="m620 214.75h-531"/><path d="m620 154.3333h-531"/><path d="m620 93.9167h-531"/><path d="m620 33.5h-531"/><g stroke-linecap="square" stroke-opacity="1"><path d="m89 396h531"/><path d="m89 33.5h531"/><path d="m89 396v-5.31"/><path d="m142.1 396v-5.31"/><path d="m195.2 396v-5.31"/><path d="m248.3 396v-5.31"/><path d="m301.4 396v-5.31"/><path d="m354.5 396v-5.31"/><path d="m407.6 396v-5.31"/><path d="m460.7 396v-5.31"/><path d="m513.8 396v-5.31"/><path d="m566.9 396v-5.31"/><path d="m620 396v-5.31"/><path d="m89 33.5v5.31"/><path d="m142.1 33.5v5.31"/><path d="m195.2 33.5v5.31"/><path d="m248.3 33.5v5.31"/><path d="m301.4 33.5v5.31"/><path d="m354.5 33.5v5.31"/><path d="m407.6 33.5v5.31"/><path d="m460.7 33.5v5.31"/><path d="m513.8 33.5v5.31"/><path d="m566.9 33.5v5.31"/><path d="m620 33.5v5.31"/></g></g><path d="m-1.68 6.51q0-.26.005-.575.005-.315.05-.63.045-.315.13-.615.085-.3.25-.525.165-.225.415-.365.25-.14.61-.14.36 0 .61.14.25.14.415.365.165.225.25.525.085.3.13.615.045.315.05.63.005.315.005.575 0 .4-.025.895-.025.495-.16.93-.135.435-.435.735-.3.3-.84.3-.54 0-.84-.3-.3-.3-.435-.735-.135-.435-.16-.93-.025-.495-.025-.895zm-.9.01q0 .39.02.81.02.42.1.82.08.4.23.755.15.355.41.625.26.27.655.425.395.155.945.155.56 0 .95-.155.39-.155.65-.425.26-.27.41-.625.15-.355.23-.755.08-.4.1-.82.02-.42.02-.81 0-.39-.02-.81-.02-.42-.1-.82-.08-.4-.23-.76-.15-.36-.41-.63-.26-.27-.655-.43-.395-.16-.945-.16-.55 0-.945.16-.395.16-.655.43-.26.27-.41.63-.15.36-.23.76-.08.4-.1.82-.02.42-.02.81z" fill="#262626" stroke="none" transform="translate(89 400)"/><path d="m-2.44 10v-7.09h-.65q-.07.4-.26.66-.19.26-.465.41-.275.15-.615.205-.34.055-.7.055v.68h1.84v5.08zm3.32-3.49q0-.26.005-.575.005-.315.05-.63.045-.315.13-.615.085-.3.25-.525.165-.225.415-.365.25-.14.61-.14.36 0 .61.14.25.14.415.365.165.225.25.525.085.3.13.615.045.315.05.63.005.315.005.575 0 .4-.025.895-.025.495-.16.93-.135.435-.435.735-.3.3-.84.3-.54 0-.84-.3-.3-.3-.435-.735-.135-.435-.16-.93-.025-.495-.025-.895zm-.9.01q0 .39.02.81.02.42.1.82.08.4.23.755.15.355.41.625.26.27.655.425.395.155.945.155.56 0 .95-.155.39-.155.65-.425.26-.27.41-.625.15-.355.23-.755.08-.4.1-.82.02-.42.02-.81 0-.39-.02-.81-.02-.42-.1-.82-.08-.4-.23-.76-.15-.36-.41-.63-.26-.27-.655-.43-.395-.16-.945-.16-.55 0-.945.16-.395.16-.655.43-.26.27-.41.63-.15.36-.23.76-.08.4-.1.82-.02.42-.02.81z" fill="#262626" stroke="none" transform="translate(142.1 400)"/><path d="m-5.56 5.42h.85q-.01-.32.065-.635.075-.315.245-.565.17-.25.435-.405.265-.155.635-.155.28 0 .53.09.25.09.435.26.185.17.295.405.11.235.11.525 0 .37-.115.65-.115.28-.34.52-.225.24-.565.475-.34.235-.79.515-.37.22-.71.47-.34.25-.61.58-.27.33-.445.775-.175.445-.225 1.075h4.63v-.75h-3.64q.06-.33.255-.585.195-.255.47-.475.275-.22.605-.415.33-.195.66-.395.33-.21.64-.44.31-.23.55-.515.24-.285.385-.645.145-.36.145-.83 0-.5-.175-.88-.175-.38-.475-.635-.3-.255-.705-.39-.405-.135-.865-.135-.56 0-1 .19-.44.19-.735.525-.295.335-.435.795-.14.46-.11 1zm6.44 1.09q0-.26.005-.575.005-.315.05-.63.045-.315.13-.615.085-.3.25-.525.165-.225.415-.365.25-.14.61-.14.36 0 .61.14.25.14.415.365.165.225.25.525.085.3.13.615.045.315.05.63.005.315.005.575 0 .4-.025.895-.025.495-.16.93-.135.435-.435.735-.3.3-.84.3-.54 0-.84-.3-.3-.3-.435-.735-.135-.435-.16-.93-.025-.495-.025-.895zm-.9.01q0 .39.02.81.02.42.1.82.08.4.23.755.15.355.41.625.26.27.655.425.395.155.945.155.56 0 .95-.155.39-.155.65-.425.26-.27.41-.625.15-.355.23-.755.08-.4.1-.82.02-.42.02-.81 0-.39-.02-.81-.02-.42-.1-.82-.08-.4-.23-.76-.15-.36-.41-.63-.26-.27-.655-.43-.395-.16-.945-.16-.55 0-.945.16-.395.16-.655.43-.26.27-.41.63-.15.36-.23.76-.08.4-.1.82-.02.42-.02.81z" fill="#262626" stroke="none" transform="translate(195.2 400)"/><path d="m-3.82 5.95v.72q.24-.03.51-.03.32 0 .595.085.275.085.475.26.2.175.32.43.12.255.12.585 0 .32-.125.575-.125.255-.335.43-.21.175-.49.27-.28.095-.59.095-.73 0-1.11-.435-.38-.435-.4-1.125h-.85q-.01.55.155.98.165.43.475.725.31.295.75.445.44.15.98.15.5 0 .945-.135.445-.135.775-.405.33-.27.525-.675.195-.405.195-.935 0-.64-.315-1.11-.315-.47-.965-.61v-.02q.42-.19.7-.56.28-.37.28-.85 0-.49-.165-.85-.165-.36-.455-.59-.29-.23-.685-.345-.395-.115-.855-.115-.53 0-.935.17-.405.17-.675.47-.27.3-.415.72-.145.42-.165.93h.85q0-.31.08-.59.08-.28.245-.49.165-.21.42-.335.255-.125.595-.125.54 0 .9.285.36.285.36.855 0 .28-.11.5-.11.22-.295.365-.185.145-.43.22-.245.075-.515.075h-.18q-.05 0-.1 0-.04 0-.09-.01zm4.7.56q0-.26.005-.575.005-.315.05-.63.045-.315.13-.615.085-.3.25-.525.165-.225.415-.365.25-.14.61-.14.36 0 .61.14.25.14.415.365.165.225.25.525.085.3.13.615.045.315.05.63.005.315.005.575 0 .4-.025.895-.025.495-.16.93-.135.435-.435.735-.3.3-.84.3-.54 0-.84-.3-.3-.3-.435-.735-.135-.435-.16-.93-.025-.495-.025-.895zm-.9.01q0 .39.02.81.02.42.1.82.08.4.23.755.15.355.41.625.26.27.655.425.395.155.945.155.56 0 .95-.155.39-.155.65-.425.26-.27.41-.625.15-.355.23-.755.08-.4.1-.82.02-.42.02-.81 0-.39-.02-.81-.02-.42-.1-.82-.08-.4-.23-.76-.15-.36-.41-.63-.26-.27-.655-.43-.395-.16-.945-.16-.55 0-.945.16-.395.16-.655.43-.26.27-.41.63-.15.36-.23.76-.08.4-.1.82-.02.42-.02.81z" fill="#262626" stroke="none" transform="translate(248.3 400)"/><path d="m-2.61 7.59h-2.38l2.36-3.47h.02zm.8 0v-4.68h-.68l-3.23 4.61v.82h3.11v1.66h.8v-1.66h.96v-.75zm2.69-1.08q0-.26.005-.575.005-.315.05-.63.045-.315.13-.615.085-.3.25-.525.165-.225.415-.365.25-.14.61-.14.36 0 .61.14.25.14.415.365.165.225.25.525.085.3.13.615.045.315.05.63.005.315.005.575 0 .4-.025.895-.025.495-.16.93-.135.435-.435.735-.3.3-.84.3-.54 0-.84-.3-.3-.3-.435-.735-.135-.435-.16-.93-.025-.495-.025-.895zm-.9.01q0 .39.02.81.02.42.1.82.08.4.23.755.15.355.41.625.26.27.655.425.395.155.945.155.56 0 .95-.155.39-.155.65-.425.26-.27.41-.625.15-.355.23-.755.08-.4.1-.82.02-.42.02-.81 0-.39-.02-.81-.02-.42-.1-.82-.08-.4-.23-.76-.15-.36-.41-.63-.26-.27-.655-.43-.395-.16-.945-.16-.55 0-.945.16-.395.16-.655.43-.26.27-.41.63-.15.36-.23.76-.08.4-.1.82-.02.42-.02.81z" fill="#262626" stroke="none" transform="translate(301.4 400)"/><path d="m-1.3 3.78v-.75h-3.5l-.66 3.68.73.04q.25-.3.575-.485.325-.185.745-.185.36 0 .655.12.295.12.505.335.21.215.325.51.115.295.115.645 0 .42-.12.735-.12.315-.325.525-.205.21-.48.315-.275.105-.575.105-.32 0-.585-.095-.265-.095-.46-.27-.195-.175-.31-.41-.115-.235-.135-.505h-.85q.01.48.19.86.18.38.49.635.31.255.715.39.405.135.865.135.62 0 1.085-.195.465-.195.775-.525.31-.33.465-.755.155-.425.155-.875 0-.61-.18-1.065-.18-.455-.49-.76-.31-.305-.73-.455-.42-.15-.89-.15-.36 0-.725.125-.365.125-.595.385l-.02-.02.38-2.04zm2.18 2.73q0-.26.005-.575.005-.315.05-.63.045-.315.13-.615.085-.3.25-.525.165-.225.415-.365.25-.14.61-.14.36 0 .61.14.25.14.415.365.165.225.25.525.085.3.13.615.045.315.05.63.005.315.005.575 0 .4-.025.895-.025.495-.16.93-.135.435-.435.735-.3.3-.84.3-.54 0-.84-.3-.3-.3-.435-.735-.135-.435-.16-.93-.025-.495-.025-.895zm-.9.01q0 .39.02.81.02.42.1.82.08.4.23.755.15.355.41.625.26.27.655.425.395.155.945.155.56 0 .95-.155.39-.155.65-.425.26-.27.41-.625.15-.355.23-.755.08-.4.1-.82.02-.42.02-.81 0-.39-.02-.81-.02-.42-.1-.82-.08-.4-.23-.76-.15-.36-.41-.63-.26-.27-.655-.43-.395-.16-.945-.16-.55 0-.945.16-.395.16-.655.43-.26.27-.41.63-.15.36-.23.76-.08.4-.1.82-.02.42-.02.81z" fill="#262626" stroke="none" transform="translate(354.5 400)"/><path d="m-1.86 4.72h.85q-.08-.88-.6-1.345-.52-.465-1.4-.465-.76 0-1.26.32-.5.32-.8.85-.3.53-.425 1.215-.125.685-.125 1.415 0 .56.085 1.16.085.6.345 1.1.26.5.74.82.48.32 1.27.32.67 0 1.125-.225.455-.225.73-.57.275-.345.395-.765.12-.42.12-.81 0-.49-.15-.91-.15-.42-.425-.73-.275-.31-.68-.485-.405-.175-.915-.175-.58 0-1.025.22-.445.22-.745.71l-.02-.02q.01-.41.08-.88.07-.47.255-.875.185-.405.515-.67.33-.265.87-.265.51 0 .82.29.31.29.37.77zm-1.28 1.47q.36 0 .63.13.27.13.45.345.18.215.265.51.085.295.085.625 0 .31-.095.595-.095.285-.275.505-.18.22-.445.345-.265.125-.615.125-.35 0-.625-.125-.275-.125-.46-.335-.185-.21-.285-.5-.1-.29-.1-.62 0-.33.095-.625.095-.295.285-.51.19-.215.46-.34.27-.125.63-.125zm4.02.32q0-.26.005-.575.005-.315.05-.63.045-.315.13-.615.085-.3.25-.525.165-.225.415-.365.25-.14.61-.14.36 0 .61.14.25.14.415.365.165.225.25.525.085.3.13.615.045.315.05.63.005.315.005.575 0 .4-.025.895-.025.495-.16.93-.135.435-.435.735-.3.3-.84.3-.54 0-.84-.3-.3-.3-.435-.735-.135-.435-.16-.93-.025-.495-.025-.895zm-.9.01q0 .39.02.81.02.42.1.82.08.4.23.755.15.355.41.625.26.27.655.425.395.155.945.155.56 0 .95-.155.39-.155.65-.425.26-.27.41-.625.15-.355.23-.755.08-.4.1-.82.02-.42.02-.81 0-.39-.02-.81-.02-.42-.1-.82-.08-.4-.23-.76-.15-.36-.41-.63-.26-.27-.655-.43-.395-.16-.945-.16-.55 0-.945.16-.395.16-.655.43-.26.27-.41.63-.15.36-.23.76-.08.4-.1.82-.02.42-.02.81z" fill="#262626" stroke="none" transform="translate(407.6 400)"/><path d="m-.91 3.76v-.73h-4.59v.8h3.72q-.56.59-1.045 1.29-.485.7-.855 1.485-.37.785-.605 1.64-.235.855-.295 1.755h.95q.05-.83.28-1.71.23-.88.595-1.71.365-.83.835-1.56.47-.73 1.01-1.26zm1.79 2.75q0-.26.005-.575.005-.315.05-.63.045-.315.13-.615.085-.3.25-.525.165-.225.415-.365.25-.14.61-.14.36 0 .61.14.25.14.415.365.165.225.25.525.085.3.13.615.045.315.05.63.005.315.005.575 0 .4-.025.895-.025.495-.16.93-.135.435-.435.735-.3.3-.84.3-.54 0-.84-.3-.3-.3-.435-.735-.135-.435-.16-.93-.025-.495-.025-.895zm-.9.01q0 .39.02.81.02.42.1.82.08.4.23.755.15.355.41.625.26.27.655.425.395.155.945.155.56 0 .95-.155.39-.155.65-.425.26-.27.41-.625.15-.355.23-.755.08-.4.1-.82.02-.42.02-.81 0-.39-.02-.81-.02-.42-.1-.82-.08-.4-.23-.76-.15-.36-.41-.63-.26-.27-.655-.43-.395-.16-.945-.16-.55 0-.945.16-.395.16-.655.43-.26.27-.41.63-.15.36-.23.76-.08.4-.1.82-.02.42-.02.81z" fill="#262626" stroke="none" transform="translate(460.7 400)"/><path d="m-4.45 4.75q0-.27.1-.47.1-.2.265-.34.165-.14.395-.21.23-.07.48-.07.52 0 .855.275.335.275.335.815 0 .54-.33.84-.33.3-.84.3-.26 0-.49-.07-.23-.07-.4-.21-.17-.14-.27-.355-.1-.215-.1-.505zm-.9-.03q0 .48.27.885.27.405.72.585-.6.21-.92.675-.32.465-.32 1.095 0 .54.185.945.185.405.51.675.325.27.765.4.44.13.95.13.49 0 .92-.14.43-.14.745-.415.315-.275.5-.675.185-.4.185-.92 0-.66-.31-1.115-.31-.455-.95-.655.45-.2.715-.595.265-.395.265-.875 0-.34-.12-.665-.12-.325-.375-.58-.255-.255-.665-.41-.41-.155-.99-.155-.41 0-.785.12-.375.12-.665.35-.29.23-.46.565-.17.335-.17.775zm.65 3.28q0-.31.115-.56.115-.25.32-.43.205-.18.48-.275.275-.095.585-.095.3 0 .565.105.265.105.465.285.2.18.315.425.115.245.115.535 0 .3-.105.55-.105.25-.3.435-.195.185-.46.29-.265.105-.585.105-.66 0-1.085-.365-.425-.365-.425-1.005zm5.58-1.49q0-.26.005-.575.005-.315.05-.63.045-.315.13-.615.085-.3.25-.525.165-.225.415-.365.25-.14.61-.14.36 0 .61.14.25.14.415.365.165.225.25.525.085.3.13.615.045.315.05.63.005.315.005.575 0 .4-.025.895-.025.495-.16.93-.135.435-.435.735-.3.3-.84.3-.54 0-.84-.3-.3-.3-.435-.735-.135-.435-.16-.93-.025-.495-.025-.895zm-.9.01q0 .39.02.81.02.42.1.82.08.4.23.755.15.355.41.625.26.27.655.425.395.155.945.155.56 0 .95-.155.39-.155.65-.425.26-.27.41-.625.15-.355.23-.755.08-.4.1-.82.02-.42.02-.81 0-.39-.02-.81-.02-.42-.1-.82-.08-.4-.23-.76-.15-.36-.41-.63-.26-.27-.655-.43-.395-.16-.945-.16-.55 0-.945.16-.395.16-.655.43-.26.27-.41.63-.15.36-.23.76-.08.4-.1.82-.02.42-.02.81z" fill="#262626" stroke="none" transform="translate(513.8 400)"/><path d="m-4.66 8.29h-.85q.08.92.67 1.37.59.45 1.48.45 1.29 0 1.875-.985.585-.985.585-2.825 0-1.01-.195-1.665-.195-.655-.525-1.035-.33-.38-.77-.535-.44-.155-.94-.155-.51 0-.94.17-.43.17-.74.475-.31.305-.48.73-.17.425-.17.935 0 .52.145.96.145.44.43.75.285.31.705.485.42.175.96.175.52 0 .96-.265.44-.265.68-.715l.02.02q-.04 1.39-.43 2.065-.39.675-1.17.675-.51 0-.88-.28-.37-.28-.42-.8zm2.75-3.01q0 .31-.1.595-.1.285-.29.5-.19.215-.46.34-.27.125-.6.125-.31 0-.565-.125-.255-.125-.44-.335-.185-.21-.29-.48-.105-.27-.105-.56 0-.33.075-.63.075-.3.24-.535.165-.235.43-.375.265-.14.645-.14.36 0 .63.13.27.13.455.355.185.225.28.515.095.29.095.62zm2.79 1.23q0-.26.005-.575.005-.315.05-.63.045-.315.13-.615.085-.3.25-.525.165-.225.415-.365.25-.14.61-.14.36 0 .61.14.25.14.415.365.165.225.25.525.085.3.13.615.045.315.05.63.005.315.005.575 0 .4-.025.895-.025.495-.16.93-.135.435-.435.735-.3.3-.84.3-.54 0-.84-.3-.3-.3-.435-.735-.135-.435-.16-.93-.025-.495-.025-.895zm-.9.01q0 .39.02.81.02.42.1.82.08.4.23.755.15.355.41.625.26.27.655.425.395.155.945.155.56 0 .95-.155.39-.155.65-.425.26-.27.41-.625.15-.355.23-.755.08-.4.1-.82.02-.42.02-.81 0-.39-.02-.81-.02-.42-.1-.82-.08-.4-.23-.76-.15-.36-.41-.63-.26-.27-.655-.43-.395-.16-.945-.16-.55 0-.945.16-.395.16-.655.43-.26.27-.41.63-.15.36-.23.76-.08.4-.1.82-.02.42-.02.81z" fill="#262626" stroke="none" transform="translate(566.9 400)"/><path d="m-4.94 10v-7.09h-.65q-.07.4-.26.66-.19.26-.465.41-.275.15-.615.205-.34.055-.7.055v.68h1.84v5.08zm3.32-3.49q0-.26.005-.575.005-.315.05-.63.045-.315.13-.615.085-.3.25-.525.165-.225.415-.365.25-.14.61-.14.36 0 .61.14.25.14.415.365.165.225.25.525.085.3.13.615.045.315.05.63.005.315.005.575 0 .4-.025.895-.025.495-.16.93-.135.435-.435.735-.3.3-.84.3-.54 0-.84-.3-.3-.3-.435-.735-.135-.435-.16-.93-.025-.495-.025-.895zm-.9.01q0 .39.02.81.02.42.1.82.08.4.23.755.15.355.41.625.26.27.655.425.395.155.945.155.56 0 .95-.155.39-.155.65-.425.26-.27.41-.625.15-.355.23-.755.08-.4.1-.82.02-.42.02-.81 0-.39-.02-.81-.02-.42-.1-.82-.08-.4-.23-.76-.15-.36-.41-.63-.26-.27-.655-.43-.395-.16-.945-.16-.55 0-.945.16-.395.16-.655.43-.26.27-.41.63-.15.36-.23.76-.08.4-.1.82-.02.42-.02.81zm6.46-.01q0-.26.005-.575.005-.315.05-.63.045-.315.13-.615.085-.3.25-.525.165-.225.415-.365.25-.14.61-.14.36 0 .61.14.25.14.415.365.165.225.25.525.085.3.13.615.045.315.05.63.005.315.005.575 0 .4-.025.895-.025.495-.16.93-.135.435-.435.735-.3.3-.84.3-.54 0-.84-.3-.3-.3-.435-.735-.135-.435-.16-.93-.025-.495-.025-.895zm-.9.01q0 .39.02.81.02.42.1.82.08.4.23.755.15.355.41.625.26.27.655.425.395.155.945.155.56 0 .95-.155.39-.155.65-.425.26-.27.41-.625.15-.355.23-.755.08-.4.1-.82.02-.42.02-.81 0-.39-.02-.81-.02-.42-.1-.82-.08-.4-.23-.76-.15-.36-.41-.63-.26-.27-.655-.43-.395-.16-.945-.16-.55 0-.945.16-.395.16-.655.43-.26.27-.41.63-.15.36-.23.76-.08.4-.1.82-.02.42-.02.81z" fill="#262626" stroke="none" transform="translate(620 400)"/><path d="m-4.631 5.907v.759h3.828c-.187.726-.418 1.331-.704 1.815-.693 1.166-1.859 2.167-3.498 3.003l.495.649c1.76-.935 3.003-2.057 3.751-3.355.286-.506.517-1.144.704-1.892.781 2.266 2.299 4.015 4.565 5.247l.495-.638c-2.156-1.122-3.619-2.739-4.389-4.829h4.048v-.759h-4.51c.132-.748.22-1.584.286-2.53h3.905v-.77h-8.69v.77h3.982c-.055.935-.143 1.782-.275 2.53z" fill="#262626" stroke="none" transform="translate(354.5002 413.5)"/><g fill="none" stroke="#262626" stroke-linejoin="round" stroke-width=".5"><path d="m89 396v-362.5"/><path d="m620 396v-362.5"/><path d="m89 396h5.31"/><path d="m89 335.5833h5.31"/><path d="m89 275.1667h5.31"/><path d="m89 214.75h5.31"/><path d="m89 154.3333h5.31"/><path d="m89 93.9167h5.31"/><path d="m89 33.5h5.31"/><path d="m620 396h-5.31"/><path d="m620 335.5833h-5.31"/><path d="m620 275.1667h-5.31"/><path d="m620 214.75h-5.31"/><path d="m620 154.3333h-5.31"/><path d="m620 93.9167h-5.31"/><path d="m620 33.5h-5.31"/></g><path d="m-4.68.01q0-.26.005-.575.005-.315.05-.63.045-.315.13-.615.085-.3.25-.525.165-.225.415-.365.25-.14.61-.14.36 0 .61.14.25.14.415.365.165.225.25.525.085.3.13.615.045.315.05.63.005.315.005.575 0 .4-.025.895-.025.495-.16.93-.135.435-.435.735-.3.3-.84.3-.54 0-.84-.3-.3-.3-.435-.735-.135-.435-.16-.93-.025-.495-.025-.895zm-.9.01q0 .39.02.81.02.42.1.82.08.4.23.755.15.355.41.625.26.27.655.425.395.155.945.155.56 0 .95-.155.39-.155.65-.425.26-.27.41-.625.15-.355.23-.755.08-.4.1-.82.02-.42.02-.81 0-.39-.02-.81-.02-.42-.1-.82-.08-.4-.23-.76-.15-.36-.41-.63-.26-.27-.655-.43-.395-.16-.945-.16-.55 0-.945.16-.395.16-.655.43-.26.27-.41.63-.15.36-.23.76-.08.4-.1.82-.02.42-.02.81z" fill="#262626" stroke="none" transform="translate(85 396)"/><path d="m-19.44 3.5v-7.09h-.65q-.07.4-.26.66-.19.26-.465.41-.275.15-.615.205-.34.055-.7.055v.68h1.84v5.08zm3.32-3.49q0-.26.005-.575.005-.315.05-.63.045-.315.13-.615.085-.3.25-.525.165-.225.415-.365.25-.14.61-.14.36 0 .61.14.25.14.415.365.165.225.25.525.085.3.13.615.045.315.05.63.005.315.005.575 0 .4-.025.895-.025.495-.16.93-.135.435-.435.735-.3.3-.84.3-.54 0-.84-.3-.3-.3-.435-.735-.135-.435-.16-.93-.025-.495-.025-.895zm-.9.01q0 .39.02.81.02.42.1.82.08.4.23.755.15.355.41.625.26.27.655.425.395.155.945.155.56 0 .95-.155.39-.155.65-.425.26-.27.41-.625.15-.355.23-.755.08-.4.1-.82.02-.42.02-.81 0-.39-.02-.81-.02-.42-.1-.82-.08-.4-.23-.76-.15-.36-.41-.63-.26-.27-.655-.43-.395-.16-.945-.16-.55 0-.945.16-.395.16-.655.43-.26.27-.41.63-.15.36-.23.76-.08.4-.1.82-.02.42-.02.81zm6.46-.01q0-.26.005-.575.005-.315.05-.63.045-.315.13-.615.085-.3.25-.525.165-.225.415-.365.25-.14.61-.14.36 0 .61.14.25.14.415.365.165.225.25.525.085.3.13.615.045.315.05.63.005.315.005.575 0 .4-.025.895-.025.495-.16.93-.135.435-.435.735-.3.3-.84.3-.54 0-.84-.3-.3-.3-.435-.735-.135-.435-.16-.93-.025-.495-.025-.895zm-.9.01q0 .39.02.81.02.42.1.82.08.4.23.755.15.355.41.625.26.27.655.425.395.155.945.155.56 0 .95-.155.39-.155.65-.425.26-.27.41-.625.15-.355.23-.755.08-.4.1-.82.02-.42.02-.81 0-.39-.02-.81-.02-.42-.1-.82-.08-.4-.23-.76-.15-.36-.41-.63-.26-.27-.655-.43-.395-.16-.945-.16-.55 0-.945.16-.395.16-.655.43-.26.27-.41.63-.15.36-.23.76-.08.4-.1.82-.02.42-.02.81zm6.46-.01q0-.26.005-.575.005-.315.05-.63.045-.315.13-.615.085-.3.25-.525.165-.225.415-.365.25-.14.61-.14.36 0 .61.14.25.14.415.365.165.225.25.525.085.3.13.615.045.315.05.63.005.315.005.575 0 .4-.025.895-.025.495-.16.93-.135.435-.435.735-.3.3-.84.3-.54 0-.84-.3-.3-.3-.435-.735-.135-.435-.16-.93-.025-.495-.025-.895zm-.9.01q0 .39.02.81.02.42.1.82.08.4.23.755.15.355.41.625.26.27.655.425.395.155.945.155.56 0 .95-.155.39-.155.65-.425.26-.27.41-.625.15-.355.23-.755.08-.4.1-.82.02-.42.02-.81 0-.39-.02-.81-.02-.42-.1-.82-.08-.4-.23-.76-.15-.36-.41-.63-.26-.27-.655-.43-.395-.16-.945-.16-.55 0-.945.16-.395.16-.655.43-.26.27-.41.63-.15.36-.23.76-.08.4-.1.82-.02.42-.02.81z" fill="#262626" stroke="none" transform="translate(85 335.5833)"/><path d="m-22.56-1.08h.85q-.01-.32.065-.635.075-.315.245-.565.17-.25.435-.405.265-.155.635-.155.28 0 .53.09.25.09.435.26.185.17.295.405.11.235.11.525 0 .37-.115.65-.115.28-.34.52-.225.24-.565.475-.34.235-.79.515-.37.22-.71.47-.34.25-.61.58-.27.33-.445.775-.175.445-.225 1.075h4.63v-.75h-3.64q.06-.33.255-.585.195-.255.47-.475.275-.22.605-.415.33-.195.66-.395.33-.21.64-.44.31-.23.55-.515.24-.285.385-.645.145-.36.145-.83 0-.5-.175-.88-.175-.38-.475-.635-.3-.255-.705-.39-.405-.135-.865-.135-.56 0-1 .19-.44.19-.735.525-.295.335-.435.795-.14.46-.11 1zm6.44 1.09q0-.26.005-.575.005-.315.05-.63.045-.315.13-.615.085-.3.25-.525.165-.225.415-.365.25-.14.61-.14.36 0 .61.14.25.14.415.365.165.225.25.525.085.3.13.615.045.315.05.63.005.315.005.575 0 .4-.025.895-.025.495-.16.93-.135.435-.435.735-.3.3-.84.3-.54 0-.84-.3-.3-.3-.435-.735-.135-.435-.16-.93-.025-.495-.025-.895zm-.9.01q0 .39.02.81.02.42.1.82.08.4.23.755.15.355.41.625.26.27.655.425.395.155.945.155.56 0 .95-.155.39-.155.65-.425.26-.27.41-.625.15-.355.23-.755.08-.4.1-.82.02-.42.02-.81 0-.39-.02-.81-.02-.42-.1-.82-.08-.4-.23-.76-.15-.36-.41-.63-.26-.27-.655-.43-.395-.16-.945-.16-.55 0-.945.16-.395.16-.655.43-.26.27-.41.63-.15.36-.23.76-.08.4-.1.82-.02.42-.02.81zm6.46-.01q0-.26.005-.575.005-.315.05-.63.045-.315.13-.615.085-.3.25-.525.165-.225.415-.365.25-.14.61-.14.36 0 .61.14.25.14.415.365.165.225.25.525.085.3.13.615.045.315.05.63.005.315.005.575 0 .4-.025.895-.025.495-.16.93-.135.435-.435.735-.3.3-.84.3-.54 0-.84-.3-.3-.3-.435-.735-.135-.435-.16-.93-.025-.495-.025-.895zm-.9.01q0 .39.02.81.02.42.1.82.08.4.23.755.15.355.41.625.26.27.655.425.395.155.945.155.56 0 .95-.155.39-.155.65-.425.26-.27.41-.625.15-.355.23-.755.08-.4.1-.82.02-.42.02-.81 0-.39-.02-.81-.02-.42-.1-.82-.08-.4-.23-.76-.15-.36-.41-.63-.26-.27-.655-.43-.395-.16-.945-.16-.55 0-.945.16-.395.16-.655.43-.26.27-.41.63-.15.36-.23.76-.08.4-.1.82-.02.42-.02.81zm6.46-.01q0-.26.005-.575.005-.315.05-.63.045-.315.13-.615.085-.3.25-.525.165-.225.415-.365.25-.14.61-.14.36 0 .61.14.25.14.415.365.165.225.25.525.085.3.13.615.045.315.05.63.005.315.005.575 0 .4-.025.895-.025.495-.16.93-.135.435-.435.735-.3.3-.84.3-.54 0-.84-.3-.3-.3-.435-.735-.135-.435-.16-.93-.025-.495-.025-.895zm-.9.01q0 .39.02.81.02.42.1.82.08.4.23.755.15.355.41.625.26.27.655.425.395.155.945.155.56 0 .95-.155.39-.155.65-.425.26-.27.41-.625.15-.355.23-.755.08-.4.1-.82.02-.42.02-.81 0-.39-.02-.81-.02-.42-.1-.82-.08-.4-.23-.76-.15-.36-.41-.63-.26-.27-.655-.43-.395-.16-.945-.16-.55 0-.945.16-.395.16-.655.43-.26.27-.41.63-.15.36-.23.76-.08.4-.1.82-.02.42-.02.81z" fill="#262626" stroke="none" transform="translate(85 275.1667)"/><path d="m-20.82-.55v.72q.24-.03.51-.03.32 0 .595.085.275.085.475.26.2.175.32.43.12.255.12.585 0 .32-.125.575-.125.255-.335.43-.21.175-.49.27-.28.095-.59.095-.73 0-1.11-.435-.38-.435-.4-1.125h-.85q-.01.55.155.98.165.43.475.725.31.295.75.445.44.15.98.15.5 0 .945-.135.445-.135.775-.405.33-.27.525-.675.195-.405.195-.935 0-.64-.315-1.11-.315-.47-.965-.61v-.02q.42-.19.7-.56.28-.37.28-.85 0-.49-.165-.85-.165-.36-.455-.59-.29-.23-.685-.345-.395-.115-.855-.115-.53 0-.935.17-.405.17-.675.47-.27.3-.415.72-.145.42-.165.93h.85q0-.31.08-.59.08-.28.245-.49.165-.21.42-.335.255-.125.595-.125.54 0 .9.285.36.285.36.855 0 .28-.11.5-.11.22-.295.365-.185.145-.43.22-.245.075-.515.075h-.18q-.05 0-.1 0-.04 0-.09-.01zm4.7.56q0-.26.005-.575.005-.315.05-.63.045-.315.13-.615.085-.3.25-.525.165-.225.415-.365.25-.14.61-.14.36 0 .61.14.25.14.415.365.165.225.25.525.085.3.13.615.045.315.05.63.005.315.005.575 0 .4-.025.895-.025.495-.16.93-.135.435-.435.735-.3.3-.84.3-.54 0-.84-.3-.3-.3-.435-.735-.135-.435-.16-.93-.025-.495-.025-.895zm-.9.01q0 .39.02.81.02.42.1.82.08.4.23.755.15.355.41.625.26.27.655.425.395.155.945.155.56 0 .95-.155.39-.155.65-.425.26-.27.41-.625.15-.355.23-.755.08-.4.1-.82.02-.42.02-.81 0-.39-.02-.81-.02-.42-.1-.82-.08-.4-.23-.76-.15-.36-.41-.63-.26-.27-.655-.43-.395-.16-.945-.16-.55 0-.945.16-.395.16-.655.43-.26.27-.41.63-.15.36-.23.76-.08.4-.1.82-.02.42-.02.81zm6.46-.01q0-.26.005-.575.005-.315.05-.63.045-.315.13-.615.085-.3.25-.525.165-.225.415-.365.25-.14.61-.14.36 0 .61.14.25.14.415.365.165.225.25.525.085.3.13.615.045.315.05.63.005.315.005.575 0 .4-.025.895-.025.495-.16.93-.135.435-.435.735-.3.3-.84.3-.54 0-.84-.3-.3-.3-.435-.735-.135-.435-.16-.93-.025-.495-.025-.895zm-.9.01q0 .39.02.81.02.42.1.82.08.4.23.755.15.355.41.625.26.27.655.425.395.155.945.155.56 0 .95-.155.39-.155.65-.425.26-.27.41-.625.15-.355.23-.755.08-.4.1-.82.02-.42.02-.81 0-.39-.02-.81-.02-.42-.1-.82-.08-.4-.23-.76-.15-.36-.41-.63-.26-.27-.655-.43-.395-.16-.945-.16-.55 0-.945.16-.395.16-.655.43-.26.27-.41.63-.15.36-.23.76-.08.4-.1.82-.02.42-.02.81zm6.46-.01q0-.26.005-.575.005-.315.05-.63.045-.315.13-.615.085-.3.25-.525.165-.225.415-.365.25-.14.61-.14.36 0 .61.14.25.14.415.365.165.225.25.525.085.3.13.615.045.315.05.63.005.315.005.575 0 .4-.025.895-.025.495-.16.93-.135.435-.435.735-.3.3-.84.3-.54 0-.84-.3-.3-.3-.435-.735-.135-.435-.16-.93-.025-.495-.025-.895zm-.9.01q0 .39.02.81.02.42.1.82.08.4.23.755.15.355.41.625.26.27.655.425.395.155.945.155.56 0 .95-.155.39-.155.65-.425.26-.27.41-.625.15-.355.23-.755.08-.4.1-.82.02-.42.02-.81 0-.39-.02-.81-.02-.42-.1-.82-.08-.4-.23-.76-.15-.36-.41-.63-.26-.27-.655-.43-.395-.16-.945-.16-.55 0-.945.16-.395.16-.655.43-.26.27-.41.63-.15.36-.23.76-.08.4-.1.82-.02.42-.02.81z" fill="#262626" stroke="none" transform="translate(85 214.75)"/><path d="m-19.61 1.09h-2.38l2.36-3.47h.02zm.8 0v-4.68h-.68l-3.23 4.61v.82h3.11v1.66h.8v-1.66h.96v-.75zm2.69-1.08q0-.26.005-.575.005-.315.05-.63.045-.315.13-.615.085-.3.25-.525.165-.225.415-.365.25-.14.61-.14.36 0 .61.14.25.14.415.365.165.225.25.525.085.3.13.615.045.315.05.63.005.315.005.575 0 .4-.025.895-.025.495-.16.93-.135.435-.435.735-.3.3-.84.3-.54 0-.84-.3-.3-.3-.435-.735-.135-.435-.16-.93-.025-.495-.025-.895zm-.9.01q0 .39.02.81.02.42.1.82.08.4.23.755.15.355.41.625.26.27.655.425.395.155.945.155.56 0 .95-.155.39-.155.65-.425.26-.27.41-.625.15-.355.23-.755.08-.4.1-.82.02-.42.02-.81 0-.39-.02-.81-.02-.42-.1-.82-.08-.4-.23-.76-.15-.36-.41-.63-.26-.27-.655-.43-.395-.16-.945-.16-.55 0-.945.16-.395.16-.655.43-.26.27-.41.63-.15.36-.23.76-.08.4-.1.82-.02.42-.02.81zm6.46-.01q0-.26.005-.575.005-.315.05-.63.045-.315.13-.615.085-.3.25-.525.165-.225.415-.365.25-.14.61-.14.36 0 .61.14.25.14.415.365.165.225.25.525.085.3.13.615.045.315.05.63.005.315.005.575 0 .4-.025.895-.025.495-.16.93-.135.435-.435.735-.3.3-.84.3-.54 0-.84-.3-.3-.3-.435-.735-.135-.435-.16-.93-.025-.495-.025-.895zm-.9.01q0 .39.02.81.02.42.1.82.08.4.23.755.15.355.41.625.26.27.655.425.395.155.945.155.56 0 .95-.155.39-.155.65-.425.26-.27.41-.625.15-.355.23-.755.08-.4.1-.82.02-.42.02-.81 0-.39-.02-.81-.02-.42-.1-.82-.08-.4-.23-.76-.15-.36-.41-.63-.26-.27-.655-.43-.395-.16-.945-.16-.55 0-.945.16-.395.16-.655.43-.26.27-.41.63-.15.36-.23.76-.08.4-.1.82-.02.42-.02.81zm6.46-.01q0-.26.005-.575.005-.315.05-.63.045-.315.13-.615.085-.3.25-.525.165-.225.415-.365.25-.14.61-.14.36 0 .61.14.25.14.415.365.165.225.25.525.085.3.13.615.045.315.05.63.005.315.005.575 0 .4-.025.895-.025.495-.16.93-.135.435-.435.735-.3.3-.84.3-.54 0-.84-.3-.3-.3-.435-.735-.135-.435-.16-.93-.025-.495-.025-.895zm-.9.01q0 .39.02.81.02.42.1.82.08.4.23.755.15.355.41.625.26.27.655.425.395.155.945.155.56 0 .95-.155.39-.155.65-.425.26-.27.41-.625.15-.355.23-.755.08-.4.1-.82.02-.42.02-.81 0-.39-.02-.81-.02-.42-.1-.82-.08-.4-.23-.76-.15-.36-.41-.63-.26-.27-.655-.43-.395-.16-.945-.16-.55 0-.945.16-.395.16-.655.43-.26.27-.41.63-.15.36-.23.76-.08.4-.1.82-.02.42-.02.81z" fill="#262626" stroke="none" transform="translate(85 154.3333)"/><path d="m-18.3-2.72v-.75h-3.5l-.66 3.68.73.04q.25-.3.575-.485.325-.185.745-.185.36 0 .655.12.295.12.505.335.21.215.325.51.115.295.115.645 0 .42-.12.735-.12.315-.325.525-.205.21-.48.315-.275.105-.575.105-.32 0-.585-.095-.265-.095-.46-.27-.195-.175-.31-.41-.115-.235-.135-.505h-.85q.01.48.19.86.18.38.49.635.31.255.715.39.405.135.865.135.62 0 1.085-.195.465-.195.775-.525.31-.33.465-.755.155-.425.155-.875 0-.61-.18-1.065-.18-.455-.49-.76-.31-.305-.73-.455-.42-.15-.89-.15-.36 0-.725.125-.365.125-.595.385l-.02-.02.38-2.04zm2.18 2.73q0-.26.005-.575.005-.315.05-.63.045-.315.13-.615.085-.3.25-.525.165-.225.415-.365.25-.14.61-.14.36 0 .61.14.25.14.415.365.165.225.25.525.085.3.13.615.045.315.05.63.005.315.005.575 0 .4-.025.895-.025.495-.16.93-.135.435-.435.735-.3.3-.84.3-.54 0-.84-.3-.3-.3-.435-.735-.135-.435-.16-.93-.025-.495-.025-.895zm-.9.01q0 .39.02.81.02.42.1.82.08.4.23.755.15.355.41.625.26.27.655.425.395.155.945.155.56 0 .95-.155.39-.155.65-.425.26-.27.41-.625.15-.355.23-.755.08-.4.1-.82.02-.42.02-.81 0-.39-.02-.81-.02-.42-.1-.82-.08-.4-.23-.76-.15-.36-.41-.63-.26-.27-.655-.43-.395-.16-.945-.16-.55 0-.945.16-.395.16-.655.43-.26.27-.41.63-.15.36-.23.76-.08.4-.1.82-.02.42-.02.81zm6.46-.01q0-.26.005-.575.005-.315.05-.63.045-.315.13-.615.085-.3.25-.525.165-.225.415-.365.25-.14.61-.14.36 0 .61.14.25.14.415.365.165.225.25.525.085.3.13.615.045.315.05.63.005.315.005.575 0 .4-.025.895-.025.495-.16.93-.135.435-.435.735-.3.3-.84.3-.54 0-.84-.3-.3-.3-.435-.735-.135-.435-.16-.93-.025-.495-.025-.895zm-.9.01q0 .39.02.81.02.42.1.82.08.4.23.755.15.355.41.625.26.27.655.425.395.155.945.155.56 0 .95-.155.39-.155.65-.425.26-.27.41-.625.15-.355.23-.755.08-.4.1-.82.02-.42.02-.81 0-.39-.02-.81-.02-.42-.1-.82-.08-.4-.23-.76-.15-.36-.41-.63-.26-.27-.655-.43-.395-.16-.945-.16-.55 0-.945.16-.395.16-.655.43-.26.27-.41.63-.15.36-.23.76-.08.4-.1.82-.02.42-.02.81zm6.46-.01q0-.26.005-.575.005-.315.05-.63.045-.315.13-.615.085-.3.25-.525.165-.225.415-.365.25-.14.61-.14.36 0 .61.14.25.14.415.365.165.225.25.525.085.3.13.615.045.315.05.63.005.315.005.575 0 .4-.025.895-.025.495-.16.93-.135.435-.435.735-.3.3-.84.3-.54 0-.84-.3-.3-.3-.435-.735-.135-.435-.16-.93-.025-.495-.025-.895zm-.9.01q0 .39.02.81.02.42.1.82.08.4.23.755.15.355.41.625.26.27.655.425.395.155.945.155.56 0 .95-.155.39-.155.65-.425.26-.27.41-.625.15-.355.23-.755.08-.4.1-.82.02-.42.02-.81 0-.39-.02-.81-.02-.42-.1-.82-.08-.4-.23-.76-.15-.36-.41-.63-.26-.27-.655-.43-.395-.16-.945-.16-.55 0-.945.16-.395.16-.655.43-.26.27-.41.63-.15.36-.23.76-.08.4-.1.82-.02.42-.02.81z" fill="#262626" stroke="none" transform="translate(85 93.9167)"/><path d="m-18.86-1.78h.85q-.08-.88-.6-1.345-.52-.465-1.4-.465-.76 0-1.26.32-.5.32-.8.85-.3.53-.425 1.215-.125.685-.125 1.415 0 .56.085 1.16.085.6.345 1.1.26.5.74.82.48.32 1.27.32.67 0 1.125-.225.455-.225.73-.57.275-.345.395-.765.12-.42.12-.81 0-.49-.15-.91-.15-.42-.425-.73-.275-.31-.68-.485-.405-.175-.915-.175-.58 0-1.025.22-.445.22-.745.71l-.02-.02q.01-.41.08-.88.07-.47.255-.875.185-.405.515-.67.33-.265.87-.265.51 0 .82.29.31.29.37.77zm-1.28 1.47q.36 0 .63.13.27.13.45.345.18.215.265.51.085.295.085.625 0 .31-.095.595-.095.285-.275.505-.18.22-.445.345-.265.125-.615.125-.35 0-.625-.125-.275-.125-.46-.335-.185-.21-.285-.5-.1-.29-.1-.62 0-.33.095-.625.095-.295.285-.51.19-.215.46-.34.27-.125.63-.125zm4.02.32q0-.26.005-.575.005-.315.05-.63.045-.315.13-.615.085-.3.25-.525.165-.225.415-.365.25-.14.61-.14.36 0 .61.14.25.14.415.365.165.225.25.525.085.3.13.615.045.315.05.63.005.315.005.575 0 .4-.025.895-.025.495-.16.93-.135.435-.435.735-.3.3-.84.3-.54 0-.84-.3-.3-.3-.435-.735-.135-.435-.16-.93-.025-.495-.025-.895zm-.9.01q0 .39.02.81.02.42.1.82.08.4.23.755.15.355.41.625.26.27.655.425.395.155.945.155.56 0 .95-.155.39-.155.65-.425.26-.27.41-.625.15-.355.23-.755.08-.4.1-.82.02-.42.02-.81 0-.39-.02-.81-.02-.42-.1-.82-.08-.4-.23-.76-.15-.36-.41-.63-.26-.27-.655-.43-.395-.16-.945-.16-.55 0-.945.16-.395.16-.655.43-.26.27-.41.63-.15.36-.23.76-.08.4-.1.82-.02.42-.02.81zm6.46-.01q0-.26.005-.575.005-.315.05-.63.045-.315.13-.615.085-.3.25-.525.165-.225.415-.365.25-.14.61-.14.36 0 .61.14.25.14.415.365.165.225.25.525.085.3.13.615.045.315.05.63.005.315.005.575 0 .4-.025.895-.025.495-.16.93-.135.435-.435.735-.3.3-.84.3-.54 0-.84-.3-.3-.3-.435-.735-.135-.435-.16-.93-.025-.495-.025-.895zm-.9.01q0 .39.02.81.02.42.1.82.08.4.23.755.15.355.41.625.26.27.655.425.395.155.945.155.56 0 .95-.155.39-.155.65-.425.26-.27.41-.625.15-.355.23-.755.08-.4.1-.82.02-.42.02-.81 0-.39-.02-.81-.02-.42-.1-.82-.08-.4-.23-.76-.15-.36-.41-.63-.26-.27-.655-.43-.395-.16-.945-.16-.55 0-.945.16-.395.16-.655.43-.26.27-.41.63-.15.36-.23.76-.08.4-.1.82-.02.42-.02.81zm6.46-.01q0-.26.005-.575.005-.315.05-.63.045-.315.13-.615.085-.3.25-.525.165-.225.415-.365.25-.14.61-.14.36 0 .61.14.25.14.415.365.165.225.25.525.085.3.13.615.045.315.05.63.005.315.005.575 0 .4-.025.895-.025.495-.16.93-.135.435-.435.735-.3.3-.84.3-.54 0-.84-.3-.3-.3-.435-.735-.135-.435-.16-.93-.025-.495-.025-.895zm-.9.01q0 .39.02.81.02.42.1.82.08.4.23.755.15.355.41.625.26.27.655.425.395.155.945.155.56 0 .95-.155.39-.155.65-.425.26-.27.41-.625.15-.355.23-.755.08-.4.1-.82.02-.42.02-.81 0-.39-.02-.81-.02-.42-.1-.82-.08-.4-.23-.76-.15-.36-.41-.63-.26-.27-.655-.43-.395-.16-.945-.16-.55 0-.945.16-.395.16-.655.43-.26.27-.41.63-.15.36-.23.76-.08.4-.1.82-.02.42-.02.81z" fill="#262626" stroke="none" transform="translate(85 33.5)"/><path d="m-5.104-11.965h-.803c0 .418-.011 1.001-.022 1.749-.099 3.168-1.661 5.687-4.686 7.546l.484.704c2.442-1.573 4.004-3.553 4.664-5.951.781 2.486 2.299 4.466 4.543 5.94l.517-.693c-2.563-1.573-4.158-3.861-4.774-6.853.044-.682.077-1.496.077-2.442zm12.342 2.42h1.628c-.044 1.485-.275 2.783-.704 3.894-.44-.924-.792-2.035-1.067-3.322zm.561 4.686c-.506.935-1.177 1.694-2.035 2.288l.407.66c.825-.594 1.507-1.331 2.035-2.211.55.924 1.21 1.672 1.98 2.222l.429-.649c-.792-.539-1.463-1.298-2.035-2.288.616-1.298.957-2.871 1.012-4.708h.715v-.759h-2.904c.088-.484.176-1.012.242-1.573l-.77-.132c-.22 2.09-.66 3.751-1.309 4.983l.495.605c.231-.396.451-.847.649-1.353.297 1.1.66 2.068 1.089 2.915zm-5.214-2.013c-.077.22-.165.451-.264.693h-1.606v.693h1.298c-.22.44-.473.891-.759 1.375.539.198 1.045.407 1.529.616-.638.363-1.419.66-2.321.902l.374.66c1.1-.308 2.013-.715 2.739-1.221.649.286 1.21.583 1.694.869l.429-.616c-.484-.264-.99-.506-1.518-.748.572-.528.979-1.155 1.221-1.881v-.649h-2.299c.066-.198.143-.396.22-.605zm.869 2.915c-.396-.165-.814-.319-1.254-.473.22-.33.418-.682.594-1.056h1.892c-.264.572-.682 1.089-1.232 1.529zm-1.87-7.821-.627.209c.264.418.506.891.737 1.43l.572-.264c-.198-.484-.418-.946-.682-1.375zm3.344-.033c-.198.462-.484.924-.836 1.397l.561.286c.352-.462.627-.935.847-1.419zm-4.191 1.936v.693h1.562c-.33.605-.924 1.155-1.771 1.65l.385.638c.946-.638 1.606-1.386 1.969-2.255v2.09h.737v-1.43c.396.264.869.616 1.419 1.056l.407-.616c-.616-.374-1.232-.715-1.826-1.012v-.121h2.002v-.693h-2.002v-2.101h-.737v2.101z" fill="#262626" stroke="none" transform="matrix(0 -1 1 0 59.5 214.7498)"/><g fill="none" stroke="#0072bd" stroke-linecap="butt" stroke-linejoin="round" stroke-width=".5"><path d="m94.31 396 5.31-.0453 5.31-.0363 5.31-.0319 5.31-.0309 5.31-.032 5.31-.0351 5.31-.0394 5.31-.0454 5.31-.0526 5.31-.0613 5.31-.0718 5.31-.084 5.31-.0986 5.31-.1156 5.31-.1358 5.31-.1593 5.31-.1869 5.31-.2195 5.31-.2576 5.31-.3024 5.31-.355 5.31-.4167 5.31-.4891 5.31-.5741 5.31-.6741 5.31-.7911 5.31-.9288 5.31-1.0901 5.31-1.2798 5.31-1.5022 5.31-1.7634 5.31-2.07 5.31-2.4298 5.31-2.8523 5.31-3.3481 5.31-3.9302 5.31-4.6135 5.31-5.4155 5.31-6.3569 5.31-7.462 5.31-8.7591 5.31-10.2817 5.31-12.0689 5.31-14.1667 5.31-16.629 5.31-19.519 5.31-22.9112 5.31-26.8925 5.31-31.5654 5.31 21.2944 5.31 19.161 5.31 17.2418 5.31 15.5155 5.31 13.9626 5.31 12.5655 5.31 11.3086 5.31 10.1779 5.31 9.1605 5.31 8.2452 5.31 7.4215 5.31 6.6805 5.31 6.0136 5.31 5.4135 5.31 4.8734 5.31 4.3875 5.31 3.9501 5.31 3.5564 5.31 3.202 5.31 2.8833 5.31 2.5961 5.31 2.3378 5.31 2.1051 5.31 1.8958 5.31 1.7073 5.31 1.5376 5.31 1.3849 5.31 1.2472 5.31 1.1235 5.31 1.0119 5.31.9115 5.31.8211 5.31.7396 5.31.6664 5.31.6003 5.31.5408 5.31.4873 5.31.439 5.31.3956 5.31.3565 5.31.3212 5.31.2894 5.31.2608 5.31.2351 5.31.2118 5.31.1909 5.31.1721 5.31.1551 5.31.1398 5.31.126"/><path d="m94.31 395.9396 5.31.006 5.31.0009 5.31-.0028 5.31-.0057 5.31-.0083 5.31-.0106 5.31-.013 5.31-.0157 5.31-.0187 5.31-.0221 5.31-.0259 5.31-.0306 5.31-.0359 5.31-.0422 5.31-.0495 5.31-.0582 5.31-.0682 5.31-.0801 5.31-.0941 5.31-.1104 5.31-.1297 5.31-.1521 5.31-.1786 5.31-.2097 5.31-.2461 5.31-.2889 5.31-.3391 5.31-.3981 5.31-.4673 5.31-.5485 5.31-.6439 5.31-.7559 5.31-.8873 5.31-1.0415 5.31-1.2226 5.31-1.4351 5.31-1.6847 5.31-1.9775 5.31-2.3214 5.31-2.7249 5.31-3.1986 5.31-3.7546 5.31-4.4074 5.31-5.1735 5.31-6.0728 5.31-7.1285 5.31-8.3675 5.31-9.8219 5.31-11.5289 5.31-13.5326 5.31-10.0498 5.31-7.1289 5.31-4.6917 5.31-2.671 5.31-1.0076 5.31.3496 5.31 1.4456 5.31 2.3188 5.31 3.0029 5.31 3.5272 5.31 3.9166 5.31 4.193 5.31 4.3751 5.31 4.4789 5.31 4.5184 5.31 4.5053 5.31 4.4497 5.31 4.3604 5.31 4.2446 5.31 4.1084 5.31 3.9573 5.31 3.7952 5.31 3.6263 5.31 3.4532 5.31 3.2786 5.31 3.1046 5.31 2.9325 5.31 2.764 5.31 2.6 5.31 2.4412 5.31 2.2881 5.31 2.1415 5.31 2.0013 5.31 1.8679 5.31 1.741 5.31 1.621 5.31 1.5077 5.31 1.4008 5.31 1.3003 5.31 1.2059 5.31 1.1174 5.31 1.0346 5.31.9572 5.31.8851 5.31.8177 5.31.755 5.31.6967 5.31.6426 5.31.5923" stroke="#d95319"/><path d="m94.31 396 5.31-.006 5.31-.0055 5.31-.0053 5.31-.0057 5.31-.0062 5.31-.007 5.31-.0081 5.31-.0094 5.31-.0109 5.31-.0128 5.31-.0151 5.31-.0176 5.31-.0207 5.31-.0243 5.31-.0285 5.31-.0334 5.31-.0393 5.31-.0461 5.31-.0541 5.31-.0635 5.31-.0745 5.31-.0876 5.31-.1027 5.31-.1206 5.31-.1415 5.31-.1662 5.31-.1951 5.31-.229 5.31-.2687 5.31-.3155 5.31-.3704 5.31-.4348 5.31-.5103 5.31-.5991 5.31-.7032 5.31-.8254 5.31-.969 5.31-1.1375 5.31-1.3352 5.31-1.5674 5.31-1.8398 5.31-2.1597 5.31-2.5351 5.31-2.976 5.31-3.4932 5.31-4.1006 5.31-4.8133 5.31-5.6502 5.31-6.6322 5.31-7.7853 5.31-9.1384 5.31-10.1435 5.31-10.8563 5.31-11.3255 5.31-11.5926 5.31-11.6934 5.31-11.6584 5.31-11.5139 5.31-11.282 5.31-10.9816 5.31-10.629 5.31-10.2373 5.31-9.818 5.31-9.3805 5.31-8.9326 5.31-8.4807 5.31-8.0303 5.31-7.5852 5.31-7.1492 5.31-6.7248 5.31-6.3139 5.31-5.9182 5.31-5.5387 5.31-5.176 5.31-4.8307 5.31-4.5029 5.31-4.1924 5.31-3.8991 5.31-3.6228 5.31-3.3628 5.31-3.1186 5.31-2.8898 5.31-2.6756 5.31-2.4756 5.31-2.2888 5.31-2.1146 5.31-1.9525 5.31-1.8018 5.31-1.6617 5.31-1.5317 5.31-1.4111 5.31-1.2993 5.31-1.1959 5.31-1.1002 5.31-1.0116 5.31-.9299 5.31-.8544 5.31-.7847 5.31-.7204" stroke="#edb120"/><path d="m94.31 395.9517 5.31-.0314 5.31-.0283 5.31-.0278 5.31-.0293 5.31-.0322 5.31-.0366 5.31-.042 5.31-.0488 5.31-.057 5.31-.0668 5.31-.0781 5.31-.0917 5.31-.1076 5.31-.1263 5.31-.1482 5.31-.1739 5.31-.2042 5.31-.2397 5.31-.2813 5.31-.3303 5.31-.3876 5.31-.4551 5.31-.5342 5.31-.6271 5.31-.736 5.31-.8641 5.31-1.0143 5.31-1.1906 5.31-1.3977 5.31-1.6406 5.31-1.9258 5.31-2.2607 5.31-2.6537 5.31-3.115 5.31-3.6566 5.31-4.2923 5.31-5.0385 5.31-5.9144 5.31-6.9426 5.31-8.1495 5.31-9.5662 5.31-11.2291 5.31-13.181 5.31-15.4721 5.31-18.1615 5.31-21.3179 5.31-25.023 5.31-29.3715 5.31-34.4755 5.31 6.2095 5.31 7.2888 5.31 8.0905 5.31 8.659 5.31 9.0332 5.31 9.2463 5.31 9.3266 5.31 9.2988 5.31 9.1835 5.31 8.9985 5.31 8.759 5.31 8.4776 5.31 8.1653 5.31 7.8308 5.31 7.4819 5.31 7.1247 5.31 6.7643 5.31 6.4049 5.31 6.05 5.31 5.7022 5.31 5.3637 5.31 5.036 5.31 4.7203 5.31 4.4177 5.31 4.1284 5.31 3.853 5.31 3.5915 5.31 3.3438 5.31 3.11 5.31 2.8895 5.31 2.6821 5.31 2.4874 5.31 2.305 5.31 2.1341 5.31 1.9744 5.31 1.8256 5.31 1.6866 5.31 1.5574 5.31 1.4371 5.31 1.3254 5.31 1.2216 5.31 1.1255 5.31 1.0364 5.31.9538 5.31.8775 5.31.8069 5.31.7416 5.31.6815 5.31.6259 5.31.5746" stroke="#7e2f8e"/></g><g fill="none" stroke="#f00" stroke-linecap="butt" transform="translate(94.31 396)"><path d="m0-3v6m-3-3h6m-5.1213-2.1213 4.2426 4.2426m-4.2426 0 4.2426-4.2426"/><path d="m0-3v6m-3-3h6m-5.1213-2.1213 4.2426 4.2426m-4.2426 0 4.2426-4.2426" transform="translate(5.31)"/><path d="m0-3v6m-3-3h6m-5.1213-2.1213 4.2426 4.2426m-4.2426 0 4.2426-4.2426" transform="translate(10.62)"/><path d="m0-3v6m-3-3h6m-5.1213-2.1213 4.2426 4.2426m-4.2426 0 4.2426-4.2426" transform="translate(15.93)"/><path d="m0-3v6m-3-3h6m-5.1213-2.1213 4.2426 4.2426m-4.2426 0 4.2426-4.2426" transform="translate(21.24)"/><path d="m0-3v6m-3-3h6m-5.1213-2.1213 4.2426 4.2426m-4.2426 0 4.2426-4.2426" transform="translate(26.55)"/><path d="m0-3v6m-3-3h6m-5.1213-2.1213 4.2426 4.2426m-4.2426 0 4.2426-4.2426" transform="translate(31.86 -.2417)"/><path d="m0-3v6m-3-3h6m-5.1213-2.1213 4.2426 4.2426m-4.2426 0 4.2426-4.2426" transform="translate(37.17 -1.0271)"/><path d="m0-3v6m-3-3h6m-5.1213-2.1213 4.2426 4.2426m-4.2426 0 4.2426-4.2426" transform="translate(42.48 -3.5646)"/><path d="m0-3v6m-3-3h6m-5.1213-2.1213 4.2426 4.2426m-4.2426 0 4.2426-4.2426" transform="translate(47.79 -4.6521)"/><path d="m0-3v6m-3-3h6m-5.1213-2.1213 4.2426 4.2426m-4.2426 0 4.2426-4.2426" transform="translate(53.1 -5.6187)"/><path d="m0-3v6m-3-3h6m-5.1213-2.1213 4.2426 4.2426m-4.2426 0 4.2426-4.2426" transform="translate(58.41 -9.0021)"/><path d="m0-3v6m-3-3h6m-5.1213-2.1213 4.2426 4.2426m-4.2426 0 4.2426-4.2426" transform="translate(63.72 -7.9146)"/><path d="m0-3v6m-3-3h6m-5.1213-2.1213 4.2426 4.2426m-4.2426 0 4.2426-4.2426" transform="translate(69.03 -15.6479)"/><path d="m0-3v6m-3-3h6m-5.1213-2.1213 4.2426 4.2426m-4.2426 0 4.2426-4.2426" transform="translate(74.34 -27.6104)"/><path d="m0-3v6m-3-3h6m-5.1213-2.1213 4.2426 4.2426m-4.2426 0 4.2426-4.2426" transform="translate(79.65 -40.4792)"/><path d="m0-3v6m-3-3h6m-5.1213-2.1213 4.2426 4.2426m-4.2426 0 4.2426-4.2426" transform="translate(84.96 -47.5479)"/><path d="m0-3v6m-3-3h6m-5.1213-2.1213 4.2426 4.2426m-4.2426 0 4.2426-4.2426" transform="translate(90.27 -106.9979)"/><path d="m0-3v6m-3-3h6m-5.1213-2.1213 4.2426 4.2426m-4.2426 0 4.2426-4.2426" transform="translate(95.58 -88.1479)"/><path d="m0-3v6m-3-3h6m-5.1213-2.1213 4.2426 4.2426m-4.2426 0 4.2426-4.2426" transform="translate(100.89 -104.9438)"/><path d="m0-3v6m-3-3h6m-5.1213-2.1213 4.2426 4.2426m-4.2426 0 4.2426-4.2426" transform="translate(106.2 -119.7458)"/><path d="m0-3v6m-3-3h6m-5.1213-2.1213 4.2426 4.2426m-4.2426 0 4.2426-4.2426" transform="translate(111.51 -126.7542)"/><path d="m0-3v6m-3-3h6m-5.1213-2.1213 4.2426 4.2426m-4.2426 0 4.2426-4.2426" transform="translate(116.82 -172.7312)"/><path d="m0-3v6m-3-3h6m-5.1213-2.1213 4.2426 4.2426m-4.2426 0 4.2426-4.2426" transform="translate(122.13 -170.6771)"/><path d="m0-3v6m-3-3h6m-5.1213-2.1213 4.2426 4.2426m-4.2426 0 4.2426-4.2426" transform="translate(127.44 -195.3271)"/><path d="m0-3v6m-3-3h6m-5.1213-2.1213 4.2426 4.2426m-4.2426 0 4.2426-4.2426" transform="translate(132.75 -234.7792)"/><path d="m0-3v6m-3-3h6m-5.1213-2.1213 4.2426 4.2426m-4.2426 0 4.2426-4.2426" transform="translate(138.06 -223.1792)"/><path d="m0-3v6m-3-3h6m-5.1213-2.1213 4.2426 4.2426m-4.2426 0 4.2426-4.2426" transform="translate(143.37 -189.8896)"/><path d="m0-3v6m-3-3h6m-5.1213-2.1213 4.2426 4.2426m-4.2426 0 4.2426-4.2426" transform="translate(148.68 -204.5104)"/><path d="m0-3v6m-3-3h6m-5.1213-2.1213 4.2426 4.2426m-4.2426 0 4.2426-4.2426" transform="translate(153.99 -160.225)"/><path d="m0-3v6m-3-3h6m-5.1213-2.1213 4.2426 4.2426m-4.2426 0 4.2426-4.2426" transform="translate(159.3 -179.6187)"/><path d="m0-3v6m-3-3h6m-5.1213-2.1213 4.2426 4.2426m-4.2426 0 4.2426-4.2426" transform="translate(164.61 -149.0479)"/><path d="m0-3v6m-3-3h6m-5.1213-2.1213 4.2426 4.2426m-4.2426 0 4.2426-4.2426" transform="translate(169.92 -121.7396)"/><path d="m0-3v6m-3-3h6m-5.1213-2.1213 4.2426 4.2426m-4.2426 0 4.2426-4.2426" transform="translate(175.23 -135.9979)"/><path d="m0-3v6m-3-3h6m-5.1213-2.1213 4.2426 4.2426m-4.2426 0 4.2426-4.2426" transform="translate(180.54 -141.7979)"/><path d="m0-3v6m-3-3h6m-5.1213-2.1213 4.2426 4.2426m-4.2426 0 4.2426-4.2426" transform="translate(185.85 -135.3937)"/><path d="m0-3v6m-3-3h6m-5.1213-2.1213 4.2426 4.2426m-4.2426 0 4.2426-4.2426" transform="translate(191.16 -121.3167)"/><path d="m0-3v6m-3-3h6m-5.1213-2.1213 4.2426 4.2426m-4.2426 0 4.2426-4.2426" transform="translate(196.47 -123.7333)"/><path d="m0-3v6m-3-3h6m-5.1213-2.1213 4.2426 4.2426m-4.2426 0 4.2426-4.2426" transform="translate(201.78 -114.0667)"/><path d="m0-3v6m-3-3h6m-5.1213-2.1213 4.2426 4.2426m-4.2426 0 4.2426-4.2426" transform="translate(207.09 -105.6688)"/><path d="m0-3v6m-3-3h6m-5.1213-2.1213 4.2426 4.2426m-4.2426 0 4.2426-4.2426" transform="translate(212.4 -49.3604)"/><path d="m0-3v6m-3-3h6m-5.1213-2.1213 4.2426 4.2426m-4.2426 0 4.2426-4.2426" transform="translate(217.71 -49.3604)"/><path d="m0-3v6m-3-3h6m-5.1213-2.1213 4.2426 4.2426m-4.2426 0 4.2426-4.2426" transform="translate(223.02 -23.9854)"/><path d="m0-3v6m-3-3h6m-5.1213-2.1213 4.2426 4.2426m-4.2426 0 4.2426-4.2426" transform="translate(228.33 -39.15)"/><path d="m0-3v6m-3-3h6m-5.1213-2.1213 4.2426 4.2426m-4.2426 0 4.2426-4.2426" transform="translate(233.64 -12.9292)"/><path d="m0-3v6m-3-3h6m-5.1213-2.1213 4.2426 4.2426m-4.2426 0 4.2426-4.2426" transform="translate(238.95 -30.6917)"/><path d="m0-3v6m-3-3h6m-5.1213-2.1213 4.2426 4.2426m-4.2426 0 4.2426-4.2426" transform="translate(244.26 -24.5292)"/><path d="m0-3v6m-3-3h6m-5.1213-2.1213 4.2426 4.2426m-4.2426 0 4.2426-4.2426" transform="translate(249.57 -26.1604)"/><path d="m0-3v6m-3-3h6m-5.1213-2.1213 4.2426 4.2426m-4.2426 0 4.2426-4.2426" transform="translate(254.88 -19.7563)"/><path d="m0-3v6m-3-3h6m-5.1213-2.1213 4.2426 4.2426m-4.2426 0 4.2426-4.2426" transform="translate(260.19 -25.7979)"/><path d="m0-3v6m-3-3h6m-5.1213-2.1213 4.2426 4.2426m-4.2426 0 4.2426-4.2426" transform="translate(265.5 -34.6187)"/><path d="m0-3v6m-3-3h6m-5.1213-2.1213 4.2426 4.2426m-4.2426 0 4.2426-4.2426" transform="translate(270.81 -12.2042)"/><path d="m0-3v6m-3-3h6m-5.1213-2.1213 4.2426 4.2426m-4.2426 0 4.2426-4.2426" transform="translate(276.12 -7.5521)"/><path d="m0-3v6m-3-3h6m-5.1213-2.1213 4.2426 4.2426m-4.2426 0 4.2426-4.2426" transform="translate(281.43 -7.1896)"/><path d="m0-3v6m-3-3h6m-5.1213-2.1213 4.2426 4.2426m-4.2426 0 4.2426-4.2426" transform="translate(286.74 -8.3979)"/><path d="m0-3v6m-3-3h6m-5.1213-2.1213 4.2426 4.2426m-4.2426 0 4.2426-4.2426" transform="translate(292.05 -8.6396)"/><path d="m0-3v6m-3-3h6m-5.1213-2.1213 4.2426 4.2426m-4.2426 0 4.2426-4.2426" transform="translate(297.36 -5.9813)"/><path d="m0-3v6m-3-3h6m-5.1213-2.1213 4.2426 4.2426m-4.2426 0 4.2426-4.2426" transform="translate(302.67 -2.6583)"/><path d="m0-3v6m-3-3h6m-5.1213-2.1213 4.2426 4.2426m-4.2426 0 4.2426-4.2426" transform="translate(307.98 -2.4167)"/><path d="m0-3v6m-3-3h6m-5.1213-2.1213 4.2426 4.2426m-4.2426 0 4.2426-4.2426" transform="translate(313.29 -1.1479)"/><path d="m0-3v6m-3-3h6m-5.1213-2.1213 4.2426 4.2426m-4.2426 0 4.2426-4.2426" transform="translate(318.6 -1.45)"/><path d="m0-3v6m-3-3h6m-5.1213-2.1213 4.2426 4.2426m-4.2426 0 4.2426-4.2426" transform="translate(323.91 -.9062)"/><path d="m0-3v6m-3-3h6m-5.1213-2.1213 4.2426 4.2426m-4.2426 0 4.2426-4.2426" transform="translate(329.22 -1.2083)"/><path d="m0-3v6m-3-3h6m-5.1213-2.1213 4.2426 4.2426m-4.2426 0 4.2426-4.2426" transform="translate(334.53 -.6646)"/><path d="m0-3v6m-3-3h6m-5.1213-2.1213 4.2426 4.2426m-4.2426 0 4.2426-4.2426" transform="translate(339.84 -1.2083)"/><path d="m0-3v6m-3-3h6m-5.1213-2.1213 4.2426 4.2426m-4.2426 0 4.2426-4.2426" transform="translate(345.15 -.9667)"/><path d="m0-3v6m-3-3h6m-5.1213-2.1213 4.2426 4.2426m-4.2426 0 4.2426-4.2426" transform="translate(350.46 -1.2687)"/><path d="m0-3v6m-3-3h6m-5.1213-2.1213 4.2426 4.2426m-4.2426 0 4.2426-4.2426" transform="translate(355.77 -.7854)"/><path d="m0-3v6m-3-3h6m-5.1213-2.1213 4.2426 4.2426m-4.2426 0 4.2426-4.2426" transform="translate(361.08 -2.0542)"/><path d="m0-3v6m-3-3h6m-5.1213-2.1213 4.2426 4.2426m-4.2426 0 4.2426-4.2426" transform="translate(366.39 -2.3563)"/><path d="m0-3v6m-3-3h6m-5.1213-2.1213 4.2426 4.2426m-4.2426 0 4.2426-4.2426" transform="translate(371.7 -2.4771)"/><path d="m0-3v6m-3-3h6m-5.1213-2.1213 4.2426 4.2426m-4.2426 0 4.2426-4.2426" transform="translate(377.01 -2.7792)"/><path d="m0-3v6m-3-3h6m-5.1213-2.1213 4.2426 4.2426m-4.2426 0 4.2426-4.2426" transform="translate(382.32 -2.3563)"/><path d="m0-3v6m-3-3h6m-5.1213-2.1213 4.2426 4.2426m-4.2426 0 4.2426-4.2426" transform="translate(387.63 -4.7125)"/><path d="m0-3v6m-3-3h6m-5.1213-2.1213 4.2426 4.2426m-4.2426 0 4.2426-4.2426" transform="translate(392.94 -2.8396)"/><path d="m0-3v6m-3-3h6m-5.1213-2.1213 4.2426 4.2426m-4.2426 0 4.2426-4.2426" transform="translate(398.25 -4.0479)"/><path d="m0-3v6m-3-3h6m-5.1213-2.1213 4.2426 4.2426m-4.2426 0 4.2426-4.2426" transform="translate(403.56 -3.3229)"/><path d="m0-3v6m-3-3h6m-5.1213-2.1213 4.2426 4.2426m-4.2426 0 4.2426-4.2426" transform="translate(408.87 -3.2625)"/><path d="m0-3v6m-3-3h6m-5.1213-2.1213 4.2426 4.2426m-4.2426 0 4.2426-4.2426" transform="translate(414.18 -2.7188)"/><path d="m0-3v6m-3-3h6m-5.1213-2.1213 4.2426 4.2426m-4.2426 0 4.2426-4.2426" transform="translate(419.49 -1.8729)"/><path d="m0-3v6m-3-3h6m-5.1213-2.1213 4.2426 4.2426m-4.2426 0 4.2426-4.2426" transform="translate(424.8 -2.9)"/><path d="m0-3v6m-3-3h6m-5.1213-2.1213 4.2426 4.2426m-4.2426 0 4.2426-4.2426" transform="translate(430.11 -2.175)"/><path d="m0-3v6m-3-3h6m-5.1213-2.1213 4.2426 4.2426m-4.2426 0 4.2426-4.2426" transform="translate(435.42 -2.1146)"/><path d="m0-3v6m-3-3h6m-5.1213-2.1213 4.2426 4.2426m-4.2426 0 4.2426-4.2426" transform="translate(440.73 -1.8729)"/><path d="m0-3v6m-3-3h6m-5.1213-2.1213 4.2426 4.2426m-4.2426 0 4.2426-4.2426" transform="translate(446.04 -1.1479)"/></g><path d="m-4-4v8h8v-8z" stroke="none" transform="translate(227.06 161.2208)"/><path d="m-4-4v8h8v-8z" fill="none" stroke="#ffffdc" stroke-linecap="butt" transform="translate(227.06 161.2208)"/><path d="m-4-4v8h8v-8z" stroke="none" transform="translate(354.5 163.176)"/><path d="m-4-4v8h8v-8z" fill="none" stroke="#ffffdc" stroke-linecap="butt" transform="translate(354.5 163.176)"/></g><path d="m610 104.5v-61h-77v61z" style="stroke:none;fill:#fff;text-rendering:optimizeSpeed;color-rendering:optimizeSpeed;image-rendering:optimizeSpeed;shape-rendering:crispEdges;color-interpolation:sRGB"/><path color-interpolation="linearRGB" color-rendering="optimizeQuality" d="m1.782.917c-.324 1.062-.711 2.088-1.161 3.096l.594.261c.414-.981.792-2.025 1.134-3.132zm-.639-4.653-.459.441c.549.432.981.837 1.305 1.224l.459-.468c-.351-.396-.783-.801-1.305-1.197zm-.225 2.16-.459.45c.594.468 1.053.918 1.395 1.341l.459-.468c-.378-.441-.837-.882-1.395-1.323zm6.066.666c.306.54.756 1.044 1.341 1.503l.387-.477c-.63-.432-1.08-.918-1.368-1.458h1.062v-.576h-1.188c.018-.198.036-.414.045-.648v-.063h.99v-.567h-.99v-.666h-.585v.666h-.945v.567h.945v.063c-.009.225-.027.441-.045.648h-1.008v.576h.882c-.036.135-.09.261-.144.387-.216.396-.585.711-1.116.945l.333.513c.576-.261.999-.621 1.26-1.08.054-.108.099-.216.144-.333zm-4.248-2.286v.567h.999v.099c0 .207-.018.414-.036.612h-1.134v.576h1.026c-.054.18-.108.351-.18.513-.216.423-.594.765-1.134 1.017l.324.513c.594-.27 1.026-.648 1.287-1.134.036-.072.063-.135.09-.207.243.198.54.486.9.846l.333-.495c-.36-.306-.72-.585-1.071-.819l.054-.234h1.134v-.576h-1.044c.018-.189.027-.396.036-.612v-.099h.882v-.567h-.882v-.675h-.585v.675zm5.067 3.816h-4.41v3.78h.648v-.378h3.114v.378h.648zm-3.762 2.835v-.837h3.114v.837zm0-1.386v-.873h3.114v.873zm6.516-2.817v5.166h.648v-6.291c.27-.549.504-1.125.684-1.728l-.603-.288c-.405 1.404-1.053 2.655-1.953 3.753l.216.684c.369-.414.702-.846 1.008-1.296zm5.418-2.862-.504.306c.477.549.855 1.044 1.134 1.494l.513-.351c-.27-.414-.648-.9-1.143-1.449zm-1.071-.216h-.648c0 .558-.018 1.386-.054 2.466h-2.313v.621h2.268c-.234 1.764-1.107 3.321-2.619 4.653l.45.495c1.314-1.143 2.187-2.565 2.637-4.257.423 1.728 1.287 3.141 2.592 4.248l.441-.486c-1.359-1.098-2.259-2.655-2.691-4.653h2.52v-.621h-2.628c.027-.972.045-1.791.045-2.466zm4.41.909v.603h2.466v1.071h-3.267v.612h4.095c-1.278.738-2.682 1.296-4.221 1.656l.27.603c.522-.171 1.026-.342 1.512-.522v3.312h.657v-.405h3.897v.405h.648v-4.05h-3.402c.522-.243.999-.486 1.413-.738.135-.09.27-.171.405-.261h2.745v-.612h-1.926c.603-.486 1.17-1.053 1.701-1.683l-.495-.36c-.639.756-1.386 1.44-2.232 2.043h-1.134v-1.071h2.124v-.603h-2.124v-.954h-.666v.954zm1.512 5.373h3.897v.981h-3.897zm3.897-.576h-3.897v-.945h3.897z" image-rendering="optimizeQuality" stroke="none" text-rendering="geometricPrecision" transform="translate(570 51)"/><path d="m537 51h30" style="fill:none;stroke-linecap:butt;text-rendering:geometricPrecision;image-rendering:optimizeQuality;color-rendering:optimizeQuality;stroke-linejoin:round;stroke:#0072bd;color-interpolation:linearRGB;stroke-width:.5"/><path color-interpolation="linearRGB" color-rendering="optimizeQuality" d="m1.503-.622v5.04h.648v-6.021c.36-.621.648-1.278.882-1.971l-.612-.288c-.441 1.386-1.143 2.619-2.097 3.69l.207.693c.351-.36.675-.747.972-1.143zm1.647-2.079v.63h1.602c-.09.342-.189.693-.297 1.044h-1.701v.621h1.503c-.207.603-.432 1.188-.666 1.746h3.852c-.414.54-.972 1.053-1.683 1.548-.522-.252-1.062-.486-1.62-.702l-.342.504c1.152.432 2.286 1.026 3.384 1.782l.369-.558c-.396-.261-.801-.504-1.224-.729.828-.63 1.431-1.26 1.809-1.89v-.558h-3.699c.144-.351.297-.729.441-1.143h3.762v-.621h-3.555c.108-.333.207-.684.306-1.044h2.88v-.63h-2.718c.081-.351.162-.72.252-1.098l-.63-.063-.27 1.161zm9.351 4.437c-.54.72-1.575 1.359-3.087 1.926l.369.612c1.611-.72 2.7-1.566 3.267-2.538h.135v2.646h.666v-2.646h.126c.648 1.008 1.755 1.827 3.339 2.439l.297-.621c-1.395-.441-2.421-1.044-3.078-1.818h2.871v-.594h-3.555v-.765h-.666v.765h-3.564v.594zm1.107-5.58v.954h-1.278v.603h1.242c-.054.486-.171.909-.351 1.251-.27.459-.729.828-1.395 1.107l.351.549c.72-.297 1.242-.711 1.566-1.233.252-.432.423-.99.495-1.674h1.17l-.009 2.061c0 .441.234.666.72.666h.531c.324 0 .54-.099.648-.288.108-.198.198-.666.27-1.422l-.576-.189c-.045.648-.099 1.026-.153 1.134-.063.108-.162.162-.288.171h-.306c-.144 0-.207-.072-.207-.207v-2.529h-1.764v-.954zm-3.123.162-.324.486c.513.198 1.017.477 1.503.828l.324-.495c-.45-.324-.945-.594-1.503-.819zm-.576 1.206-.324.486c.468.18.918.423 1.368.738l.324-.495c-.414-.288-.873-.531-1.368-.729zm1.692 1.107c-.576.648-1.224 1.224-1.953 1.71l.45.495c.684-.486 1.35-1.107 1.98-1.845zm7.713-1.548v.603h2.466v1.071h-3.267v.612h4.095c-1.278.738-2.682 1.296-4.221 1.656l.27.603c.522-.171 1.026-.342 1.512-.522v3.312h.657v-.405h3.897v.405h.648v-4.05h-3.402c.522-.243.999-.486 1.413-.738.135-.09.27-.171.405-.261h2.745v-.612h-1.926c.603-.486 1.17-1.053 1.701-1.683l-.495-.36c-.639.756-1.386 1.44-2.232 2.043h-1.134v-1.071h2.124v-.603h-2.124v-.954h-.666v.954zm1.512 5.373h3.897v.981h-3.897zm3.897-.576h-3.897v-.945h3.897z" image-rendering="optimizeQuality" stroke="none" text-rendering="geometricPrecision" transform="translate(570 62.5)"/><path d="m537 62.5h30" style="fill:none;stroke-linecap:butt;text-rendering:geometricPrecision;image-rendering:optimizeQuality;color-rendering:optimizeQuality;stroke-linejoin:round;stroke:#d95319;color-interpolation:linearRGB;stroke-width:.5"/><path color-interpolation="linearRGB" color-rendering="optimizeQuality" d="m7.578 1.034v-1.233h.882v-.54h-.882v-1.242h-2.232v-.666h3.015v-.576h-3.132c-.099-.252-.207-.486-.315-.684l-.666.108c.108.171.216.36.324.576h-3.438v2.898c-.027 1.827-.297 3.249-.801 4.266l.486.432c.585-1.152.9-2.673.945-4.572h2.961v.702h-2.277v.531h2.277v.81c-.837.612-1.827 1.125-2.961 1.557l.252.585c1.035-.45 1.935-.954 2.709-1.512v1.035c0 .198-.099.306-.288.306-.288 0-.585-.018-.909-.045l.126.585h.999c.459 0 .693-.234.693-.693v-1.449c.81.81 1.773 1.449 2.889 1.917l.324-.567c-.702-.261-1.332-.576-1.899-.945.477-.288.9-.612 1.26-.972l-.468-.405c-.342.396-.765.747-1.251 1.053-.306-.234-.585-.486-.855-.765v-.495zm-5.814-1.773v-1.908h2.961v.666h-2.241v.531h2.241v.711zm3.582-.711h1.611v.711h-1.611zm1.611 1.251v.702h-1.611v-.702zm-4.446 1.611-.315.459c.423.162.837.387 1.233.666l.306-.459c-.369-.27-.774-.486-1.224-.666zm8.991-4.032h5.562v-.567h-5.265c.09-.207.171-.423.243-.639l-.639-.108c-.333 1.008-.963 1.854-1.89 2.556l.387.504c.396-.297.738-.621 1.044-.972v2.691h1.152c-.486.648-1.242 1.179-2.277 1.593l.333.549c.468-.216.891-.459 1.26-.711.486.423 1.035.783 1.647 1.08-.927.27-2.043.432-3.348.486l.261.567c1.512-.09 2.79-.324 3.852-.72 1.026.396 2.205.621 3.519.684l.153-.594c-1.062-.036-2.034-.18-2.898-.432.738-.378 1.332-.846 1.782-1.422v-.468h-4.032c.162-.198.315-.396.45-.612h3.564v-2.844h-5.292c.153-.198.297-.405.432-.621zm2.331 5.715c-.729-.288-1.377-.657-1.953-1.107h3.699c-.441.441-1.026.81-1.746 1.107zm1.899-2.772h-4.149v-.666h4.149zm-4.149-1.152v-.657h4.149v.657zm7.731-2.088v.603h2.466v1.071h-3.267v.612h4.095c-1.278.738-2.682 1.296-4.221 1.656l.27.603c.522-.171 1.026-.342 1.512-.522v3.312h.657v-.405h3.897v.405h.648v-4.05h-3.402c.522-.243.999-.486 1.413-.738.135-.09.27-.171.405-.261h2.745v-.612h-1.926c.603-.486 1.17-1.053 1.701-1.683l-.495-.36c-.639.756-1.386 1.44-2.232 2.043h-1.134v-1.071h2.124v-.603h-2.124v-.954h-.666v.954zm1.512 5.373h3.897v.981h-3.897zm3.897-.576h-3.897v-.945h3.897z" image-rendering="optimizeQuality" stroke="none" text-rendering="geometricPrecision" transform="translate(570 74)"/><path d="m537 74h30" style="fill:none;stroke-linecap:butt;text-rendering:geometricPrecision;image-rendering:optimizeQuality;color-rendering:optimizeQuality;stroke-linejoin:round;stroke:#edb120;color-interpolation:linearRGB;stroke-width:.5"/><path color-interpolation="linearRGB" color-rendering="optimizeQuality" d="m8.046-3.763c-.873.378-1.854.585-2.943.603v3.852c-.045 1.368-.333 2.439-.864 3.213l.459.486c.648-.918.99-2.151 1.035-3.699v-1.071h1.332v4.806h.639v-4.806h.936v-.621h-2.907v-1.638c.972-.054 1.845-.243 2.637-.549zm-7.497.693v.594h4.059v-.594h-1.701c-.126-.324-.252-.621-.387-.891l-.666.108c.153.234.288.495.414.783zm-.09 2.043v.585h1.818v1.008h-1.674v.594h1.674v2.394c0 .216-.117.324-.351.324-.126 0-.261-.018-.405-.045l.135.603h.486c.522 0 .783-.243.783-.729v-2.547h1.584v-.594h-1.584v-1.008h1.737v-.585h-1.017c.171-.306.324-.657.468-1.044l-.585-.198c-.135.432-.288.846-.468 1.242h-.99c-.144-.486-.306-.891-.477-1.224l-.576.207c.18.315.342.657.477 1.017zm.774 2.673c-.198.792-.504 1.512-.927 2.16l.54.342c.414-.675.747-1.467.981-2.376zm2.583-.063-.54.144c.252.54.459 1.098.63 1.665l.54-.207c-.144-.486-.36-1.017-.63-1.602zm5.625-3.033v.612h.981v3.222c-.342.108-.684.207-1.035.288l.162.639c.909-.27 1.764-.603 2.556-.999v-.648c-.342.18-.693.342-1.044.486v-2.988h.909v-.612h-.909v-2.358h-.639v2.358zm4.365-2.394-.648.108c.162.315.306.657.432 1.035h-1.233v3.033h4.932v-3.033h-1.188c.153-.342.27-.72.36-1.116l-.648-.09c-.072.414-.189.819-.351 1.206h-1.269c-.126-.432-.261-.81-.387-1.143zm2.916 3.645h-1.665v-1.962h1.665zm-2.178 0h-1.62v-1.962h1.62zm-.801-1.593-.423.135c.162.36.306.747.423 1.143l.423-.108c-.126-.441-.27-.828-.423-1.17zm2.115-.045c-.126.486-.261.882-.423 1.197l.414.153c.18-.36.333-.774.45-1.242zm1.107 2.772h-4.248v3.474h.621v-.378h3.006v.378h.621zm-3.627 2.565v-.765h3.006v.765zm0-1.269v-.765h3.006v.765z" image-rendering="optimizeQuality" stroke="none" text-rendering="geometricPrecision" transform="translate(570 85.5)"/><path d="m537 85.5h30" style="fill:none;stroke-linecap:butt;text-rendering:geometricPrecision;image-rendering:optimizeQuality;color-rendering:optimizeQuality;stroke-linejoin:round;stroke:#7e2f8e;color-interpolation:linearRGB;stroke-width:.5"/><path color-interpolation="linearRGB" color-rendering="optimizeQuality" d="m3.456 3.221c.774-.288 1.503-.63 2.187-1.026l-.171-.567c-.414.252-.846.477-1.278.675v-5.895h-.612v5.796c0 .18-.108.324-.324.432zm-1.989 1.053c.495 0 .747-.279.747-.828v-2.52c.333-.144.657-.306.972-.468v-.63c-.324.18-.648.342-.972.486v-1.89h.918v-.621h-.918v-1.656h-.63v1.656h-1.053v.621h1.053v2.142c-.378.144-.765.261-1.161.351l.144.621c.342-.108.675-.225 1.017-.351v2.097c0 .279-.117.423-.333.423s-.45-.018-.693-.045l.135.612zm5.697-8.064c0 1.755-.135 3.204-.405 4.338-.342 1.35-1.053 2.466-2.133 3.357l.405.495c.792-.648 1.404-1.413 1.836-2.295.522.801.945 1.548 1.278 2.232l.513-.351c-.36-.72-.864-1.548-1.53-2.502.099-.288.189-.594.261-.909.27-1.188.405-2.646.405-4.365zm-1.818.981-.531.171c.387.702.738 1.503 1.062 2.403l.531-.243c-.306-.828-.657-1.602-1.062-2.331zm7.92-1.053c-1.062 1.251-2.385 2.295-3.987 3.141l.342.621c1.602-.9 2.898-1.953 3.879-3.177 1.062 1.296 2.34 2.349 3.843 3.159l.351-.621c-1.494-.756-2.817-1.8-3.96-3.123zm3.078 4.626h-5.688v3.627h.63v-.54h4.428v.54h.63zm-5.058 2.466v-1.854h4.428v1.854zm-.126-4.23v.621h4.68v-.621zm12.762-.855h1.332c-.036 1.215-.225 2.277-.576 3.186-.36-.756-.648-1.665-.873-2.718zm.459 3.834c-.414.765-.963 1.386-1.665 1.872l.333.54c.675-.486 1.233-1.089 1.665-1.809.45.756.99 1.368 1.62 1.818l.351-.531c-.648-.441-1.197-1.062-1.665-1.872.504-1.062.783-2.349.828-3.852h.585v-.621h-2.376c.072-.396.144-.828.198-1.287l-.63-.108c-.18 1.71-.54 3.069-1.071 4.077l.405.495c.189-.324.369-.693.531-1.107.243.9.54 1.692.891 2.385zm-4.266-1.647c-.063.18-.135.369-.216.567h-1.314v.567h1.062c-.18.36-.387.729-.621 1.125.441.162.855.333 1.251.504-.522.297-1.161.54-1.899.738l.306.54c.9-.252 1.647-.585 2.241-.999.531.234.99.477 1.386.711l.351-.504c-.396-.216-.81-.414-1.242-.612.468-.432.801-.945.999-1.539v-.531h-1.881c.054-.162.117-.324.18-.495zm.711 2.385c-.324-.135-.666-.261-1.026-.387.18-.27.342-.558.486-.864h1.548c-.216.468-.558.891-1.008 1.251zm-1.53-6.399-.513.171c.216.342.414.729.603 1.17l.468-.216c-.162-.396-.342-.774-.558-1.125zm2.736-.027c-.162.378-.396.756-.684 1.143l.459.234c.288-.378.513-.765.693-1.161zm-3.429 1.584v.567h1.278c-.27.495-.756.945-1.449 1.35l.315.522c.774-.522 1.314-1.134 1.611-1.845v1.71h.603v-1.17c.324.216.711.504 1.161.864l.333-.504c-.504-.306-1.008-.585-1.494-.828v-.099h1.638v-.567h-1.638v-1.719h-.603v1.719zm9.873 6.444c.504 0 .756-.27.756-.792v-2.628c.279-.126.558-.252.837-.396v-.639c-.27.144-.549.279-.837.405v-1.773h.864v-.621h-.864v-1.701h-.63v1.701h-1.08v.621h1.08v2.034c-.396.144-.81.27-1.224.369l.162.63c.351-.108.702-.234 1.062-.369v2.205c0 .252-.117.387-.342.387-.216 0-.45-.018-.684-.045l.135.612zm2.691-3.978h1.836v1.107h-1.503v2.952h.603v-.441h2.439v.441h.603v-2.952h-1.512v-1.107h1.926v-.585h-1.926v-1.062h1.692v-2.187h-4.743v2.817c-.009 1.89-.333 3.438-.972 4.626l.504.45c.594-1.17.945-2.52 1.053-4.059zm1.836-1.647v1.062h-1.8c0-.144.009-.288.009-.432v-.63zm-.9 4.689v-1.359h2.439v1.359zm2.592-6.273v.999h-3.483v-.999z" image-rendering="optimizeQuality" stroke="none" text-rendering="geometricPrecision" transform="translate(570 97)"/><g style="stroke-linecap:butt;text-rendering:geometricPrecision;color-rendering:optimizeQuality;image-rendering:optimizeQuality;color-interpolation:linearRGB;stroke:#f00;fill:none" transform="translate(552 97)"><path d="m0-3v6m-3-3h6m-5.1213-2.1213 4.2426 4.2426m-4.2426 0 4.2426-4.2426"/><path d="m533 104.5v-61h77v61z" stroke="#262626" stroke-width=".5" transform="translate(-552 -97)"/></g><path d="m232.06 156.2208h41v-32h-41z" style="stroke:none;fill:#ffe;text-rendering:optimizeSpeed;color-rendering:optimizeSpeed;image-rendering:optimizeSpeed;shape-rendering:crispEdges;color-interpolation:sRGB"/><path d="m232.06 156.2208h41v-32h-41z" style="fill:none;stroke-linecap:butt;text-rendering:geometricPrecision;color-rendering:optimizeQuality;image-rendering:optimizeQuality;stroke:#ccc;color-interpolation:linearRGB;stroke-width:.5"/><path color-interpolation="linearRGB" color-rendering="optimizeQuality" d="m2.48-19.67-2.48 3.67h1.06l1.98-2.95 1.92 2.95h1.16l-2.51-3.67 2.36-3.47h-1.06l-1.86 2.79-1.78-2.79h-1.14zm5.57-.39v-1.11h-1.11v1.11zm-1.11 2.95v1.11h1.11v-1.11zm5.17-3.47h.85q-.01-.32.065-.635.075-.315.245-.565.17-.25.435-.405.265-.155.635-.155.28 0 .53.09.25.09.435.26.185.17.295.405.11.235.11.525 0 .37-.115.65-.115.28-.34.52-.225.24-.565.475-.34.235-.79.515-.37.22-.71.47-.34.25-.61.58-.27.33-.445.775-.175.445-.225 1.075h4.63v-.75h-3.64q.06-.33.255-.585.195-.255.47-.475.275-.22.605-.415.33-.195.66-.395.33-.21.64-.44.31-.23.55-.515.24-.285.385-.645.145-.36.145-.83 0-.5-.175-.88-.175-.38-.475-.635-.3-.255-.705-.39-.405-.135-.865-.135-.56 0-1 .19-.44.19-.735.525-.295.335-.435.795-.14.46-.11 1zm9.26-.7h.85q-.08-.88-.6-1.345-.52-.465-1.4-.465-.76 0-1.26.32-.5.32-.8.85-.3.53-.425 1.215-.125.685-.125 1.415 0 .56.085 1.16.085.6.345 1.1.26.5.74.82.48.32 1.27.32.67 0 1.125-.225.455-.225.73-.57.275-.345.395-.765.12-.42.12-.81 0-.49-.15-.91-.15-.42-.425-.73-.275-.31-.68-.485-.405-.175-.915-.175-.58 0-1.025.22-.445.22-.745.71l-.02-.02q.01-.41.08-.88.07-.47.255-.875.185-.405.515-.67.33-.265.87-.265.51 0 .82.29.31.29.37.77zm-1.28 1.47q.36 0 .63.13.27.13.45.345.18.215.265.51.085.295.085.625 0 .31-.095.595-.095.285-.275.505-.18.22-.445.345-.265.125-.615.125-.35 0-.625-.125-.275-.125-.46-.335-.185-.21-.285-.5-.1-.29-.1-.62 0-.33.095-.625.095-.295.285-.51.19-.215.46-.34.27-.125.63-.125z" image-rendering="optimizeQuality" stroke="none" text-rendering="geometricPrecision" transform="translate(235.06 153.2208)"/><path color-interpolation="linearRGB" color-rendering="optimizeQuality" d="m3.73-5.92 2.73-4.22h-1.08l-2.09 3.4-2.14-3.4h-1.13l2.76 4.22v2.92h.95zm4.69-1.14v-1.11h-1.11v1.11zm-1.11 2.95v1.11h1.11v-1.11zm6.91-2.94v.72q.24-.03.51-.03.32 0 .595.085.275.085.475.26.2.175.32.43.12.255.12.585 0 .32-.125.575-.125.255-.335.43-.21.175-.49.27-.28.095-.59.095-.73 0-1.11-.435-.38-.435-.4-1.125h-.85q-.01.55.155.98.165.43.475.725.31.295.75.445.44.15.98.15.5 0 .945-.135.445-.135.775-.405.33-.27.525-.675.195-.405.195-.935 0-.64-.315-1.11-.315-.47-.965-.61v-.02q.42-.19.7-.56.28-.37.28-.85 0-.49-.165-.85-.165-.36-.455-.59-.29-.23-.685-.345-.395-.115-.855-.115-.53 0-.935.17-.405.17-.675.47-.27.3-.415.72-.145.42-.165.93h.85q0-.31.08-.59.08-.28.245-.49.165-.21.42-.335.255-.125.595-.125.54 0 .9.285.36.285.36.855 0 .28-.11.5-.11.22-.295.365-.185.145-.43.22-.245.075-.515.075h-.18q-.05 0-.1 0-.04 0-.09-.01zm4.93-1.2q0-.27.1-.47.1-.2.265-.34.165-.14.395-.21.23-.07.48-.07.52 0 .855.275.335.275.335.815 0 .54-.33.84-.33.3-.84.3-.26 0-.49-.07-.23-.07-.4-.21-.17-.14-.27-.355-.1-.215-.1-.505zm-.9-.03q0 .48.27.885.27.405.72.585-.6.21-.92.675-.32.465-.32 1.095 0 .54.185.945.185.405.51.675.325.27.765.4.44.13.95.13.49 0 .92-.14.43-.14.745-.415.315-.275.5-.675.185-.4.185-.92 0-.66-.31-1.115-.31-.455-.95-.655.45-.2.715-.595.265-.395.265-.875 0-.34-.12-.665-.12-.325-.375-.58-.255-.255-.665-.41-.41-.155-.99-.155-.41 0-.785.12-.375.12-.665.35-.29.23-.46.565-.17.335-.17.775zm.65 3.28q0-.31.115-.56.115-.25.32-.43.205-.18.48-.275.275-.095.585-.095.3 0 .565.105.265.105.465.285.2.18.315.425.115.245.115.535 0 .3-.105.55-.105.25-.3.435-.195.185-.46.29-.265.105-.585.105-.66 0-1.085-.365-.425-.365-.425-1.005zm5.81-3.25q0-.27.1-.47.1-.2.265-.34.165-.14.395-.21.23-.07.48-.07.52 0 .855.275.335.275.335.815 0 .54-.33.84-.33.3-.84.3-.26 0-.49-.07-.23-.07-.4-.21-.17-.14-.27-.355-.1-.215-.1-.505zm-.9-.03q0 .48.27.885.27.405.72.585-.6.21-.92.675-.32.465-.32 1.095 0 .54.185.945.185.405.51.675.325.27.765.4.44.13.95.13.49 0 .92-.14.43-.14.745-.415.315-.275.5-.675.185-.4.185-.92 0-.66-.31-1.115-.31-.455-.95-.655.45-.2.715-.595.265-.395.265-.875 0-.34-.12-.665-.12-.325-.375-.58-.255-.255-.665-.41-.41-.155-.99-.155-.41 0-.785.12-.375.12-.665.35-.29.23-.46.565-.17.335-.17.775zm.65 3.28q0-.31.115-.56.115-.25.32-.43.205-.18.48-.275.275-.095.585-.095.3 0 .565.105.265.105.465.285.2.18.315.425.115.245.115.535 0 .3-.105.55-.105.25-.3.435-.195.185-.46.29-.265.105-.585.105-.66 0-1.085-.365-.425-.365-.425-1.005zm8.4-3.28h.85q-.08-.88-.6-1.345-.52-.465-1.4-.465-.76 0-1.26.32-.5.32-.8.85-.3.53-.425 1.215-.125.685-.125 1.415 0 .56.085 1.16.085.6.345 1.1.26.5.74.82.48.32 1.27.32.67 0 1.125-.225.455-.225.73-.57.275-.345.395-.765.12-.42.12-.81 0-.49-.15-.91-.15-.42-.425-.73-.275-.31-.68-.485-.405-.175-.915-.175-.58 0-1.025.22-.445.22-.745.71l-.02-.02q.01-.41.08-.88.07-.47.255-.875.185-.405.515-.67.33-.265.87-.265.51 0 .82.29.31.29.37.77zm-1.28 1.47q.36 0 .63.13.27.13.45.345.18.215.265.51.085.295.085.625 0 .31-.095.595-.095.285-.275.505-.18.22-.445.345-.265.125-.615.125-.35 0-.625-.125-.275-.125-.46-.335-.185-.21-.285-.5-.1-.29-.1-.62 0-.33.095-.625.095-.295.285-.51.19-.215.46-.34.27-.125.63-.125z" image-rendering="optimizeQuality" stroke="none" text-rendering="geometricPrecision" transform="translate(235.06 153.2208)"/><path d="m359.5 158.176h41v-32h-41z" style="stroke:none;fill:#ffe;text-rendering:optimizeSpeed;color-rendering:optimizeSpeed;image-rendering:optimizeSpeed;shape-rendering:crispEdges;color-interpolation:sRGB"/><path d="m359.5 158.176h41v-32h-41z" style="fill:none;stroke-linecap:butt;text-rendering:geometricPrecision;color-rendering:optimizeQuality;image-rendering:optimizeQuality;stroke:#ccc;color-interpolation:linearRGB;stroke-width:.5"/><path color-interpolation="linearRGB" color-rendering="optimizeQuality" d="m2.48-19.67-2.48 3.67h1.06l1.98-2.95 1.92 2.95h1.16l-2.51-3.67 2.36-3.47h-1.06l-1.86 2.79-1.78-2.79h-1.14zm5.57-.39v-1.11h-1.11v1.11zm-1.11 2.95v1.11h1.11v-1.11zm9.43-5.11v-.75h-3.5l-.66 3.68.73.04q.25-.3.575-.485.325-.185.745-.185.36 0 .655.12.295.12.505.335.21.215.325.51.115.295.115.645 0 .42-.12.735-.12.315-.325.525-.205.21-.48.315-.275.105-.575.105-.32 0-.585-.095-.265-.095-.46-.27-.195-.175-.31-.41-.115-.235-.135-.505h-.85q.01.48.19.86.18.38.49.635.31.255.715.39.405.135.865.135.62 0 1.085-.195.465-.195.775-.525.31-.33.465-.755.155-.425.155-.875 0-.61-.18-1.065-.18-.455-.49-.76-.31-.305-.73-.455-.42-.15-.89-.15-.36 0-.725.125-.365.125-.595.385l-.02-.02.38-2.04zm2.18 2.73q0-.26.005-.575.005-.315.05-.63.045-.315.13-.615.085-.3.25-.525.165-.225.415-.365.25-.14.61-.14.36 0 .61.14.25.14.415.365.165.225.25.525.085.3.13.615.045.315.05.63.005.315.005.575 0 .4-.025.895-.025.495-.16.93-.135.435-.435.735-.3.3-.84.3-.54 0-.84-.3-.3-.3-.435-.735-.135-.435-.16-.93-.025-.495-.025-.895zm-.9.01q0 .39.02.81.02.42.1.82.08.4.23.755.15.355.41.625.26.27.655.425.395.155.945.155.56 0 .95-.155.39-.155.65-.425.26-.27.41-.625.15-.355.23-.755.08-.4.1-.82.02-.42.02-.81 0-.39-.02-.81-.02-.42-.1-.82-.08-.4-.23-.76-.15-.36-.41-.63-.26-.27-.655-.43-.395-.16-.945-.16-.55 0-.945.16-.395.16-.655.43-.26.27-.41.63-.15.36-.23.76-.08.4-.1.82-.02.42-.02.81z" image-rendering="optimizeQuality" stroke="none" text-rendering="geometricPrecision" transform="translate(362.5 155.176)"/><path color-interpolation="linearRGB" color-rendering="optimizeQuality" d="m3.73-5.92 2.73-4.22h-1.08l-2.09 3.4-2.14-3.4h-1.13l2.76 4.22v2.92h.95zm4.69-1.14v-1.11h-1.11v1.11zm-1.11 2.95v1.11h1.11v-1.11zm6.91-2.94v.72q.24-.03.51-.03.32 0 .595.085.275.085.475.26.2.175.32.43.12.255.12.585 0 .32-.125.575-.125.255-.335.43-.21.175-.49.27-.28.095-.59.095-.73 0-1.11-.435-.38-.435-.4-1.125h-.85q-.01.55.155.98.165.43.475.725.31.295.75.445.44.15.98.15.5 0 .945-.135.445-.135.775-.405.33-.27.525-.675.195-.405.195-.935 0-.64-.315-1.11-.315-.47-.965-.61v-.02q.42-.19.7-.56.28-.37.28-.85 0-.49-.165-.85-.165-.36-.455-.59-.29-.23-.685-.345-.395-.115-.855-.115-.53 0-.935.17-.405.17-.675.47-.27.3-.415.72-.145.42-.165.93h.85q0-.31.08-.59.08-.28.245-.49.165-.21.42-.335.255-.125.595-.125.54 0 .9.285.36.285.36.855 0 .28-.11.5-.11.22-.295.365-.185.145-.43.22-.245.075-.515.075h-.18q-.05 0-.1 0-.04 0-.09-.01zm4.93-1.2q0-.27.1-.47.1-.2.265-.34.165-.14.395-.21.23-.07.48-.07.52 0 .855.275.335.275.335.815 0 .54-.33.84-.33.3-.84.3-.26 0-.49-.07-.23-.07-.4-.21-.17-.14-.27-.355-.1-.215-.1-.505zm-.9-.03q0 .48.27.885.27.405.72.585-.6.21-.92.675-.32.465-.32 1.095 0 .54.185.945.185.405.51.675.325.27.765.4.44.13.95.13.49 0 .92-.14.43-.14.745-.415.315-.275.5-.675.185-.4.185-.92 0-.66-.31-1.115-.31-.455-.95-.655.45-.2.715-.595.265-.395.265-.875 0-.34-.12-.665-.12-.325-.375-.58-.255-.255-.665-.41-.41-.155-.99-.155-.41 0-.785.12-.375.12-.665.35-.29.23-.46.565-.17.335-.17.775zm.65 3.28q0-.31.115-.56.115-.25.32-.43.205-.18.48-.275.275-.095.585-.095.3 0 .565.105.265.105.465.285.2.18.315.425.115.245.115.535 0 .3-.105.55-.105.25-.3.435-.195.185-.46.29-.265.105-.585.105-.66 0-1.085-.365-.425-.365-.425-1.005zm8.96-4.22v-.75h-3.5l-.66 3.68.73.04q.25-.3.575-.485.325-.185.745-.185.36 0 .655.12.295.12.505.335.21.215.325.51.115.295.115.645 0 .42-.12.735-.12.315-.325.525-.205.21-.48.315-.275.105-.575.105-.32 0-.585-.095-.265-.095-.46-.27-.195-.175-.31-.41-.115-.235-.135-.505h-.85q.01.48.19.86.18.38.49.635.31.255.715.39.405.135.865.135.62 0 1.085-.195.465-.195.775-.525.31-.33.465-.755.155-.425.155-.875 0-.61-.18-1.065-.18-.455-.49-.76-.31-.305-.73-.455-.42-.15-.89-.15-.36 0-.725.125-.365.125-.595.385l-.02-.02.38-2.04zm4.25 3.81h-2.38l2.36-3.47h.02zm.8 0v-4.68h-.68l-3.23 4.61v.82h3.11v1.66h.8v-1.66h.96v-.75z" image-rendering="optimizeQuality" stroke="none" text-rendering="geometricPrecision" transform="translate(362.5 155.176)"/><path d="m-4-4v8h8v-8z" style="stroke:none;fill-opacity:.3922;text-rendering:geometricPrecision;color-rendering:optimizeQuality;image-rendering:optimizeQuality;color-interpolation:linearRGB" transform="translate(227.06 161.2208)"/><path d="m-4-4v8h8v-8z" style="fill:none;stroke-linecap:butt;text-rendering:geometricPrecision;color-rendering:optimizeQuality;image-rendering:optimizeQuality;stroke:#ffffdc;color-interpolation:linearRGB;stroke-opacity:.3922" transform="translate(227.06 161.2208)"/><path d="m-4-4v8h8v-8z" style="stroke:none;fill-opacity:.3922;text-rendering:geometricPrecision;color-rendering:optimizeQuality;image-rendering:optimizeQuality;color-interpolation:linearRGB" transform="translate(354.5 163.176)"/><path d="m-4-4v8h8v-8z" style="fill:none;stroke-linecap:butt;text-rendering:geometricPrecision;color-rendering:optimizeQuality;image-rendering:optimizeQuality;stroke:#ffffdc;color-interpolation:linearRGB;stroke-opacity:.3922" transform="translate(354.5 163.176)"/></svg>