<svg color-interpolation="auto" height="435" stroke="#000" stroke-linecap="square" stroke-miterlimit="10" width="684" xmlns="http://www.w3.org/2000/svg" xmlns:xlink="http://www.w3.org/1999/xlink"><clipPath id="a"><path color-interpolation="auto" d="m0 0h684v435h-684z"/></clipPath><path clip-path="url(#a)" d="m0 0h684v435h-684z" fill="#fff" stroke="none"/><g style="fill:#fff;text-rendering:optimizeSpeed;color-rendering:optimizeSpeed;image-rendering:optimizeSpeed;shape-rendering:crispEdges;color-interpolation:sRGB;stroke:none"><path d="m0 0h684v435h-684z"/><path d="m89 387h530v-354.5h-530z"/></g><g color-interpolation="linearRGB" color-rendering="optimizeQuality" image-rendering="optimizeQuality" text-rendering="geometricPrecision"><g style="stroke-linecap:butt;fill-opacity:.149;stroke-linejoin:round;stroke:#262626;stroke-width:.5;stroke-opacity:.149;fill:none"><path d="m89 387v-354.5"/><path d="m177.3333 387v-354.5"/><path d="m265.6667 387v-354.5"/><path d="m354 387v-354.5"/><path d="m442.3333 387v-354.5"/><path d="m530.6667 387v-354.5"/><path d="m619 387v-354.5"/><path d="m619 387h-530"/><path d="m619 327.9167h-530"/><path d="m619 268.8333h-530"/><path d="m619 209.75h-530"/><path d="m619 150.6667h-530"/><path d="m619 91.5833h-530"/><path d="m619 32.5h-530"/><g stroke-linecap="square" stroke-opacity="1"><path d="m89 387h530"/><path d="m89 32.5h530"/><path d="m89 387v-5.3"/><path d="m177.3333 387v-5.3"/><path d="m265.6667 387v-5.3"/><path d="m354 387v-5.3"/><path d="m442.3333 387v-5.3"/><path d="m530.6667 387v-5.3"/><path d="m619 387v-5.3"/><path d="m89 32.5v5.3"/><path d="m177.3333 32.5v5.3"/><path d="m265.6667 32.5v5.3"/><path d="m354 32.5v5.3"/><path d="m442.3333 32.5v5.3"/><path d="m530.6667 32.5v5.3"/><path d="m619 32.5v5.3"/></g></g><path d="m-1.68 6.51q0-.26.005-.575.005-.315.05-.63.045-.315.13-.615.085-.3.25-.525.165-.225.415-.365.25-.14.61-.14.36 0 .61.14.25.14.415.365.165.225.25.525.085.3.13.615.045.315.05.63.005.315.005.575 0 .4-.025.895-.025.495-.16.93-.135.435-.435.735-.3.3-.84.3-.54 0-.84-.3-.3-.3-.435-.735-.135-.435-.16-.93-.025-.495-.025-.895zm-.9.01q0 .39.02.81.02.42.1.82.08.4.23.755.15.355.41.625.26.27.655.425.395.155.945.155.56 0 .95-.155.39-.155.65-.425.26-.27.41-.625.15-.355.23-.755.08-.4.1-.82.02-.42.02-.81 0-.39-.02-.81-.02-.42-.1-.82-.08-.4-.23-.76-.15-.36-.41-.63-.26-.27-.655-.43-.395-.16-.945-.16-.55 0-.945.16-.395.16-.655.43-.26.27-.41.63-.15.36-.23.76-.08.4-.1.82-.02.42-.02.81z" fill="#262626" stroke="none" transform="translate(89 391)"/><path d="m-5.56 5.42h.85q-.01-.32.065-.635.075-.315.245-.565.17-.25.435-.405.265-.155.635-.155.28 0 .53.09.25.09.435.26.185.17.295.405.11.235.11.525 0 .37-.115.65-.115.28-.34.52-.225.24-.565.475-.34.235-.79.515-.37.22-.71.47-.34.25-.61.58-.27.33-.445.775-.175.445-.225 1.075h4.63v-.75h-3.64q.06-.33.255-.585.195-.255.47-.475.275-.22.605-.415.33-.195.66-.395.33-.21.64-.44.31-.23.55-.515.24-.285.385-.645.145-.36.145-.83 0-.5-.175-.88-.175-.38-.475-.635-.3-.255-.705-.39-.405-.135-.865-.135-.56 0-1 .19-.44.19-.735.525-.295.335-.435.795-.14.46-.11 1zm6.44 1.09q0-.26.005-.575.005-.315.05-.63.045-.315.13-.615.085-.3.25-.525.165-.225.415-.365.25-.14.61-.14.36 0 .61.14.25.14.415.365.165.225.25.525.085.3.13.615.045.315.05.63.005.315.005.575 0 .4-.025.895-.025.495-.16.93-.135.435-.435.735-.3.3-.84.3-.54 0-.84-.3-.3-.3-.435-.735-.135-.435-.16-.93-.025-.495-.025-.895zm-.9.01q0 .39.02.81.02.42.1.82.08.4.23.755.15.355.41.625.26.27.655.425.395.155.945.155.56 0 .95-.155.39-.155.65-.425.26-.27.41-.625.15-.355.23-.755.08-.4.1-.82.02-.42.02-.81 0-.39-.02-.81-.02-.42-.1-.82-.08-.4-.23-.76-.15-.36-.41-.63-.26-.27-.655-.43-.395-.16-.945-.16-.55 0-.945.16-.395.16-.655.43-.26.27-.41.63-.15.36-.23.76-.08.4-.1.82-.02.42-.02.81z" fill="#262626" stroke="none" transform="translate(177.3333 391)"/><path d="m-2.61 7.59h-2.38l2.36-3.47h.02zm.8 0v-4.68h-.68l-3.23 4.61v.82h3.11v1.66h.8v-1.66h.96v-.75zm2.69-1.08q0-.26.005-.575.005-.315.05-.63.045-.315.13-.615.085-.3.25-.525.165-.225.415-.365.25-.14.61-.14.36 0 .61.14.25.14.415.365.165.225.25.525.085.3.13.615.045.315.05.63.005.315.005.575 0 .4-.025.895-.025.495-.16.93-.135.435-.435.735-.3.3-.84.3-.54 0-.84-.3-.3-.3-.435-.735-.135-.435-.16-.93-.025-.495-.025-.895zm-.9.01q0 .39.02.81.02.42.1.82.08.4.23.755.15.355.41.625.26.27.655.425.395.155.945.155.56 0 .95-.155.39-.155.65-.425.26-.27.41-.625.15-.355.23-.755.08-.4.1-.82.02-.42.02-.81 0-.39-.02-.81-.02-.42-.1-.82-.08-.4-.23-.76-.15-.36-.41-.63-.26-.27-.655-.43-.395-.16-.945-.16-.55 0-.945.16-.395.16-.655.43-.26.27-.41.63-.15.36-.23.76-.08.4-.1.82-.02.42-.02.81z" fill="#262626" stroke="none" transform="translate(265.6667 391)"/><path d="m-1.86 4.72h.85q-.08-.88-.6-1.345-.52-.465-1.4-.465-.76 0-1.26.32-.5.32-.8.85-.3.53-.425 1.215-.125.685-.125 1.415 0 .56.085 1.16.085.6.345 1.1.26.5.74.82.48.32 1.27.32.67 0 1.125-.225.455-.225.73-.57.275-.345.395-.765.12-.42.12-.81 0-.49-.15-.91-.15-.42-.425-.73-.275-.31-.68-.485-.405-.175-.915-.175-.58 0-1.025.22-.445.22-.745.71l-.02-.02q.01-.41.08-.88.07-.47.255-.875.185-.405.515-.67.33-.265.87-.265.51 0 .82.29.31.29.37.77zm-1.28 1.47q.36 0 .63.13.27.13.45.345.18.215.265.51.085.295.085.625 0 .31-.095.595-.095.285-.275.505-.18.22-.445.345-.265.125-.615.125-.35 0-.625-.125-.275-.125-.46-.335-.185-.21-.285-.5-.1-.29-.1-.62 0-.33.095-.625.095-.295.285-.51.19-.215.46-.34.27-.125.63-.125zm4.02.32q0-.26.005-.575.005-.315.05-.63.045-.315.13-.615.085-.3.25-.525.165-.225.415-.365.25-.14.61-.14.36 0 .61.14.25.14.415.365.165.225.25.525.085.3.13.615.045.315.05.63.005.315.005.575 0 .4-.025.895-.025.495-.16.93-.135.435-.435.735-.3.3-.84.3-.54 0-.84-.3-.3-.3-.435-.735-.135-.435-.16-.93-.025-.495-.025-.895zm-.9.01q0 .39.02.81.02.42.1.82.08.4.23.755.15.355.41.625.26.27.655.425.395.155.945.155.56 0 .95-.155.39-.155.65-.425.26-.27.41-.625.15-.355.23-.755.08-.4.1-.82.02-.42.02-.81 0-.39-.02-.81-.02-.42-.1-.82-.08-.4-.23-.76-.15-.36-.41-.63-.26-.27-.655-.43-.395-.16-.945-.16-.55 0-.945.16-.395.16-.655.43-.26.27-.41.63-.15.36-.23.76-.08.4-.1.82-.02.42-.02.81z" fill="#262626" stroke="none" transform="translate(354 391)"/><path d="m-4.45 4.75q0-.27.1-.47.1-.2.265-.34.165-.14.395-.21.23-.07.48-.07.52 0 .855.275.335.275.335.815 0 .54-.33.84-.33.3-.84.3-.26 0-.49-.07-.23-.07-.4-.21-.17-.14-.27-.355-.1-.215-.1-.505zm-.9-.03q0 .48.27.885.27.405.72.585-.6.21-.92.675-.32.465-.32 1.095 0 .54.185.945.185.405.51.675.325.27.765.4.44.13.95.13.49 0 .92-.14.43-.14.745-.415.315-.275.5-.675.185-.4.185-.92 0-.66-.31-1.115-.31-.455-.95-.655.45-.2.715-.595.265-.395.265-.875 0-.34-.12-.665-.12-.325-.375-.58-.255-.255-.665-.41-.41-.155-.99-.155-.41 0-.785.12-.375.12-.665.35-.29.23-.46.565-.17.335-.17.775zm.65 3.28q0-.31.115-.56.115-.25.32-.43.205-.18.48-.275.275-.095.585-.095.3 0 .565.105.265.105.465.285.2.18.315.425.115.245.115.535 0 .3-.105.55-.105.25-.3.435-.195.185-.46.29-.265.105-.585.105-.66 0-1.085-.365-.425-.365-.425-1.005zm5.58-1.49q0-.26.005-.575.005-.315.05-.63.045-.315.13-.615.085-.3.25-.525.165-.225.415-.365.25-.14.61-.14.36 0 .61.14.25.14.415.365.165.225.25.525.085.3.13.615.045.315.05.63.005.315.005.575 0 .4-.025.895-.025.495-.16.93-.135.435-.435.735-.3.3-.84.3-.54 0-.84-.3-.3-.3-.435-.735-.135-.435-.16-.93-.025-.495-.025-.895zm-.9.01q0 .39.02.81.02.42.1.82.08.4.23.755.15.355.41.625.26.27.655.425.395.155.945.155.56 0 .95-.155.39-.155.65-.425.26-.27.41-.625.15-.355.23-.755.08-.4.1-.82.02-.42.02-.81 0-.39-.02-.81-.02-.42-.1-.82-.08-.4-.23-.76-.15-.36-.41-.63-.26-.27-.655-.43-.395-.16-.945-.16-.55 0-.945.16-.395.16-.655.43-.26.27-.41.63-.15.36-.23.76-.08.4-.1.82-.02.42-.02.81z" fill="#262626" stroke="none" transform="translate(442.3333 391)"/><path d="m-4.94 10v-7.09h-.65q-.07.4-.26.66-.19.26-.465.41-.275.15-.615.205-.34.055-.7.055v.68h1.84v5.08zm3.32-3.49q0-.26.005-.575.005-.315.05-.63.045-.315.13-.615.085-.3.25-.525.165-.225.415-.365.25-.14.61-.14.36 0 .61.14.25.14.415.365.165.225.25.525.085.3.13.615.045.315.05.63.005.315.005.575 0 .4-.025.895-.025.495-.16.93-.135.435-.435.735-.3.3-.84.3-.54 0-.84-.3-.3-.3-.435-.735-.135-.435-.16-.93-.025-.495-.025-.895zm-.9.01q0 .39.02.81.02.42.1.82.08.4.23.755.15.355.41.625.26.27.655.425.395.155.945.155.56 0 .95-.155.39-.155.65-.425.26-.27.41-.625.15-.355.23-.755.08-.4.1-.82.02-.42.02-.81 0-.39-.02-.81-.02-.42-.1-.82-.08-.4-.23-.76-.15-.36-.41-.63-.26-.27-.655-.43-.395-.16-.945-.16-.55 0-.945.16-.395.16-.655.43-.26.27-.41.63-.15.36-.23.76-.08.4-.1.82-.02.42-.02.81zm6.46-.01q0-.26.005-.575.005-.315.05-.63.045-.315.13-.615.085-.3.25-.525.165-.225.415-.365.25-.14.61-.14.36 0 .61.14.25.14.415.365.165.225.25.525.085.3.13.615.045.315.05.63.005.315.005.575 0 .4-.025.895-.025.495-.16.93-.135.435-.435.735-.3.3-.84.3-.54 0-.84-.3-.3-.3-.435-.735-.135-.435-.16-.93-.025-.495-.025-.895zm-.9.01q0 .39.02.81.02.42.1.82.08.4.23.755.15.355.41.625.26.27.655.425.395.155.945.155.56 0 .95-.155.39-.155.65-.425.26-.27.41-.625.15-.355.23-.755.08-.4.1-.82.02-.42.02-.81 0-.39-.02-.81-.02-.42-.1-.82-.08-.4-.23-.76-.15-.36-.41-.63-.26-.27-.655-.43-.395-.16-.945-.16-.55 0-.945.16-.395.16-.655.43-.26.27-.41.63-.15.36-.23.76-.08.4-.1.82-.02.42-.02.81z" fill="#262626" stroke="none" transform="translate(530.6667 391)"/><path d="m-4.94 10v-7.09h-.65q-.07.4-.26.66-.19.26-.465.41-.275.15-.615.205-.34.055-.7.055v.68h1.84v5.08zm2.44-4.58h.85q-.01-.32.065-.635.075-.315.245-.565.17-.25.435-.405.265-.155.635-.155.28 0 .53.09.25.09.435.26.185.17.295.405.11.235.11.525 0 .37-.115.65-.115.28-.34.52-.225.24-.565.475-.34.235-.79.515-.37.22-.71.47-.34.25-.61.58-.27.33-.445.775-.175.445-.225 1.075h4.63v-.75h-3.64q.06-.33.255-.585.195-.255.47-.475.275-.22.605-.415.33-.195.66-.395.33-.21.64-.44.31-.23.55-.515.24-.285.385-.645.145-.36.145-.83 0-.5-.175-.88-.175-.38-.475-.635-.3-.255-.705-.39-.405-.135-.865-.135-.56 0-1 .19-.44.19-.735.525-.295.335-.435.795-.14.46-.11 1zm6.44 1.09q0-.26.005-.575.005-.315.05-.63.045-.315.13-.615.085-.3.25-.525.165-.225.415-.365.25-.14.61-.14.36 0 .61.14.25.14.415.365.165.225.25.525.085.3.13.615.045.315.05.63.005.315.005.575 0 .4-.025.895-.025.495-.16.93-.135.435-.435.735-.3.3-.84.3-.54 0-.84-.3-.3-.3-.435-.735-.135-.435-.16-.93-.025-.495-.025-.895zm-.9.01q0 .39.02.81.02.42.1.82.08.4.23.755.15.355.41.625.26.27.655.425.395.155.945.155.56 0 .95-.155.39-.155.65-.425.26-.27.41-.625.15-.355.23-.755.08-.4.1-.82.02-.42.02-.81 0-.39-.02-.81-.02-.42-.1-.82-.08-.4-.23-.76-.15-.36-.41-.63-.26-.27-.655-.43-.395-.16-.945-.16-.55 0-.945.16-.395.16-.655.43-.26.27-.41.63-.15.36-.23.76-.08.4-.1.82-.02.42-.02.81z" fill="#262626" stroke="none" transform="translate(619 391)"/><path d="m-4.631 5.907v.759h3.828c-.187.726-.418 1.331-.704 1.815-.693 1.166-1.859 2.167-3.498 3.003l.495.649c1.76-.935 3.003-2.057 3.751-3.355.286-.506.517-1.144.704-1.892.781 2.266 2.299 4.015 4.565 5.247l.495-.638c-2.156-1.122-3.619-2.739-4.389-4.829h4.048v-.759h-4.51c.132-.748.22-1.584.286-2.53h3.905v-.77h-8.69v.77h3.982c-.055.935-.143 1.782-.275 2.53z" fill="#262626" stroke="none" transform="translate(354.0002 404.5)"/><g fill="none" stroke="#262626" stroke-linejoin="round" stroke-width=".5"><path d="m89 387v-354.5"/><path d="m619 387v-354.5"/><path d="m89 387h5.3"/><path d="m89 327.9167h5.3"/><path d="m89 268.8333h5.3"/><path d="m89 209.75h5.3"/><path d="m89 150.6667h5.3"/><path d="m89 91.5833h5.3"/><path d="m89 32.5h5.3"/><path d="m619 387h-5.3"/><path d="m619 327.9167h-5.3"/><path d="m619 268.8333h-5.3"/><path d="m619 209.75h-5.3"/><path d="m619 150.6667h-5.3"/><path d="m619 91.5833h-5.3"/><path d="m619 32.5h-5.3"/></g><path d="m-4.68.01q0-.26.005-.575.005-.315.05-.63.045-.315.13-.615.085-.3.25-.525.165-.225.415-.365.25-.14.61-.14.36 0 .61.14.25.14.415.365.165.225.25.525.085.3.13.615.045.315.05.63.005.315.005.575 0 .4-.025.895-.025.495-.16.93-.135.435-.435.735-.3.3-.84.3-.54 0-.84-.3-.3-.3-.435-.735-.135-.435-.16-.93-.025-.495-.025-.895zm-.9.01q0 .39.02.81.02.42.1.82.08.4.23.755.15.355.41.625.26.27.655.425.395.155.945.155.56 0 .95-.155.39-.155.65-.425.26-.27.41-.625.15-.355.23-.755.08-.4.1-.82.02-.42.02-.81 0-.39-.02-.81-.02-.42-.1-.82-.08-.4-.23-.76-.15-.36-.41-.63-.26-.27-.655-.43-.395-.16-.945-.16-.55 0-.945.16-.395.16-.655.43-.26.27-.41.63-.15.36-.23.76-.08.4-.1.82-.02.42-.02.81z" fill="#262626" stroke="none" transform="translate(85 387)"/><path d="m-19.44 3.5v-7.09h-.65q-.07.4-.26.66-.19.26-.465.41-.275.15-.615.205-.34.055-.7.055v.68h1.84v5.08zm3.32-3.49q0-.26.005-.575.005-.315.05-.63.045-.315.13-.615.085-.3.25-.525.165-.225.415-.365.25-.14.61-.14.36 0 .61.14.25.14.415.365.165.225.25.525.085.3.13.615.045.315.05.63.005.315.005.575 0 .4-.025.895-.025.495-.16.93-.135.435-.435.735-.3.3-.84.3-.54 0-.84-.3-.3-.3-.435-.735-.135-.435-.16-.93-.025-.495-.025-.895zm-.9.01q0 .39.02.81.02.42.1.82.08.4.23.755.15.355.41.625.26.27.655.425.395.155.945.155.56 0 .95-.155.39-.155.65-.425.26-.27.41-.625.15-.355.23-.755.08-.4.1-.82.02-.42.02-.81 0-.39-.02-.81-.02-.42-.1-.82-.08-.4-.23-.76-.15-.36-.41-.63-.26-.27-.655-.43-.395-.16-.945-.16-.55 0-.945.16-.395.16-.655.43-.26.27-.41.63-.15.36-.23.76-.08.4-.1.82-.02.42-.02.81zm6.46-.01q0-.26.005-.575.005-.315.05-.63.045-.315.13-.615.085-.3.25-.525.165-.225.415-.365.25-.14.61-.14.36 0 .61.14.25.14.415.365.165.225.25.525.085.3.13.615.045.315.05.63.005.315.005.575 0 .4-.025.895-.025.495-.16.93-.135.435-.435.735-.3.3-.84.3-.54 0-.84-.3-.3-.3-.435-.735-.135-.435-.16-.93-.025-.495-.025-.895zm-.9.01q0 .39.02.81.02.42.1.82.08.4.23.755.15.355.41.625.26.27.655.425.395.155.945.155.56 0 .95-.155.39-.155.65-.425.26-.27.41-.625.15-.355.23-.755.08-.4.1-.82.02-.42.02-.81 0-.39-.02-.81-.02-.42-.1-.82-.08-.4-.23-.76-.15-.36-.41-.63-.26-.27-.655-.43-.395-.16-.945-.16-.55 0-.945.16-.395.16-.655.43-.26.27-.41.63-.15.36-.23.76-.08.4-.1.82-.02.42-.02.81zm6.46-.01q0-.26.005-.575.005-.315.05-.63.045-.315.13-.615.085-.3.25-.525.165-.225.415-.365.25-.14.61-.14.36 0 .61.14.25.14.415.365.165.225.25.525.085.3.13.615.045.315.05.63.005.315.005.575 0 .4-.025.895-.025.495-.16.93-.135.435-.435.735-.3.3-.84.3-.54 0-.84-.3-.3-.3-.435-.735-.135-.435-.16-.93-.025-.495-.025-.895zm-.9.01q0 .39.02.81.02.42.1.82.08.4.23.755.15.355.41.625.26.27.655.425.395.155.945.155.56 0 .95-.155.39-.155.65-.425.26-.27.41-.625.15-.355.23-.755.08-.4.1-.82.02-.42.02-.81 0-.39-.02-.81-.02-.42-.1-.82-.08-.4-.23-.76-.15-.36-.41-.63-.26-.27-.655-.43-.395-.16-.945-.16-.55 0-.945.16-.395.16-.655.43-.26.27-.41.63-.15.36-.23.76-.08.4-.1.82-.02.42-.02.81z" fill="#262626" stroke="none" transform="translate(85 327.9167)"/><path d="m-22.56-1.08h.85q-.01-.32.065-.635.075-.315.245-.565.17-.25.435-.405.265-.155.635-.155.28 0 .53.09.25.09.435.26.185.17.295.405.11.235.11.525 0 .37-.115.65-.115.28-.34.52-.225.24-.565.475-.34.235-.79.515-.37.22-.71.47-.34.25-.61.58-.27.33-.445.775-.175.445-.225 1.075h4.63v-.75h-3.64q.06-.33.255-.585.195-.255.47-.475.275-.22.605-.415.33-.195.66-.395.33-.21.64-.44.31-.23.55-.515.24-.285.385-.645.145-.36.145-.83 0-.5-.175-.88-.175-.38-.475-.635-.3-.255-.705-.39-.405-.135-.865-.135-.56 0-1 .19-.44.19-.735.525-.295.335-.435.795-.14.46-.11 1zm6.44 1.09q0-.26.005-.575.005-.315.05-.63.045-.315.13-.615.085-.3.25-.525.165-.225.415-.365.25-.14.61-.14.36 0 .61.14.25.14.415.365.165.225.25.525.085.3.13.615.045.315.05.63.005.315.005.575 0 .4-.025.895-.025.495-.16.93-.135.435-.435.735-.3.3-.84.3-.54 0-.84-.3-.3-.3-.435-.735-.135-.435-.16-.93-.025-.495-.025-.895zm-.9.01q0 .39.02.81.02.42.1.82.08.4.23.755.15.355.41.625.26.27.655.425.395.155.945.155.56 0 .95-.155.39-.155.65-.425.26-.27.41-.625.15-.355.23-.755.08-.4.1-.82.02-.42.02-.81 0-.39-.02-.81-.02-.42-.1-.82-.08-.4-.23-.76-.15-.36-.41-.63-.26-.27-.655-.43-.395-.16-.945-.16-.55 0-.945.16-.395.16-.655.43-.26.27-.41.63-.15.36-.23.76-.08.4-.1.82-.02.42-.02.81zm6.46-.01q0-.26.005-.575.005-.315.05-.63.045-.315.13-.615.085-.3.25-.525.165-.225.415-.365.25-.14.61-.14.36 0 .61.14.25.14.415.365.165.225.25.525.085.3.13.615.045.315.05.63.005.315.005.575 0 .4-.025.895-.025.495-.16.93-.135.435-.435.735-.3.3-.84.3-.54 0-.84-.3-.3-.3-.435-.735-.135-.435-.16-.93-.025-.495-.025-.895zm-.9.01q0 .39.02.81.02.42.1.82.08.4.23.755.15.355.41.625.26.27.655.425.395.155.945.155.56 0 .95-.155.39-.155.65-.425.26-.27.41-.625.15-.355.23-.755.08-.4.1-.82.02-.42.02-.81 0-.39-.02-.81-.02-.42-.1-.82-.08-.4-.23-.76-.15-.36-.41-.63-.26-.27-.655-.43-.395-.16-.945-.16-.55 0-.945.16-.395.16-.655.43-.26.27-.41.63-.15.36-.23.76-.08.4-.1.82-.02.42-.02.81zm6.46-.01q0-.26.005-.575.005-.315.05-.63.045-.315.13-.615.085-.3.25-.525.165-.225.415-.365.25-.14.61-.14.36 0 .61.14.25.14.415.365.165.225.25.525.085.3.13.615.045.315.05.63.005.315.005.575 0 .4-.025.895-.025.495-.16.93-.135.435-.435.735-.3.3-.84.3-.54 0-.84-.3-.3-.3-.435-.735-.135-.435-.16-.93-.025-.495-.025-.895zm-.9.01q0 .39.02.81.02.42.1.82.08.4.23.755.15.355.41.625.26.27.655.425.395.155.945.155.56 0 .95-.155.39-.155.65-.425.26-.27.41-.625.15-.355.23-.755.08-.4.1-.82.02-.42.02-.81 0-.39-.02-.81-.02-.42-.1-.82-.08-.4-.23-.76-.15-.36-.41-.63-.26-.27-.655-.43-.395-.16-.945-.16-.55 0-.945.16-.395.16-.655.43-.26.27-.41.63-.15.36-.23.76-.08.4-.1.82-.02.42-.02.81z" fill="#262626" stroke="none" transform="translate(85 268.8333)"/><path d="m-20.82-.55v.72q.24-.03.51-.03.32 0 .595.085.275.085.475.26.2.175.32.43.12.255.12.585 0 .32-.125.575-.125.255-.335.43-.21.175-.49.27-.28.095-.59.095-.73 0-1.11-.435-.38-.435-.4-1.125h-.85q-.01.55.155.98.165.43.475.725.31.295.75.445.44.15.98.15.5 0 .945-.135.445-.135.775-.405.33-.27.525-.675.195-.405.195-.935 0-.64-.315-1.11-.315-.47-.965-.61v-.02q.42-.19.7-.56.28-.37.28-.85 0-.49-.165-.85-.165-.36-.455-.59-.29-.23-.685-.345-.395-.115-.855-.115-.53 0-.935.17-.405.17-.675.47-.27.3-.415.72-.145.42-.165.93h.85q0-.31.08-.59.08-.28.245-.49.165-.21.42-.335.255-.125.595-.125.54 0 .9.285.36.285.36.855 0 .28-.11.5-.11.22-.295.365-.185.145-.43.22-.245.075-.515.075h-.18q-.05 0-.1 0-.04 0-.09-.01zm4.7.56q0-.26.005-.575.005-.315.05-.63.045-.315.13-.615.085-.3.25-.525.165-.225.415-.365.25-.14.61-.14.36 0 .61.14.25.14.415.365.165.225.25.525.085.3.13.615.045.315.05.63.005.315.005.575 0 .4-.025.895-.025.495-.16.93-.135.435-.435.735-.3.3-.84.3-.54 0-.84-.3-.3-.3-.435-.735-.135-.435-.16-.93-.025-.495-.025-.895zm-.9.01q0 .39.02.81.02.42.1.82.08.4.23.755.15.355.41.625.26.27.655.425.395.155.945.155.56 0 .95-.155.39-.155.65-.425.26-.27.41-.625.15-.355.23-.755.08-.4.1-.82.02-.42.02-.81 0-.39-.02-.81-.02-.42-.1-.82-.08-.4-.23-.76-.15-.36-.41-.63-.26-.27-.655-.43-.395-.16-.945-.16-.55 0-.945.16-.395.16-.655.43-.26.27-.41.63-.15.36-.23.76-.08.4-.1.82-.02.42-.02.81zm6.46-.01q0-.26.005-.575.005-.315.05-.63.045-.315.13-.615.085-.3.25-.525.165-.225.415-.365.25-.14.61-.14.36 0 .61.14.25.14.415.365.165.225.25.525.085.3.13.615.045.315.05.63.005.315.005.575 0 .4-.025.895-.025.495-.16.93-.135.435-.435.735-.3.3-.84.3-.54 0-.84-.3-.3-.3-.435-.735-.135-.435-.16-.93-.025-.495-.025-.895zm-.9.01q0 .39.02.81.02.42.1.82.08.4.23.755.15.355.41.625.26.27.655.425.395.155.945.155.56 0 .95-.155.39-.155.65-.425.26-.27.41-.625.15-.355.23-.755.08-.4.1-.82.02-.42.02-.81 0-.39-.02-.81-.02-.42-.1-.82-.08-.4-.23-.76-.15-.36-.41-.63-.26-.27-.655-.43-.395-.16-.945-.16-.55 0-.945.16-.395.16-.655.43-.26.27-.41.63-.15.36-.23.76-.08.4-.1.82-.02.42-.02.81zm6.46-.01q0-.26.005-.575.005-.315.05-.63.045-.315.13-.615.085-.3.25-.525.165-.225.415-.365.25-.14.61-.14.36 0 .61.14.25.14.415.365.165.225.25.525.085.3.13.615.045.315.05.63.005.315.005.575 0 .4-.025.895-.025.495-.16.93-.135.435-.435.735-.3.3-.84.3-.54 0-.84-.3-.3-.3-.435-.735-.135-.435-.16-.93-.025-.495-.025-.895zm-.9.01q0 .39.02.81.02.42.1.82.08.4.23.755.15.355.41.625.26.27.655.425.395.155.945.155.56 0 .95-.155.39-.155.65-.425.26-.27.41-.625.15-.355.23-.755.08-.4.1-.82.02-.42.02-.81 0-.39-.02-.81-.02-.42-.1-.82-.08-.4-.23-.76-.15-.36-.41-.63-.26-.27-.655-.43-.395-.16-.945-.16-.55 0-.945.16-.395.16-.655.43-.26.27-.41.63-.15.36-.23.76-.08.4-.1.82-.02.42-.02.81z" fill="#262626" stroke="none" transform="translate(85 209.75)"/><path d="m-19.61 1.09h-2.38l2.36-3.47h.02zm.8 0v-4.68h-.68l-3.23 4.61v.82h3.11v1.66h.8v-1.66h.96v-.75zm2.69-1.08q0-.26.005-.575.005-.315.05-.63.045-.315.13-.615.085-.3.25-.525.165-.225.415-.365.25-.14.61-.14.36 0 .61.14.25.14.415.365.165.225.25.525.085.3.13.615.045.315.05.63.005.315.005.575 0 .4-.025.895-.025.495-.16.93-.135.435-.435.735-.3.3-.84.3-.54 0-.84-.3-.3-.3-.435-.735-.135-.435-.16-.93-.025-.495-.025-.895zm-.9.01q0 .39.02.81.02.42.1.82.08.4.23.755.15.355.41.625.26.27.655.425.395.155.945.155.56 0 .95-.155.39-.155.65-.425.26-.27.41-.625.15-.355.23-.755.08-.4.1-.82.02-.42.02-.81 0-.39-.02-.81-.02-.42-.1-.82-.08-.4-.23-.76-.15-.36-.41-.63-.26-.27-.655-.43-.395-.16-.945-.16-.55 0-.945.16-.395.16-.655.43-.26.27-.41.63-.15.36-.23.76-.08.4-.1.82-.02.42-.02.81zm6.46-.01q0-.26.005-.575.005-.315.05-.63.045-.315.13-.615.085-.3.25-.525.165-.225.415-.365.25-.14.61-.14.36 0 .61.14.25.14.415.365.165.225.25.525.085.3.13.615.045.315.05.63.005.315.005.575 0 .4-.025.895-.025.495-.16.93-.135.435-.435.735-.3.3-.84.3-.54 0-.84-.3-.3-.3-.435-.735-.135-.435-.16-.93-.025-.495-.025-.895zm-.9.01q0 .39.02.81.02.42.1.82.08.4.23.755.15.355.41.625.26.27.655.425.395.155.945.155.56 0 .95-.155.39-.155.65-.425.26-.27.41-.625.15-.355.23-.755.08-.4.1-.82.02-.42.02-.81 0-.39-.02-.81-.02-.42-.1-.82-.08-.4-.23-.76-.15-.36-.41-.63-.26-.27-.655-.43-.395-.16-.945-.16-.55 0-.945.16-.395.16-.655.43-.26.27-.41.63-.15.36-.23.76-.08.4-.1.82-.02.42-.02.81zm6.46-.01q0-.26.005-.575.005-.315.05-.63.045-.315.13-.615.085-.3.25-.525.165-.225.415-.365.25-.14.61-.14.36 0 .61.14.25.14.415.365.165.225.25.525.085.3.13.615.045.315.05.63.005.315.005.575 0 .4-.025.895-.025.495-.16.93-.135.435-.435.735-.3.3-.84.3-.54 0-.84-.3-.3-.3-.435-.735-.135-.435-.16-.93-.025-.495-.025-.895zm-.9.01q0 .39.02.81.02.42.1.82.08.4.23.755.15.355.41.625.26.27.655.425.395.155.945.155.56 0 .95-.155.39-.155.65-.425.26-.27.41-.625.15-.355.23-.755.08-.4.1-.82.02-.42.02-.81 0-.39-.02-.81-.02-.42-.1-.82-.08-.4-.23-.76-.15-.36-.41-.63-.26-.27-.655-.43-.395-.16-.945-.16-.55 0-.945.16-.395.16-.655.43-.26.27-.41.63-.15.36-.23.76-.08.4-.1.82-.02.42-.02.81z" fill="#262626" stroke="none" transform="translate(85 150.6667)"/><path d="m-18.3-2.72v-.75h-3.5l-.66 3.68.73.04q.25-.3.575-.485.325-.185.745-.185.36 0 .655.12.295.12.505.335.21.215.325.51.115.295.115.645 0 .42-.12.735-.12.315-.325.525-.205.21-.48.315-.275.105-.575.105-.32 0-.585-.095-.265-.095-.46-.27-.195-.175-.31-.41-.115-.235-.135-.505h-.85q.01.48.19.86.18.38.49.635.31.255.715.39.405.135.865.135.62 0 1.085-.195.465-.195.775-.525.31-.33.465-.755.155-.425.155-.875 0-.61-.18-1.065-.18-.455-.49-.76-.31-.305-.73-.455-.42-.15-.89-.15-.36 0-.725.125-.365.125-.595.385l-.02-.02.38-2.04zm2.18 2.73q0-.26.005-.575.005-.315.05-.63.045-.315.13-.615.085-.3.25-.525.165-.225.415-.365.25-.14.61-.14.36 0 .61.14.25.14.415.365.165.225.25.525.085.3.13.615.045.315.05.63.005.315.005.575 0 .4-.025.895-.025.495-.16.93-.135.435-.435.735-.3.3-.84.3-.54 0-.84-.3-.3-.3-.435-.735-.135-.435-.16-.93-.025-.495-.025-.895zm-.9.01q0 .39.02.81.02.42.1.82.08.4.23.755.15.355.41.625.26.27.655.425.395.155.945.155.56 0 .95-.155.39-.155.65-.425.26-.27.41-.625.15-.355.23-.755.08-.4.1-.82.02-.42.02-.81 0-.39-.02-.81-.02-.42-.1-.82-.08-.4-.23-.76-.15-.36-.41-.63-.26-.27-.655-.43-.395-.16-.945-.16-.55 0-.945.16-.395.16-.655.43-.26.27-.41.63-.15.36-.23.76-.08.4-.1.82-.02.42-.02.81zm6.46-.01q0-.26.005-.575.005-.315.05-.63.045-.315.13-.615.085-.3.25-.525.165-.225.415-.365.25-.14.61-.14.36 0 .61.14.25.14.415.365.165.225.25.525.085.3.13.615.045.315.05.63.005.315.005.575 0 .4-.025.895-.025.495-.16.93-.135.435-.435.735-.3.3-.84.3-.54 0-.84-.3-.3-.3-.435-.735-.135-.435-.16-.93-.025-.495-.025-.895zm-.9.01q0 .39.02.81.02.42.1.82.08.4.23.755.15.355.41.625.26.27.655.425.395.155.945.155.56 0 .95-.155.39-.155.65-.425.26-.27.41-.625.15-.355.23-.755.08-.4.1-.82.02-.42.02-.81 0-.39-.02-.81-.02-.42-.1-.82-.08-.4-.23-.76-.15-.36-.41-.63-.26-.27-.655-.43-.395-.16-.945-.16-.55 0-.945.16-.395.16-.655.43-.26.27-.41.63-.15.36-.23.76-.08.4-.1.82-.02.42-.02.81zm6.46-.01q0-.26.005-.575.005-.315.05-.63.045-.315.13-.615.085-.3.25-.525.165-.225.415-.365.25-.14.61-.14.36 0 .61.14.25.14.415.365.165.225.25.525.085.3.13.615.045.315.05.63.005.315.005.575 0 .4-.025.895-.025.495-.16.93-.135.435-.435.735-.3.3-.84.3-.54 0-.84-.3-.3-.3-.435-.735-.135-.435-.16-.93-.025-.495-.025-.895zm-.9.01q0 .39.02.81.02.42.1.82.08.4.23.755.15.355.41.625.26.27.655.425.395.155.945.155.56 0 .95-.155.39-.155.65-.425.26-.27.41-.625.15-.355.23-.755.08-.4.1-.82.02-.42.02-.81 0-.39-.02-.81-.02-.42-.1-.82-.08-.4-.23-.76-.15-.36-.41-.63-.26-.27-.655-.43-.395-.16-.945-.16-.55 0-.945.16-.395.16-.655.43-.26.27-.41.63-.15.36-.23.76-.08.4-.1.82-.02.42-.02.81z" fill="#262626" stroke="none" transform="translate(85 91.5833)"/><path d="m-18.86-1.78h.85q-.08-.88-.6-1.345-.52-.465-1.4-.465-.76 0-1.26.32-.5.32-.8.85-.3.53-.425 1.215-.125.685-.125 1.415 0 .56.085 1.16.085.6.345 1.1.26.5.74.82.48.32 1.27.32.67 0 1.125-.225.455-.225.73-.57.275-.345.395-.765.12-.42.12-.81 0-.49-.15-.91-.15-.42-.425-.73-.275-.31-.68-.485-.405-.175-.915-.175-.58 0-1.025.22-.445.22-.745.71l-.02-.02q.01-.41.08-.88.07-.47.255-.875.185-.405.515-.67.33-.265.87-.265.51 0 .82.29.31.29.37.77zm-1.28 1.47q.36 0 .63.13.27.13.45.345.18.215.265.51.085.295.085.625 0 .31-.095.595-.095.285-.275.505-.18.22-.445.345-.265.125-.615.125-.35 0-.625-.125-.275-.125-.46-.335-.185-.21-.285-.5-.1-.29-.1-.62 0-.33.095-.625.095-.295.285-.51.19-.215.46-.34.27-.125.63-.125zm4.02.32q0-.26.005-.575.005-.315.05-.63.045-.315.13-.615.085-.3.25-.525.165-.225.415-.365.25-.14.61-.14.36 0 .61.14.25.14.415.365.165.225.25.525.085.3.13.615.045.315.05.63.005.315.005.575 0 .4-.025.895-.025.495-.16.93-.135.435-.435.735-.3.3-.84.3-.54 0-.84-.3-.3-.3-.435-.735-.135-.435-.16-.93-.025-.495-.025-.895zm-.9.01q0 .39.02.81.02.42.1.82.08.4.23.755.15.355.41.625.26.27.655.425.395.155.945.155.56 0 .95-.155.39-.155.65-.425.26-.27.41-.625.15-.355.23-.755.08-.4.1-.82.02-.42.02-.81 0-.39-.02-.81-.02-.42-.1-.82-.08-.4-.23-.76-.15-.36-.41-.63-.26-.27-.655-.43-.395-.16-.945-.16-.55 0-.945.16-.395.16-.655.43-.26.27-.41.63-.15.36-.23.76-.08.4-.1.82-.02.42-.02.81zm6.46-.01q0-.26.005-.575.005-.315.05-.63.045-.315.13-.615.085-.3.25-.525.165-.225.415-.365.25-.14.61-.14.36 0 .61.14.25.14.415.365.165.225.25.525.085.3.13.615.045.315.05.63.005.315.005.575 0 .4-.025.895-.025.495-.16.93-.135.435-.435.735-.3.3-.84.3-.54 0-.84-.3-.3-.3-.435-.735-.135-.435-.16-.93-.025-.495-.025-.895zm-.9.01q0 .39.02.81.02.42.1.82.08.4.23.755.15.355.41.625.26.27.655.425.395.155.945.155.56 0 .95-.155.39-.155.65-.425.26-.27.41-.625.15-.355.23-.755.08-.4.1-.82.02-.42.02-.81 0-.39-.02-.81-.02-.42-.1-.82-.08-.4-.23-.76-.15-.36-.41-.63-.26-.27-.655-.43-.395-.16-.945-.16-.55 0-.945.16-.395.16-.655.43-.26.27-.41.63-.15.36-.23.76-.08.4-.1.82-.02.42-.02.81zm6.46-.01q0-.26.005-.575.005-.315.05-.63.045-.315.13-.615.085-.3.25-.525.165-.225.415-.365.25-.14.61-.14.36 0 .61.14.25.14.415.365.165.225.25.525.085.3.13.615.045.315.05.63.005.315.005.575 0 .4-.025.895-.025.495-.16.93-.135.435-.435.735-.3.3-.84.3-.54 0-.84-.3-.3-.3-.435-.735-.135-.435-.16-.93-.025-.495-.025-.895zm-.9.01q0 .39.02.81.02.42.1.82.08.4.23.755.15.355.41.625.26.27.655.425.395.155.945.155.56 0 .95-.155.39-.155.65-.425.26-.27.41-.625.15-.355.23-.755.08-.4.1-.82.02-.42.02-.81 0-.39-.02-.81-.02-.42-.1-.82-.08-.4-.23-.76-.15-.36-.41-.63-.26-.27-.655-.43-.395-.16-.945-.16-.55 0-.945.16-.395.16-.655.43-.26.27-.41.63-.15.36-.23.76-.08.4-.1.82-.02.42-.02.81z" fill="#262626" stroke="none" transform="translate(85 32.5)"/><path d="m-5.104-11.965h-.803c0 .418-.011 1.001-.022 1.749-.099 3.168-1.661 5.687-4.686 7.546l.484.704c2.442-1.573 4.004-3.553 4.664-5.951.781 2.486 2.299 4.466 4.543 5.94l.517-.693c-2.563-1.573-4.158-3.861-4.774-6.853.044-.682.077-1.496.077-2.442zm12.342 2.42h1.628c-.044 1.485-.275 2.783-.704 3.894-.44-.924-.792-2.035-1.067-3.322zm.561 4.686c-.506.935-1.177 1.694-2.035 2.288l.407.66c.825-.594 1.507-1.331 2.035-2.211.55.924 1.21 1.672 1.98 2.222l.429-.649c-.792-.539-1.463-1.298-2.035-2.288.616-1.298.957-2.871 1.012-4.708h.715v-.759h-2.904c.088-.484.176-1.012.242-1.573l-.77-.132c-.22 2.09-.66 3.751-1.309 4.983l.495.605c.231-.396.451-.847.649-1.353.297 1.1.66 2.068 1.089 2.915zm-5.214-2.013c-.077.22-.165.451-.264.693h-1.606v.693h1.298c-.22.44-.473.891-.759 1.375.539.198 1.045.407 1.529.616-.638.363-1.419.66-2.321.902l.374.66c1.1-.308 2.013-.715 2.739-1.221.649.286 1.21.583 1.694.869l.429-.616c-.484-.264-.99-.506-1.518-.748.572-.528.979-1.155 1.221-1.881v-.649h-2.299c.066-.198.143-.396.22-.605zm.869 2.915c-.396-.165-.814-.319-1.254-.473.22-.33.418-.682.594-1.056h1.892c-.264.572-.682 1.089-1.232 1.529zm-1.87-7.821-.627.209c.264.418.506.891.737 1.43l.572-.264c-.198-.484-.418-.946-.682-1.375zm3.344-.033c-.198.462-.484.924-.836 1.397l.561.286c.352-.462.627-.935.847-1.419zm-4.191 1.936v.693h1.562c-.33.605-.924 1.155-1.771 1.65l.385.638c.946-.638 1.606-1.386 1.969-2.255v2.09h.737v-1.43c.396.264.869.616 1.419 1.056l.407-.616c-.616-.374-1.232-.715-1.826-1.012v-.121h2.002v-.693h-2.002v-2.101h-.737v2.101z" fill="#262626" stroke="none" transform="matrix(0 -1 1 0 59.5 209.7498)"/><g fill="none" stroke="#0072bd" stroke-linecap="butt" stroke-linejoin="round" stroke-width=".5"><path d="m93.4167 387 4.4166-.0443 4.4167-.0355 4.4167-.0312 4.4166-.0302 4.4167-.0313 4.4167-.0343 4.4166-.0386 4.4167-.0444 4.4167-.0514 4.4166-.06 4.4167-.0701 4.4167-.0822 4.4166-.0964 4.4167-.1131 4.4167-.1328 4.4166-.1557 4.4167-.1828 4.4167-.2147 4.4166-.2519 4.4167-.2957 4.4167-.3472 4.4166-.4075 4.4167-.4783 4.4167-.5615 4.4166-.6591 4.4167-.7737 4.4167-.9083 4.4166-1.0661 4.4167-1.2515 4.4167-1.4691 4.4166-1.7244 4.4167-2.0243 4.4167-2.3763 4.4166-2.7893 4.4167-3.2742 4.4167-3.8435 4.4166-4.5117 4.4167-5.2959 4.4167-6.2167 4.4166-7.2973 4.4167-8.5658 4.4167-10.0548 4.4166-11.8025 4.4167-13.8541 4.4167-16.2619 4.4166-19.0883 4.4167-22.4056 4.4167-26.299 4.4166-30.8688 4.4167 20.8245 4.4167 18.7381 4.4166 16.8613 4.4167 15.1731 4.4167 13.6544 4.4166 12.2882 4.4167 11.0591 4.4167 9.9532 4.4166 8.9584 4.4167 8.0632 4.4167 7.2578 4.4166 6.533 4.4167 5.8809 4.4167 5.294 4.4166 4.7659 4.4167 4.2906 4.4167 3.8629 4.4166 3.478 4.4167 3.1314 4.4167 2.8195 4.4166 2.5389 4.4167 2.2862 4.4167 2.0587 4.4166 1.8539 4.4167 1.6697 4.4167 1.5037 4.4166 1.3542 4.4167 1.2198 4.4167 1.0986 4.4166.9896 4.4167.8914 4.4167.803 4.4166.7233 4.4167.6516 4.4167.5871 4.4166.5289 4.4167.4765 4.4167.4293 4.4166.3869 4.4167.3486 4.4167.3141 4.4166.283 4.4167.2551 4.4167.2298 4.4166.2072 4.4167.1867 4.4167.1683 4.4166.1517 4.4167.1366 4.4167.1233"/><path d="m93.4167 386.9409 4.4166.0059 4.4167.0009 4.4167-.0027 4.4166-.0056 4.4167-.0081 4.4167-.0104 4.4166-.0128 4.4167-.0153 4.4167-.0183 4.4166-.0215 4.4167-.0255 4.4167-.0298 4.4166-.0352 4.4167-.0412 4.4167-.0484 4.4166-.0569 4.4167-.0667 4.4167-.0784 4.4166-.092 4.4167-.108 4.4167-.1267 4.4166-.1488 4.4167-.1747 4.4167-.205 4.4166-.2407 4.4167-.2825 4.4167-.3317 4.4166-.3893 4.4167-.4569 4.4167-.5365 4.4166-.6297 4.4167-.7392 4.4167-.8677 4.4166-1.0185 4.4167-1.1956 4.4167-1.4035 4.4166-1.6475 4.4167-1.9339 4.4167-2.2701 4.4166-2.6647 4.4167-3.1281 4.4167-3.6717 4.4166-4.3101 4.4167-5.0594 4.4167-5.9388 4.4166-6.9711 4.4167-8.1829 4.4167-9.6051 4.4166-11.2745 4.4167-13.2339 4.4167-9.8281 4.4166-6.9714 4.4167-4.5882 4.4167-2.6121 4.4166-.9854 4.4167.3419 4.4167 1.4137 4.4166 2.2676 4.4167 2.9367 4.4167 3.4493 4.4166 3.8302 4.4167 4.1005 4.4167 4.2785 4.4166 4.3801 4.4167 4.4186 4.4167 4.4058 4.4166 4.3516 4.4167 4.2642 4.4167 4.1509 4.4166 4.0178 4.4167 3.8698 4.4167 3.7116 4.4166 3.5462 4.4167 3.377 4.4167 3.2062 4.4166 3.0361 4.4167 2.8678 4.4167 2.703 4.4166 2.5426 4.4167 2.3873 4.4167 2.2377 4.4166 2.0942 4.4167 1.9572 4.4167 1.8266 4.4166 1.7026 4.4167 1.5853 4.4167 1.4743 4.4166 1.3699 4.4167 1.2716 4.4167 1.1793 4.4166 1.0927 4.4167 1.0118 4.4167.9361 4.4166.8655 4.4167.7997 4.4167.7383 4.4166.6814 4.4167.6284 4.4167.5792" stroke="#d95319"/><path d="m93.4167 387 4.4166-.0059 4.4167-.0053 4.4167-.0052 4.4166-.0056 4.4167-.006 4.4167-.0069 4.4166-.0079 4.4167-.0092 4.4167-.0107 4.4166-.0126 4.4167-.0147 4.4167-.0172 4.4166-.0202 4.4167-.0238 4.4167-.0278 4.4166-.0328 4.4167-.0384 4.4167-.045 4.4166-.0529 4.4167-.0621 4.4167-.073 4.4166-.0856 4.4167-.1004 4.4167-.1179 4.4166-.1385 4.4167-.1625 4.4167-.1907 4.4166-.2239 4.4167-.2629 4.4167-.3085 4.4166-.3622 4.4167-.4252 4.4167-.499 4.4166-.5859 4.4167-.6877 4.4167-.8072 4.4166-.9476 4.4167-1.1124 4.4167-1.3058 4.4166-1.5327 4.4167-1.7993 4.4167-2.112 4.4166-2.4792 4.4167-2.9102 4.4167-3.4162 4.4166-4.01 4.4167-4.7072 4.4167-5.5254 4.4166-6.4859 4.4167-7.6135 4.4167-8.9367 4.4166-9.9196 4.4167-10.6168 4.4167-11.0756 4.4166-11.3367 4.4167-11.4354 4.4167-11.401 4.4166-11.2598 4.4167-11.033 4.4167-10.7393 4.4166-10.3944 4.4167-10.0114 4.4167-9.6013 4.4166-9.1735 4.4167-8.7354 4.4167-8.2936 4.4166-7.8531 4.4167-7.4178 4.4167-6.9915 4.4166-6.5763 4.4167-6.1746 4.4167-5.7876 4.4166-5.4164 4.4167-5.0618 4.4167-4.7241 4.4166-4.4035 4.4167-4.0999 4.4167-3.8131 4.4166-3.5428 4.4167-3.2885 4.4167-3.0498 4.4166-2.8261 4.4167-2.6166 4.4167-2.4209 4.4166-2.2382 4.4167-2.068 4.4167-1.9095 4.4166-1.762 4.4167-1.625 4.4167-1.4979 4.4166-1.38 4.4167-1.2706 4.4167-1.1695 4.4166-1.0759 4.4167-.9893 4.4167-.9094 4.4166-.8355 4.4167-.7674 4.4167-.7045" stroke="#edb120"/><path d="m93.4167 386.9527 4.4166-.0307 4.4167-.0277 4.4167-.0271 4.4166-.0286 4.4167-.0316 4.4167-.0357 4.4166-.0411 4.4167-.0478 4.4167-.0557 4.4166-.0653 4.4167-.0764 4.4167-.0897 4.4166-.1052 4.4167-.1235 4.4167-.1449 4.4166-.1701 4.4167-.1997 4.4167-.2344 4.4166-.2751 4.4167-.323 4.4167-.3791 4.4166-.445 4.4167-.5224 4.4167-.6133 4.4166-.7198 4.4167-.845 4.4167-.9919 4.4166-1.1643 4.4167-1.3668 4.4167-1.6044 4.4166-1.8833 4.4167-2.2108 4.4167-2.5952 4.4166-3.0462 4.4167-3.5759 4.4167-4.1976 4.4166-4.9273 4.4167-5.7839 4.4167-6.7894 4.4166-7.9697 4.4167-9.355 4.4167-10.9813 4.4166-12.8901 4.4167-15.1307 4.4167-17.7606 4.4166-20.8475 4.4167-24.4707 4.4167-28.7234 4.4166-33.7146 4.4167 6.0724 4.4167 7.128 4.4166 7.9119 4.4167 8.4679 4.4167 8.8339 4.4166 9.0422 4.4167 9.1208 4.4167 9.0936 4.4166 8.9808 4.4167 8.7999 4.4167 8.5657 4.4166 8.2906 4.4167 7.9851 4.4167 7.658 4.4166 7.3167 4.4167 6.9675 4.4167 6.6149 4.4166 6.2636 4.4167 5.9165 4.4167 5.5764 4.4166 5.2453 4.4167 4.9248 4.4167 4.6162 4.4166 4.3202 4.4167 4.0373 4.4167 3.7679 4.4166 3.5122 4.4167 3.2701 4.4167 3.0413 4.4166 2.8258 4.4167 2.6229 4.4167 2.4326 4.4166 2.254 4.4167 2.087 4.4167 1.9309 4.4166 1.7853 4.4167 1.6494 4.4167 1.523 4.4166 1.4053 4.4167 1.2962 4.4167 1.1947 4.4166 1.1006 4.4167 1.0135 4.4167.9328 4.4166.8581 4.4167.7891 4.4167.7253 4.4166.6664 4.4167.6121 4.4167.562" stroke="#7e2f8e"/></g><g fill="none" stroke="#f00" stroke-linecap="butt" transform="translate(199.4167 387)"><path d="m0-3v6m-3-3h6m-5.1213-2.1213 4.2426 4.2426m-4.2426 0 4.2426-4.2426"/><path d="m0-3v6m-3-3h6m-5.1213-2.1213 4.2426 4.2426m-4.2426 0 4.2426-4.2426" transform="translate(4.4167)"/><path d="m0-3v6m-3-3h6m-5.1213-2.1213 4.2426 4.2426m-4.2426 0 4.2426-4.2426" transform="translate(8.8333)"/><path d="m0-3v6m-3-3h6m-5.1213-2.1213 4.2426 4.2426m-4.2426 0 4.2426-4.2426" transform="translate(13.25)"/><path d="m0-3v6m-3-3h6m-5.1213-2.1213 4.2426 4.2426m-4.2426 0 4.2426-4.2426" transform="translate(17.6667)"/><path d="m0-3v6m-3-3h6m-5.1213-2.1213 4.2426 4.2426m-4.2426 0 4.2426-4.2426" transform="translate(22.0833)"/><path d="m0-3v6m-3-3h6m-5.1213-2.1213 4.2426 4.2426m-4.2426 0 4.2426-4.2426" transform="translate(26.5 -.2363)"/><path d="m0-3v6m-3-3h6m-5.1213-2.1213 4.2426 4.2426m-4.2426 0 4.2426-4.2426" transform="translate(30.9167 -1.0044)"/><path d="m0-3v6m-3-3h6m-5.1213-2.1213 4.2426 4.2426m-4.2426 0 4.2426-4.2426" transform="translate(35.3333 -3.4859)"/><path d="m0-3v6m-3-3h6m-5.1213-2.1213 4.2426 4.2426m-4.2426 0 4.2426-4.2426" transform="translate(39.75 -4.5494)"/><path d="m0-3v6m-3-3h6m-5.1213-2.1213 4.2426 4.2426m-4.2426 0 4.2426-4.2426" transform="translate(44.1667 -5.4948)"/><path d="m0-3v6m-3-3h6m-5.1213-2.1213 4.2426 4.2426m-4.2426 0 4.2426-4.2426" transform="translate(48.5833 -8.8034)"/><path d="m0-3v6m-3-3h6m-5.1213-2.1213 4.2426 4.2426m-4.2426 0 4.2426-4.2426" transform="translate(53 -7.7399)"/><path d="m0-3v6m-3-3h6m-5.1213-2.1213 4.2426 4.2426m-4.2426 0 4.2426-4.2426" transform="translate(57.4167 -15.3026)"/><path d="m0-3v6m-3-3h6m-5.1213-2.1213 4.2426 4.2426m-4.2426 0 4.2426-4.2426" transform="translate(61.8333 -27.0011)"/><path d="m0-3v6m-3-3h6m-5.1213-2.1213 4.2426 4.2426m-4.2426 0 4.2426-4.2426" transform="translate(66.25 -39.5858)"/><path d="m0-3v6m-3-3h6m-5.1213-2.1213 4.2426 4.2426m-4.2426 0 4.2426-4.2426" transform="translate(70.6667 -46.4986)"/><path d="m0-3v6m-3-3h6m-5.1213-2.1213 4.2426 4.2426m-4.2426 0 4.2426-4.2426" transform="translate(75.0833 -104.6366)"/><path d="m0-3v6m-3-3h6m-5.1213-2.1213 4.2426 4.2426m-4.2426 0 4.2426-4.2426" transform="translate(79.5 -86.2026)"/><path d="m0-3v6m-3-3h6m-5.1213-2.1213 4.2426 4.2426m-4.2426 0 4.2426-4.2426" transform="translate(83.9167 -102.6277)"/><path d="m0-3v6m-3-3h6m-5.1213-2.1213 4.2426 4.2426m-4.2426 0 4.2426-4.2426" transform="translate(88.3333 -117.1032)"/><path d="m0-3v6m-3-3h6m-5.1213-2.1213 4.2426 4.2426m-4.2426 0 4.2426-4.2426" transform="translate(92.75 -123.9568)"/><path d="m0-3v6m-3-3h6m-5.1213-2.1213 4.2426 4.2426m-4.2426 0 4.2426-4.2426" transform="translate(97.1667 -168.9193)"/><path d="m0-3v6m-3-3h6m-5.1213-2.1213 4.2426 4.2426m-4.2426 0 4.2426-4.2426" transform="translate(101.5833 -166.9104)"/><path d="m0-3v6m-3-3h6m-5.1213-2.1213 4.2426 4.2426m-4.2426 0 4.2426-4.2426" transform="translate(106 -191.0164)"/><path d="m0-3v6m-3-3h6m-5.1213-2.1213 4.2426 4.2426m-4.2426 0 4.2426-4.2426" transform="translate(110.4167 -229.5978)"/><path d="m0-3v6m-3-3h6m-5.1213-2.1213 4.2426 4.2426m-4.2426 0 4.2426-4.2426" transform="translate(114.8333 -218.2538)"/><path d="m0-3v6m-3-3h6m-5.1213-2.1213 4.2426 4.2426m-4.2426 0 4.2426-4.2426" transform="translate(119.25 -185.6989)"/><path d="m0-3v6m-3-3h6m-5.1213-2.1213 4.2426 4.2426m-4.2426 0 4.2426-4.2426" transform="translate(123.6667 -199.9971)"/><path d="m0-3v6m-3-3h6m-5.1213-2.1213 4.2426 4.2426m-4.2426 0 4.2426-4.2426" transform="translate(128.0833 -156.689)"/><path d="m0-3v6m-3-3h6m-5.1213-2.1213 4.2426 4.2426m-4.2426 0 4.2426-4.2426" transform="translate(132.5 -175.6548)"/><path d="m0-3v6m-3-3h6m-5.1213-2.1213 4.2426 4.2426m-4.2426 0 4.2426-4.2426" transform="translate(136.9167 -145.7586)"/><path d="m0-3v6m-3-3h6m-5.1213-2.1213 4.2426 4.2426m-4.2426 0 4.2426-4.2426" transform="translate(141.3333 -119.0529)"/><path d="m0-3v6m-3-3h6m-5.1213-2.1213 4.2426 4.2426m-4.2426 0 4.2426-4.2426" transform="translate(145.75 -132.9966)"/><path d="m0-3v6m-3-3h6m-5.1213-2.1213 4.2426 4.2426m-4.2426 0 4.2426-4.2426" transform="translate(150.1667 -138.6686)"/><path d="m0-3v6m-3-3h6m-5.1213-2.1213 4.2426 4.2426m-4.2426 0 4.2426-4.2426" transform="translate(154.5833 -132.4057)"/><path d="m0-3v6m-3-3h6m-5.1213-2.1213 4.2426 4.2426m-4.2426 0 4.2426-4.2426" transform="translate(159 -118.6393)"/><path d="m0-3v6m-3-3h6m-5.1213-2.1213 4.2426 4.2426m-4.2426 0 4.2426-4.2426" transform="translate(163.4167 -121.0027)"/><path d="m0-3v6m-3-3h6m-5.1213-2.1213 4.2426 4.2426m-4.2426 0 4.2426-4.2426" transform="translate(167.8333 -111.5493)"/><path d="m0-3v6m-3-3h6m-5.1213-2.1213 4.2426 4.2426m-4.2426 0 4.2426-4.2426" transform="translate(172.25 -103.3368)"/><path d="m0-3v6m-3-3h6m-5.1213-2.1213 4.2426 4.2426m-4.2426 0 4.2426-4.2426" transform="translate(176.6667 -48.2711)"/><path d="m0-3v6m-3-3h6m-5.1213-2.1213 4.2426 4.2426m-4.2426 0 4.2426-4.2426" transform="translate(181.0833 -48.2711)"/><path d="m0-3v6m-3-3h6m-5.1213-2.1213 4.2426 4.2426m-4.2426 0 4.2426-4.2426" transform="translate(185.5 -23.4561)"/><path d="m0-3v6m-3-3h6m-5.1213-2.1213 4.2426 4.2426m-4.2426 0 4.2426-4.2426" transform="translate(189.9167 -38.286)"/><path d="m0-3v6m-3-3h6m-5.1213-2.1213 4.2426 4.2426m-4.2426 0 4.2426-4.2426" transform="translate(194.3333 -12.6438)"/><path d="m0-3v6m-3-3h6m-5.1213-2.1213 4.2426 4.2426m-4.2426 0 4.2426-4.2426" transform="translate(198.75 -30.0143)"/><path d="m0-3v6m-3-3h6m-5.1213-2.1213 4.2426 4.2426m-4.2426 0 4.2426-4.2426" transform="translate(203.1667 -23.9878)"/><path d="m0-3v6m-3-3h6m-5.1213-2.1213 4.2426 4.2426m-4.2426 0 4.2426-4.2426" transform="translate(207.5833 -25.5831)"/><path d="m0-3v6m-3-3h6m-5.1213-2.1213 4.2426 4.2426m-4.2426 0 4.2426-4.2426" transform="translate(212 -19.3203)"/><path d="m0-3v6m-3-3h6m-5.1213-2.1213 4.2426 4.2426m-4.2426 0 4.2426-4.2426" transform="translate(216.4167 -25.2286)"/><path d="m0-3v6m-3-3h6m-5.1213-2.1213 4.2426 4.2426m-4.2426 0 4.2426-4.2426" transform="translate(220.8333 -33.8547)"/><path d="m0-3v6m-3-3h6m-5.1213-2.1213 4.2426 4.2426m-4.2426 0 4.2426-4.2426" transform="translate(225.25 -11.9348)"/><path d="m0-3v6m-3-3h6m-5.1213-2.1213 4.2426 4.2426m-4.2426 0 4.2426-4.2426" transform="translate(229.6667 -7.3854)"/><path d="m0-3v6m-3-3h6m-5.1213-2.1213 4.2426 4.2426m-4.2426 0 4.2426-4.2426" transform="translate(234.0833 -7.0309)"/><path d="m0-3v6m-3-3h6m-5.1213-2.1213 4.2426 4.2426m-4.2426 0 4.2426-4.2426" transform="translate(238.5 -8.2126)"/><path d="m0-3v6m-3-3h6m-5.1213-2.1213 4.2426 4.2426m-4.2426 0 4.2426-4.2426" transform="translate(242.9167 -8.4489)"/><path d="m0-3v6m-3-3h6m-5.1213-2.1213 4.2426 4.2426m-4.2426 0 4.2426-4.2426" transform="translate(247.3333 -5.8492)"/><path d="m0-3v6m-3-3h6m-5.1213-2.1213 4.2426 4.2426m-4.2426 0 4.2426-4.2426" transform="translate(251.75 -2.5997)"/><path d="m0-3v6m-3-3h6m-5.1213-2.1213 4.2426 4.2426m-4.2426 0 4.2426-4.2426" transform="translate(256.1667 -2.3633)"/><path d="m0-3v6m-3-3h6m-5.1213-2.1213 4.2426 4.2426m-4.2426 0 4.2426-4.2426" transform="translate(260.5833 -1.1226)"/><path d="m0-3v6m-3-3h6m-5.1213-2.1213 4.2426 4.2426m-4.2426 0 4.2426-4.2426" transform="translate(265 -1.418)"/><path d="m0-3v6m-3-3h6m-5.1213-2.1213 4.2426 4.2426m-4.2426 0 4.2426-4.2426" transform="translate(269.4167 -.8863)"/><path d="m0-3v6m-3-3h6m-5.1213-2.1213 4.2426 4.2426m-4.2426 0 4.2426-4.2426" transform="translate(273.8333 -1.1817)"/><path d="m0-3v6m-3-3h6m-5.1213-2.1213 4.2426 4.2426m-4.2426 0 4.2426-4.2426" transform="translate(278.25 -.6499)"/><path d="m0-3v6m-3-3h6m-5.1213-2.1213 4.2426 4.2426m-4.2426 0 4.2426-4.2426" transform="translate(282.6667 -1.1817)"/><path d="m0-3v6m-3-3h6m-5.1213-2.1213 4.2426 4.2426m-4.2426 0 4.2426-4.2426" transform="translate(287.0833 -.9453)"/><path d="m0-3v6m-3-3h6m-5.1213-2.1213 4.2426 4.2426m-4.2426 0 4.2426-4.2426" transform="translate(291.5 -1.2408)"/><path d="m0-3v6m-3-3h6m-5.1213-2.1213 4.2426 4.2426m-4.2426 0 4.2426-4.2426" transform="translate(295.9167 -.7681)"/><path d="m0-3v6m-3-3h6m-5.1213-2.1213 4.2426 4.2426m-4.2426 0 4.2426-4.2426" transform="translate(300.3333 -2.0088)"/><path d="m0-3v6m-3-3h6m-5.1213-2.1213 4.2426 4.2426m-4.2426 0 4.2426-4.2426" transform="translate(304.75 -2.3043)"/><path d="m0-3v6m-3-3h6m-5.1213-2.1213 4.2426 4.2426m-4.2426 0 4.2426-4.2426" transform="translate(309.1667 -2.4224)"/><path d="m0-3v6m-3-3h6m-5.1213-2.1213 4.2426 4.2426m-4.2426 0 4.2426-4.2426" transform="translate(313.5833 -2.7178)"/><path d="m0-3v6m-3-3h6m-5.1213-2.1213 4.2426 4.2426m-4.2426 0 4.2426-4.2426" transform="translate(318 -2.3043)"/><path d="m0-3v6m-3-3h6m-5.1213-2.1213 4.2426 4.2426m-4.2426 0 4.2426-4.2426" transform="translate(322.4166 -4.6085)"/><path d="m0-3v6m-3-3h6m-5.1213-2.1213 4.2426 4.2426m-4.2426 0 4.2426-4.2426" transform="translate(326.8333 -2.7769)"/><path d="m0-3v6m-3-3h6m-5.1213-2.1213 4.2426 4.2426m-4.2426 0 4.2426-4.2426" transform="translate(331.25 -3.9586)"/><path d="m0-3v6m-3-3h6m-5.1213-2.1213 4.2426 4.2426m-4.2426 0 4.2426-4.2426" transform="translate(335.6666 -3.2496)"/><path d="m0-3v6m-3-3h6m-5.1213-2.1213 4.2426 4.2426m-4.2426 0 4.2426-4.2426" transform="translate(340.0833 -3.1905)"/><path d="m0-3v6m-3-3h6m-5.1213-2.1213 4.2426 4.2426m-4.2426 0 4.2426-4.2426" transform="translate(344.5 -2.6588)"/><path d="m0-3v6m-3-3h6m-5.1213-2.1213 4.2426 4.2426m-4.2426 0 4.2426-4.2426" transform="translate(348.9166 -1.8316)"/><path d="m0-3v6m-3-3h6m-5.1213-2.1213 4.2426 4.2426m-4.2426 0 4.2426-4.2426" transform="translate(353.3333 -2.836)"/><path d="m0-3v6m-3-3h6m-5.1213-2.1213 4.2426 4.2426m-4.2426 0 4.2426-4.2426" transform="translate(357.75 -2.127)"/><path d="m0-3v6m-3-3h6m-5.1213-2.1213 4.2426 4.2426m-4.2426 0 4.2426-4.2426" transform="translate(362.1666 -2.0679)"/><path d="m0-3v6m-3-3h6m-5.1213-2.1213 4.2426 4.2426m-4.2426 0 4.2426-4.2426" transform="translate(366.5833 -1.8316)"/><path d="m0-3v6m-3-3h6m-5.1213-2.1213 4.2426 4.2426m-4.2426 0 4.2426-4.2426" transform="translate(371 -1.1226)"/></g></g><path d="m609 103.5v-61h-77v61z" style="stroke:none;fill:#fff;text-rendering:optimizeSpeed;color-rendering:optimizeSpeed;image-rendering:optimizeSpeed;shape-rendering:crispEdges;color-interpolation:sRGB"/><path color-interpolation="linearRGB" color-rendering="optimizeQuality" d="m1.782.917c-.324 1.062-.711 2.088-1.161 3.096l.594.261c.414-.981.792-2.025 1.134-3.132zm-.639-4.653-.459.441c.549.432.981.837 1.305 1.224l.459-.468c-.351-.396-.783-.801-1.305-1.197zm-.225 2.16-.459.45c.594.468 1.053.918 1.395 1.341l.459-.468c-.378-.441-.837-.882-1.395-1.323zm6.066.666c.306.54.756 1.044 1.341 1.503l.387-.477c-.63-.432-1.08-.918-1.368-1.458h1.062v-.576h-1.188c.018-.198.036-.414.045-.648v-.063h.99v-.567h-.99v-.666h-.585v.666h-.945v.567h.945v.063c-.009.225-.027.441-.045.648h-1.008v.576h.882c-.036.135-.09.261-.144.387-.216.396-.585.711-1.116.945l.333.513c.576-.261.999-.621 1.26-1.08.054-.108.099-.216.144-.333zm-4.248-2.286v.567h.999v.099c0 .207-.018.414-.036.612h-1.134v.576h1.026c-.054.18-.108.351-.18.513-.216.423-.594.765-1.134 1.017l.324.513c.594-.27 1.026-.648 1.287-1.134.036-.072.063-.135.09-.207.243.198.54.486.9.846l.333-.495c-.36-.306-.72-.585-1.071-.819l.054-.234h1.134v-.576h-1.044c.018-.189.027-.396.036-.612v-.099h.882v-.567h-.882v-.675h-.585v.675zm5.067 3.816h-4.41v3.78h.648v-.378h3.114v.378h.648zm-3.762 2.835v-.837h3.114v.837zm0-1.386v-.873h3.114v.873zm6.516-2.817v5.166h.648v-6.291c.27-.549.504-1.125.684-1.728l-.603-.288c-.405 1.404-1.053 2.655-1.953 3.753l.216.684c.369-.414.702-.846 1.008-1.296zm5.418-2.862-.504.306c.477.549.855 1.044 1.134 1.494l.513-.351c-.27-.414-.648-.9-1.143-1.449zm-1.071-.216h-.648c0 .558-.018 1.386-.054 2.466h-2.313v.621h2.268c-.234 1.764-1.107 3.321-2.619 4.653l.45.495c1.314-1.143 2.187-2.565 2.637-4.257.423 1.728 1.287 3.141 2.592 4.248l.441-.486c-1.359-1.098-2.259-2.655-2.691-4.653h2.52v-.621h-2.628c.027-.972.045-1.791.045-2.466zm4.41.909v.603h2.466v1.071h-3.267v.612h4.095c-1.278.738-2.682 1.296-4.221 1.656l.27.603c.522-.171 1.026-.342 1.512-.522v3.312h.657v-.405h3.897v.405h.648v-4.05h-3.402c.522-.243.999-.486 1.413-.738.135-.09.27-.171.405-.261h2.745v-.612h-1.926c.603-.486 1.17-1.053 1.701-1.683l-.495-.36c-.639.756-1.386 1.44-2.232 2.043h-1.134v-1.071h2.124v-.603h-2.124v-.954h-.666v.954zm1.512 5.373h3.897v.981h-3.897zm3.897-.576h-3.897v-.945h3.897z" image-rendering="optimizeQuality" stroke="none" text-rendering="geometricPrecision" transform="translate(569 50)"/><path d="m536 50h30" style="fill:none;stroke-linecap:butt;text-rendering:geometricPrecision;image-rendering:optimizeQuality;color-rendering:optimizeQuality;stroke-linejoin:round;stroke:#0072bd;color-interpolation:linearRGB;stroke-width:.5"/><path color-interpolation="linearRGB" color-rendering="optimizeQuality" d="m1.503-.622v5.04h.648v-6.021c.36-.621.648-1.278.882-1.971l-.612-.288c-.441 1.386-1.143 2.619-2.097 3.69l.207.693c.351-.36.675-.747.972-1.143zm1.647-2.079v.63h1.602c-.09.342-.189.693-.297 1.044h-1.701v.621h1.503c-.207.603-.432 1.188-.666 1.746h3.852c-.414.54-.972 1.053-1.683 1.548-.522-.252-1.062-.486-1.62-.702l-.342.504c1.152.432 2.286 1.026 3.384 1.782l.369-.558c-.396-.261-.801-.504-1.224-.729.828-.63 1.431-1.26 1.809-1.89v-.558h-3.699c.144-.351.297-.729.441-1.143h3.762v-.621h-3.555c.108-.333.207-.684.306-1.044h2.88v-.63h-2.718c.081-.351.162-.72.252-1.098l-.63-.063-.27 1.161zm9.351 4.437c-.54.72-1.575 1.359-3.087 1.926l.369.612c1.611-.72 2.7-1.566 3.267-2.538h.135v2.646h.666v-2.646h.126c.648 1.008 1.755 1.827 3.339 2.439l.297-.621c-1.395-.441-2.421-1.044-3.078-1.818h2.871v-.594h-3.555v-.765h-.666v.765h-3.564v.594zm1.107-5.58v.954h-1.278v.603h1.242c-.054.486-.171.909-.351 1.251-.27.459-.729.828-1.395 1.107l.351.549c.72-.297 1.242-.711 1.566-1.233.252-.432.423-.99.495-1.674h1.17l-.009 2.061c0 .441.234.666.72.666h.531c.324 0 .54-.099.648-.288.108-.198.198-.666.27-1.422l-.576-.189c-.045.648-.099 1.026-.153 1.134-.063.108-.162.162-.288.171h-.306c-.144 0-.207-.072-.207-.207v-2.529h-1.764v-.954zm-3.123.162-.324.486c.513.198 1.017.477 1.503.828l.324-.495c-.45-.324-.945-.594-1.503-.819zm-.576 1.206-.324.486c.468.18.918.423 1.368.738l.324-.495c-.414-.288-.873-.531-1.368-.729zm1.692 1.107c-.576.648-1.224 1.224-1.953 1.71l.45.495c.684-.486 1.35-1.107 1.98-1.845zm7.713-1.548v.603h2.466v1.071h-3.267v.612h4.095c-1.278.738-2.682 1.296-4.221 1.656l.27.603c.522-.171 1.026-.342 1.512-.522v3.312h.657v-.405h3.897v.405h.648v-4.05h-3.402c.522-.243.999-.486 1.413-.738.135-.09.27-.171.405-.261h2.745v-.612h-1.926c.603-.486 1.17-1.053 1.701-1.683l-.495-.36c-.639.756-1.386 1.44-2.232 2.043h-1.134v-1.071h2.124v-.603h-2.124v-.954h-.666v.954zm1.512 5.373h3.897v.981h-3.897zm3.897-.576h-3.897v-.945h3.897z" image-rendering="optimizeQuality" stroke="none" text-rendering="geometricPrecision" transform="translate(569 61.5)"/><path d="m536 61.5h30" style="fill:none;stroke-linecap:butt;text-rendering:geometricPrecision;image-rendering:optimizeQuality;color-rendering:optimizeQuality;stroke-linejoin:round;stroke:#d95319;color-interpolation:linearRGB;stroke-width:.5"/><path color-interpolation="linearRGB" color-rendering="optimizeQuality" d="m7.578 1.034v-1.233h.882v-.54h-.882v-1.242h-2.232v-.666h3.015v-.576h-3.132c-.099-.252-.207-.486-.315-.684l-.666.108c.108.171.216.36.324.576h-3.438v2.898c-.027 1.827-.297 3.249-.801 4.266l.486.432c.585-1.152.9-2.673.945-4.572h2.961v.702h-2.277v.531h2.277v.81c-.837.612-1.827 1.125-2.961 1.557l.252.585c1.035-.45 1.935-.954 2.709-1.512v1.035c0 .198-.099.306-.288.306-.288 0-.585-.018-.909-.045l.126.585h.999c.459 0 .693-.234.693-.693v-1.449c.81.81 1.773 1.449 2.889 1.917l.324-.567c-.702-.261-1.332-.576-1.899-.945.477-.288.9-.612 1.26-.972l-.468-.405c-.342.396-.765.747-1.251 1.053-.306-.234-.585-.486-.855-.765v-.495zm-5.814-1.773v-1.908h2.961v.666h-2.241v.531h2.241v.711zm3.582-.711h1.611v.711h-1.611zm1.611 1.251v.702h-1.611v-.702zm-4.446 1.611-.315.459c.423.162.837.387 1.233.666l.306-.459c-.369-.27-.774-.486-1.224-.666zm8.991-4.032h5.562v-.567h-5.265c.09-.207.171-.423.243-.639l-.639-.108c-.333 1.008-.963 1.854-1.89 2.556l.387.504c.396-.297.738-.621 1.044-.972v2.691h1.152c-.486.648-1.242 1.179-2.277 1.593l.333.549c.468-.216.891-.459 1.26-.711.486.423 1.035.783 1.647 1.08-.927.27-2.043.432-3.348.486l.261.567c1.512-.09 2.79-.324 3.852-.72 1.026.396 2.205.621 3.519.684l.153-.594c-1.062-.036-2.034-.18-2.898-.432.738-.378 1.332-.846 1.782-1.422v-.468h-4.032c.162-.198.315-.396.45-.612h3.564v-2.844h-5.292c.153-.198.297-.405.432-.621zm2.331 5.715c-.729-.288-1.377-.657-1.953-1.107h3.699c-.441.441-1.026.81-1.746 1.107zm1.899-2.772h-4.149v-.666h4.149zm-4.149-1.152v-.657h4.149v.657zm7.731-2.088v.603h2.466v1.071h-3.267v.612h4.095c-1.278.738-2.682 1.296-4.221 1.656l.27.603c.522-.171 1.026-.342 1.512-.522v3.312h.657v-.405h3.897v.405h.648v-4.05h-3.402c.522-.243.999-.486 1.413-.738.135-.09.27-.171.405-.261h2.745v-.612h-1.926c.603-.486 1.17-1.053 1.701-1.683l-.495-.36c-.639.756-1.386 1.44-2.232 2.043h-1.134v-1.071h2.124v-.603h-2.124v-.954h-.666v.954zm1.512 5.373h3.897v.981h-3.897zm3.897-.576h-3.897v-.945h3.897z" image-rendering="optimizeQuality" stroke="none" text-rendering="geometricPrecision" transform="translate(569 73)"/><path d="m536 73h30" style="fill:none;stroke-linecap:butt;text-rendering:geometricPrecision;image-rendering:optimizeQuality;color-rendering:optimizeQuality;stroke-linejoin:round;stroke:#edb120;color-interpolation:linearRGB;stroke-width:.5"/><path color-interpolation="linearRGB" color-rendering="optimizeQuality" d="m8.046-3.763c-.873.378-1.854.585-2.943.603v3.852c-.045 1.368-.333 2.439-.864 3.213l.459.486c.648-.918.99-2.151 1.035-3.699v-1.071h1.332v4.806h.639v-4.806h.936v-.621h-2.907v-1.638c.972-.054 1.845-.243 2.637-.549zm-7.497.693v.594h4.059v-.594h-1.701c-.126-.324-.252-.621-.387-.891l-.666.108c.153.234.288.495.414.783zm-.09 2.043v.585h1.818v1.008h-1.674v.594h1.674v2.394c0 .216-.117.324-.351.324-.126 0-.261-.018-.405-.045l.135.603h.486c.522 0 .783-.243.783-.729v-2.547h1.584v-.594h-1.584v-1.008h1.737v-.585h-1.017c.171-.306.324-.657.468-1.044l-.585-.198c-.135.432-.288.846-.468 1.242h-.99c-.144-.486-.306-.891-.477-1.224l-.576.207c.18.315.342.657.477 1.017zm.774 2.673c-.198.792-.504 1.512-.927 2.16l.54.342c.414-.675.747-1.467.981-2.376zm2.583-.063-.54.144c.252.54.459 1.098.63 1.665l.54-.207c-.144-.486-.36-1.017-.63-1.602zm5.625-3.033v.612h.981v3.222c-.342.108-.684.207-1.035.288l.162.639c.909-.27 1.764-.603 2.556-.999v-.648c-.342.18-.693.342-1.044.486v-2.988h.909v-.612h-.909v-2.358h-.639v2.358zm4.365-2.394-.648.108c.162.315.306.657.432 1.035h-1.233v3.033h4.932v-3.033h-1.188c.153-.342.27-.72.36-1.116l-.648-.09c-.072.414-.189.819-.351 1.206h-1.269c-.126-.432-.261-.81-.387-1.143zm2.916 3.645h-1.665v-1.962h1.665zm-2.178 0h-1.62v-1.962h1.62zm-.801-1.593-.423.135c.162.36.306.747.423 1.143l.423-.108c-.126-.441-.27-.828-.423-1.17zm2.115-.045c-.126.486-.261.882-.423 1.197l.414.153c.18-.36.333-.774.45-1.242zm1.107 2.772h-4.248v3.474h.621v-.378h3.006v.378h.621zm-3.627 2.565v-.765h3.006v.765zm0-1.269v-.765h3.006v.765z" image-rendering="optimizeQuality" stroke="none" text-rendering="geometricPrecision" transform="translate(569 84.5)"/><path d="m536 84.5h30" style="fill:none;stroke-linecap:butt;text-rendering:geometricPrecision;image-rendering:optimizeQuality;color-rendering:optimizeQuality;stroke-linejoin:round;stroke:#7e2f8e;color-interpolation:linearRGB;stroke-width:.5"/><path color-interpolation="linearRGB" color-rendering="optimizeQuality" d="m3.456 3.221c.774-.288 1.503-.63 2.187-1.026l-.171-.567c-.414.252-.846.477-1.278.675v-5.895h-.612v5.796c0 .18-.108.324-.324.432zm-1.989 1.053c.495 0 .747-.279.747-.828v-2.52c.333-.144.657-.306.972-.468v-.63c-.324.18-.648.342-.972.486v-1.89h.918v-.621h-.918v-1.656h-.63v1.656h-1.053v.621h1.053v2.142c-.378.144-.765.261-1.161.351l.144.621c.342-.108.675-.225 1.017-.351v2.097c0 .279-.117.423-.333.423s-.45-.018-.693-.045l.135.612zm5.697-8.064c0 1.755-.135 3.204-.405 4.338-.342 1.35-1.053 2.466-2.133 3.357l.405.495c.792-.648 1.404-1.413 1.836-2.295.522.801.945 1.548 1.278 2.232l.513-.351c-.36-.72-.864-1.548-1.53-2.502.099-.288.189-.594.261-.909.27-1.188.405-2.646.405-4.365zm-1.818.981-.531.171c.387.702.738 1.503 1.062 2.403l.531-.243c-.306-.828-.657-1.602-1.062-2.331zm7.92-1.053c-1.062 1.251-2.385 2.295-3.987 3.141l.342.621c1.602-.9 2.898-1.953 3.879-3.177 1.062 1.296 2.34 2.349 3.843 3.159l.351-.621c-1.494-.756-2.817-1.8-3.96-3.123zm3.078 4.626h-5.688v3.627h.63v-.54h4.428v.54h.63zm-5.058 2.466v-1.854h4.428v1.854zm-.126-4.23v.621h4.68v-.621zm12.762-.855h1.332c-.036 1.215-.225 2.277-.576 3.186-.36-.756-.648-1.665-.873-2.718zm.459 3.834c-.414.765-.963 1.386-1.665 1.872l.333.54c.675-.486 1.233-1.089 1.665-1.809.45.756.99 1.368 1.62 1.818l.351-.531c-.648-.441-1.197-1.062-1.665-1.872.504-1.062.783-2.349.828-3.852h.585v-.621h-2.376c.072-.396.144-.828.198-1.287l-.63-.108c-.18 1.71-.54 3.069-1.071 4.077l.405.495c.189-.324.369-.693.531-1.107.243.9.54 1.692.891 2.385zm-4.266-1.647c-.063.18-.135.369-.216.567h-1.314v.567h1.062c-.18.36-.387.729-.621 1.125.441.162.855.333 1.251.504-.522.297-1.161.54-1.899.738l.306.54c.9-.252 1.647-.585 2.241-.999.531.234.99.477 1.386.711l.351-.504c-.396-.216-.81-.414-1.242-.612.468-.432.801-.945.999-1.539v-.531h-1.881c.054-.162.117-.324.18-.495zm.711 2.385c-.324-.135-.666-.261-1.026-.387.18-.27.342-.558.486-.864h1.548c-.216.468-.558.891-1.008 1.251zm-1.53-6.399-.513.171c.216.342.414.729.603 1.17l.468-.216c-.162-.396-.342-.774-.558-1.125zm2.736-.027c-.162.378-.396.756-.684 1.143l.459.234c.288-.378.513-.765.693-1.161zm-3.429 1.584v.567h1.278c-.27.495-.756.945-1.449 1.35l.315.522c.774-.522 1.314-1.134 1.611-1.845v1.71h.603v-1.17c.324.216.711.504 1.161.864l.333-.504c-.504-.306-1.008-.585-1.494-.828v-.099h1.638v-.567h-1.638v-1.719h-.603v1.719zm9.873 6.444c.504 0 .756-.27.756-.792v-2.628c.279-.126.558-.252.837-.396v-.639c-.27.144-.549.279-.837.405v-1.773h.864v-.621h-.864v-1.701h-.63v1.701h-1.08v.621h1.08v2.034c-.396.144-.81.27-1.224.369l.162.63c.351-.108.702-.234 1.062-.369v2.205c0 .252-.117.387-.342.387-.216 0-.45-.018-.684-.045l.135.612zm2.691-3.978h1.836v1.107h-1.503v2.952h.603v-.441h2.439v.441h.603v-2.952h-1.512v-1.107h1.926v-.585h-1.926v-1.062h1.692v-2.187h-4.743v2.817c-.009 1.89-.333 3.438-.972 4.626l.504.45c.594-1.17.945-2.52 1.053-4.059zm1.836-1.647v1.062h-1.8c0-.144.009-.288.009-.432v-.63zm-.9 4.689v-1.359h2.439v1.359zm2.592-6.273v.999h-3.483v-.999z" image-rendering="optimizeQuality" stroke="none" text-rendering="geometricPrecision" transform="translate(569 96)"/><g style="stroke-linecap:butt;text-rendering:geometricPrecision;color-rendering:optimizeQuality;image-rendering:optimizeQuality;color-interpolation:linearRGB;stroke:#f00;fill:none" transform="translate(551 96)"><path d="m0-3v6m-3-3h6m-5.1213-2.1213 4.2426 4.2426m-4.2426 0 4.2426-4.2426"/><path d="m532 103.5v-61h77v61z" stroke="#262626" stroke-width=".5" transform="translate(-551 -96)"/></g></svg>